G04 #@! TF.GenerationSoftware,KiCad,Pcbnew,(7.0.0)*
G04 #@! TF.CreationDate,2023-04-22T14:52:30+07:00*
G04 #@! TF.ProjectId,sparkfun-nrf52832-breakout,73706172-6b66-4756-9e2d-6e7266353238,rev?*
G04 #@! TF.SameCoordinates,Original*
G04 #@! TF.FileFunction,Soldermask,Top*
G04 #@! TF.FilePolarity,Negative*
%FSLAX46Y46*%
G04 Gerber Fmt 4.6, Leading zero omitted, Abs format (unit mm)*
G04 Created by KiCad (PCBNEW (7.0.0)) date 2023-04-22 14:52:30*
%MOMM*%
%LPD*%
G01*
G04 APERTURE LIST*
G04 Aperture macros list*
%AMRoundRect*
0 Rectangle with rounded corners*
0 $1 Rounding radius*
0 $2 $3 $4 $5 $6 $7 $8 $9 X,Y pos of 4 corners*
0 Add a 4 corners polygon primitive as box body*
4,1,4,$2,$3,$4,$5,$6,$7,$8,$9,$2,$3,0*
0 Add four circle primitives for the rounded corners*
1,1,$1+$1,$2,$3*
1,1,$1+$1,$4,$5*
1,1,$1+$1,$6,$7*
1,1,$1+$1,$8,$9*
0 Add four rect primitives between the rounded corners*
20,1,$1+$1,$2,$3,$4,$5,0*
20,1,$1+$1,$4,$5,$6,$7,0*
20,1,$1+$1,$6,$7,$8,$9,0*
20,1,$1+$1,$8,$9,$2,$3,0*%
G04 Aperture macros list end*
%ADD10RoundRect,0.140000X0.140000X0.170000X-0.140000X0.170000X-0.140000X-0.170000X0.140000X-0.170000X0*%
%ADD11RoundRect,0.140000X-0.140000X-0.170000X0.140000X-0.170000X0.140000X0.170000X-0.140000X0.170000X0*%
%ADD12RoundRect,0.140000X-0.170000X0.140000X-0.170000X-0.140000X0.170000X-0.140000X0.170000X0.140000X0*%
%ADD13RoundRect,0.225000X-0.250000X0.225000X-0.250000X-0.225000X0.250000X-0.225000X0.250000X0.225000X0*%
%ADD14RoundRect,0.140000X0.170000X-0.140000X0.170000X0.140000X-0.170000X0.140000X-0.170000X-0.140000X0*%
%ADD15RoundRect,0.101600X-0.550000X-0.500000X0.550000X-0.500000X0.550000X0.500000X-0.550000X0.500000X0*%
%ADD16R,1.700000X1.700000*%
%ADD17O,1.700000X1.700000*%
%ADD18RoundRect,0.101600X-0.500000X0.550000X-0.500000X-0.550000X0.500000X-0.550000X0.500000X0.550000X0*%
%ADD19C,2.082800*%
%ADD20RoundRect,0.101600X-0.450000X0.425000X-0.450000X-0.425000X0.450000X-0.425000X0.450000X0.425000X0*%
%ADD21RoundRect,0.251600X-0.350000X0.350000X-0.350000X-0.350000X0.350000X-0.350000X0.350000X0.350000X0*%
%ADD22RoundRect,0.101600X0.500000X-0.450000X0.500000X0.450000X-0.500000X0.450000X-0.500000X-0.450000X0*%
%ADD23RoundRect,0.101600X0.115000X0.340000X-0.115000X0.340000X-0.115000X-0.340000X0.115000X-0.340000X0*%
%ADD24RoundRect,0.101600X-0.340000X0.115000X-0.340000X-0.115000X0.340000X-0.115000X0.340000X0.115000X0*%
%ADD25RoundRect,0.101600X-0.115000X-0.340000X0.115000X-0.340000X0.115000X0.340000X-0.115000X0.340000X0*%
%ADD26RoundRect,0.101600X0.340000X-0.115000X0.340000X0.115000X-0.340000X0.115000X-0.340000X-0.115000X0*%
%ADD27RoundRect,0.101600X2.300000X-2.300000X2.300000X2.300000X-2.300000X2.300000X-2.300000X-2.300000X0*%
%ADD28RoundRect,0.101600X-0.600000X0.275000X-0.600000X-0.275000X0.600000X-0.275000X0.600000X0.275000X0*%
%ADD29RoundRect,0.101600X0.425000X0.450000X-0.425000X0.450000X-0.425000X-0.450000X0.425000X-0.450000X0*%
%ADD30RoundRect,0.101600X0.500000X0.900000X-0.500000X0.900000X-0.500000X-0.900000X0.500000X-0.900000X0*%
%ADD31RoundRect,0.101600X0.350000X-0.375000X0.350000X0.375000X-0.350000X0.375000X-0.350000X-0.375000X0*%
%ADD32RoundRect,0.101600X-0.350000X0.375000X-0.350000X-0.375000X0.350000X-0.375000X0.350000X0.375000X0*%
G04 APERTURE END LIST*
D10*
G04 #@! TO.C,C16*
X144630000Y-92950000D03*
X143670000Y-92950000D03*
G04 #@! TD*
D11*
G04 #@! TO.C,C14*
X149020000Y-101175000D03*
X149980000Y-101175000D03*
G04 #@! TD*
D10*
G04 #@! TO.C,C13*
X148105000Y-101175000D03*
X147145000Y-101175000D03*
G04 #@! TD*
D11*
G04 #@! TO.C,C11*
X148670000Y-90720000D03*
X149630000Y-90720000D03*
G04 #@! TD*
D12*
G04 #@! TO.C,C15*
X153600000Y-97770000D03*
X153600000Y-98730000D03*
G04 #@! TD*
G04 #@! TO.C,C6*
X144750000Y-96795000D03*
X144750000Y-97755000D03*
G04 #@! TD*
D13*
G04 #@! TO.C,C17*
X144750000Y-99900000D03*
X144750000Y-101450000D03*
G04 #@! TD*
D14*
G04 #@! TO.C,C3*
X145975000Y-101055000D03*
X145975000Y-100095000D03*
G04 #@! TD*
D10*
G04 #@! TO.C,C9*
X144630000Y-87875000D03*
X143670000Y-87875000D03*
G04 #@! TD*
D12*
G04 #@! TO.C,C5*
X146450000Y-88620000D03*
X146450000Y-89580000D03*
G04 #@! TD*
G04 #@! TO.C,C4*
X147500000Y-88620000D03*
X147500000Y-89580000D03*
G04 #@! TD*
D10*
G04 #@! TO.C,C10*
X144630000Y-91550000D03*
X143670000Y-91550000D03*
G04 #@! TD*
D15*
G04 #@! TO.C,R2*
X145100000Y-115800000D03*
X146800000Y-115800000D03*
G04 #@! TD*
D16*
G04 #@! TO.C,J5*
X146354999Y-111039999D03*
D17*
X148894999Y-111039999D03*
X151434999Y-111039999D03*
G04 #@! TD*
D18*
G04 #@! TO.C,C2*
X151700000Y-123800000D03*
X151700000Y-125500000D03*
G04 #@! TD*
D19*
G04 #@! TO.C,J4*
X156150000Y-127220000D03*
X156150000Y-124680000D03*
X156150000Y-122140000D03*
X156150000Y-119600000D03*
X156150000Y-117060000D03*
X156150000Y-114520000D03*
X156150000Y-111980000D03*
X156150000Y-109440000D03*
X156150000Y-106900000D03*
X156150000Y-104360000D03*
X156150000Y-101820000D03*
X156150000Y-99280000D03*
X156150000Y-96740000D03*
X156150000Y-94200000D03*
X156150000Y-91660000D03*
X156150000Y-89120000D03*
X156150000Y-86580000D03*
G04 #@! TD*
D20*
G04 #@! TO.C,L1*
X149675000Y-87920000D03*
X149675000Y-89080000D03*
G04 #@! TD*
D19*
G04 #@! TO.C,J1*
X142130000Y-129750000D03*
X144670000Y-129750000D03*
X147210000Y-129750000D03*
X149750000Y-129750000D03*
X152290000Y-129750000D03*
X154830000Y-129750000D03*
G04 #@! TD*
G04 #@! TO.C,J2*
X150070000Y-105650000D03*
X147530000Y-105650000D03*
G04 #@! TD*
D21*
G04 #@! TO.C,D1*
X145093000Y-114520000D03*
X146847000Y-114520000D03*
G04 #@! TD*
D22*
G04 #@! TO.C,SW1*
X146750000Y-121675000D03*
X146750000Y-117575000D03*
X145150000Y-117575000D03*
X145150000Y-121675000D03*
G04 #@! TD*
D21*
G04 #@! TO.C,D2*
X150198000Y-114425000D03*
X151952000Y-114425000D03*
G04 #@! TD*
D23*
G04 #@! TO.C,U2*
X146940000Y-98335000D03*
X147340000Y-98335000D03*
X147740000Y-98335000D03*
X148140000Y-98335000D03*
X148540000Y-98335000D03*
X148940000Y-98335000D03*
X149340000Y-98335000D03*
X149740000Y-98335000D03*
X150140000Y-98335000D03*
X150540000Y-98335000D03*
X150940000Y-98335000D03*
X151340000Y-98335000D03*
D24*
X152000000Y-97675000D03*
X152000000Y-97275000D03*
X152000000Y-96875000D03*
X152000000Y-96475000D03*
X152000000Y-96075000D03*
X152000000Y-95675000D03*
X152000000Y-95275000D03*
X152000000Y-94875000D03*
X152000000Y-94475000D03*
X152000000Y-94075000D03*
X152000000Y-93675000D03*
X152000000Y-93275000D03*
D25*
X151340000Y-92615000D03*
X150940000Y-92615000D03*
X150540000Y-92615000D03*
X150140000Y-92615000D03*
X149740000Y-92615000D03*
X149340000Y-92615000D03*
X148940000Y-92615000D03*
X148540000Y-92615000D03*
X148140000Y-92615000D03*
X147740000Y-92615000D03*
X147340000Y-92615000D03*
X146940000Y-92615000D03*
D26*
X146280000Y-93275000D03*
X146280000Y-93675000D03*
X146280000Y-94075000D03*
X146280000Y-94475000D03*
X146280000Y-94875000D03*
X146280000Y-95275000D03*
X146280000Y-95675000D03*
X146280000Y-96075000D03*
X146280000Y-96475000D03*
X146280000Y-96875000D03*
X146280000Y-97275000D03*
X146280000Y-97675000D03*
D27*
X149140000Y-95475000D03*
G04 #@! TD*
D19*
G04 #@! TO.C,J3*
X140875000Y-127200000D03*
X140875000Y-124660000D03*
X140875000Y-122120000D03*
X140875000Y-119580000D03*
X140875000Y-117040000D03*
X140875000Y-114500000D03*
X140875000Y-111960000D03*
X140875000Y-109420000D03*
X140875000Y-106880000D03*
X140875000Y-104340000D03*
X140875000Y-101800000D03*
X140875000Y-99260000D03*
X140875000Y-96720000D03*
X140875000Y-94180000D03*
X140875000Y-91640000D03*
X140875000Y-89100000D03*
X140875000Y-86560000D03*
G04 #@! TD*
D28*
G04 #@! TO.C,U1*
X147224900Y-123725000D03*
X147224900Y-124675000D03*
X147224900Y-125625000D03*
X149825100Y-125625000D03*
X149825100Y-123725000D03*
G04 #@! TD*
D22*
G04 #@! TO.C,SW2*
X151850000Y-121675000D03*
X151850000Y-117575000D03*
X150250000Y-117575000D03*
X150250000Y-121675000D03*
G04 #@! TD*
D15*
G04 #@! TO.C,R1*
X150225000Y-115800000D03*
X151925000Y-115800000D03*
G04 #@! TD*
D18*
G04 #@! TO.C,C1*
X145150000Y-123900000D03*
X145150000Y-125600000D03*
G04 #@! TD*
D29*
G04 #@! TO.C,C12*
X149655000Y-86575000D03*
X148495000Y-86575000D03*
G04 #@! TD*
D30*
G04 #@! TO.C,Y2*
X149725000Y-103100000D03*
X147225000Y-103100000D03*
G04 #@! TD*
D31*
G04 #@! TO.C,Y1*
X144700000Y-90425000D03*
D32*
X144700000Y-89075000D03*
X143700000Y-89075000D03*
D31*
X143700000Y-90425000D03*
G04 #@! TD*
M02*
