M48
; DRILL file {KiCad (7.0.0)} date Sat Apr 22 14:52:31 2023
; FORMAT={-:-/ absolute / inch / decimal}
; #@! TF.CreationDate,2023-04-22T14:52:31+07:00
; #@! TF.GenerationSoftware,Kicad,Pcbnew,(7.0.0)
; #@! TF.FileFunction,MixedPlating,1,2
FMAT,2
INCH
; #@! TA.AperFunction,Plated,PTH,ViaDrill
T1C0.0100
; #@! TA.AperFunction,Plated,PTH,ComponentDrill
T2C0.0394
; #@! TA.AperFunction,Plated,PTH,ComponentDrill
T3C0.0400
%
G90
G05
T1
X5.589Y-3.324
X5.5965Y-4.24
X5.5965Y-4.271
X5.6075Y-3.3681
X5.6155Y-3.448
X5.6415Y-3.324
X5.6575Y-3.389
X5.6575Y-4.509
X5.6575Y-4.839
X5.6654Y-3.628
X5.683Y-4.5945
X5.6845Y-4.092
X5.6875Y-4.041
X5.6909Y-3.8878
X5.7057Y-3.778
X5.7075Y-3.389
X5.7155Y-4.667
X5.7155Y-4.752
X5.7265Y-3.889
X5.7275Y-3.628
X5.7315Y-3.324
X5.7362Y-4.2146
X5.7465Y-4.015
X5.7475Y-4.059
X5.748Y-4.594
X5.7535Y-4.908
X5.7565Y-3.448
X5.7575Y-3.389
X5.7805Y-3.932
X5.7815Y-3.324
X5.7965Y-3.684
X5.7965Y-3.734
X5.7965Y-3.784
X5.7965Y-3.834
X5.8065Y-3.448
X5.8075Y-3.389
X5.8085Y-3.931
X5.8305Y-3.946
X5.8315Y-3.324
X5.8455Y-4.7815
X5.8465Y-3.684
X5.8465Y-3.734
X5.8465Y-3.784
X5.8465Y-3.834
X5.8485Y-4.647
X5.8499Y-3.9236
X5.8543Y-3.474
X5.869Y-3.946
X5.8815Y-3.324
X5.888Y-3.923
X5.8965Y-3.684
X5.8965Y-3.734
X5.8965Y-3.784
X5.8965Y-3.834
X5.8976Y-4.8406
X5.9Y-3.6065
X5.907Y-3.946
X5.925Y-3.5985
X5.9265Y-3.923
X5.9315Y-3.324
X5.9315Y-3.374
X5.9315Y-3.424
X5.9315Y-3.474
X5.9385Y-3.576
X5.9455Y-3.946
X5.9455Y-4.059
X5.9465Y-3.684
X5.9465Y-3.734
X5.9465Y-3.784
X5.9465Y-3.834
X5.9469Y-4.7096
X5.9645Y-3.924
X5.966Y-3.575
X5.9795Y-3.8668
X5.9803Y-4.1575
X5.9815Y-3.324
X5.9815Y-3.374
X5.9815Y-3.424
X5.9815Y-3.474
X5.9905Y-3.927
X5.9925Y-3.62
X5.9945Y-3.576
X6.0105Y-3.866
X6.0125Y-3.9128
X6.015Y-3.6345
X6.0245Y-3.94
X6.0295Y-4.9459
X6.0315Y-3.324
X6.0315Y-3.374
X6.0315Y-3.424
X6.0315Y-3.474
X6.0345Y-3.617
X6.0505Y-3.94
X6.0535Y-3.549
X6.0565Y-3.691
X6.0565Y-3.718
X6.0565Y-3.744
X6.0765Y-3.94
X6.0815Y-3.324
X6.0815Y-3.374
X6.1045Y-4.144
X6.1045Y-4.17
X6.1315Y-3.324
X6.1765Y-3.324
T2
X5.762Y-4.3717
X5.862Y-4.3717
X5.962Y-4.3717
T3
X5.5463Y-3.4079
X5.5463Y-3.5079
X5.5463Y-3.6079
X5.5463Y-3.7079
X5.5463Y-3.8079
X5.5463Y-3.9079
X5.5463Y-4.0079
X5.5463Y-4.1079
X5.5463Y-4.2079
X5.5463Y-4.3079
X5.5463Y-4.4079
X5.5463Y-4.5079
X5.5463Y-4.6079
X5.5463Y-4.7079
X5.5463Y-4.8079
X5.5463Y-4.9079
X5.5463Y-5.0079
X5.5957Y-5.1083
X5.6957Y-5.1083
X5.7957Y-5.1083
X5.8083Y-4.1594
X5.8957Y-5.1083
X5.9083Y-4.1594
X5.9957Y-5.1083
X6.0957Y-5.1083
X6.1476Y-3.4087
X6.1476Y-3.5087
X6.1476Y-3.6087
X6.1476Y-3.7087
X6.1476Y-3.8087
X6.1476Y-3.9087
X6.1476Y-4.0087
X6.1476Y-4.1087
X6.1476Y-4.2087
X6.1476Y-4.3087
X6.1476Y-4.4087
X6.1476Y-4.5087
X6.1476Y-4.6087
X6.1476Y-4.7087
X6.1476Y-4.8087
X6.1476Y-4.9087
X6.1476Y-5.0087
T0
M30
