G04 #@! TF.GenerationSoftware,KiCad,Pcbnew,(7.0.0)*
G04 #@! TF.CreationDate,2023-04-22T14:52:30+07:00*
G04 #@! TF.ProjectId,sparkfun-nrf52832-breakout,73706172-6b66-4756-9e2d-6e7266353238,rev?*
G04 #@! TF.SameCoordinates,Original*
G04 #@! TF.FileFunction,Legend,Bot*
G04 #@! TF.FilePolarity,Positive*
%FSLAX46Y46*%
G04 Gerber Fmt 4.6, Leading zero omitted, Abs format (unit mm)*
G04 Created by KiCad (PCBNEW (7.0.0)) date 2023-04-22 14:52:30*
%MOMM*%
%LPD*%
G01*
G04 APERTURE LIST*
%ADD10C,0.133350*%
%ADD11C,0.171450*%
%ADD12C,0.203200*%
G04 APERTURE END LIST*
D10*
X143319500Y-108430452D02*
X143283517Y-108394469D01*
X143283517Y-108394469D02*
X143211550Y-108358485D01*
X143211550Y-108358485D02*
X143031634Y-108358485D01*
X143031634Y-108358485D02*
X142959667Y-108394469D01*
X142959667Y-108394469D02*
X142923684Y-108430452D01*
X142923684Y-108430452D02*
X142887700Y-108502419D01*
X142887700Y-108502419D02*
X142887700Y-108574385D01*
X142887700Y-108574385D02*
X142923684Y-108682335D01*
X142923684Y-108682335D02*
X143355484Y-109114135D01*
X143355484Y-109114135D02*
X142887700Y-109114135D01*
X142455900Y-108682335D02*
X142527867Y-108646352D01*
X142527867Y-108646352D02*
X142563850Y-108610369D01*
X142563850Y-108610369D02*
X142599833Y-108538402D01*
X142599833Y-108538402D02*
X142599833Y-108502419D01*
X142599833Y-108502419D02*
X142563850Y-108430452D01*
X142563850Y-108430452D02*
X142527867Y-108394469D01*
X142527867Y-108394469D02*
X142455900Y-108358485D01*
X142455900Y-108358485D02*
X142311967Y-108358485D01*
X142311967Y-108358485D02*
X142240000Y-108394469D01*
X142240000Y-108394469D02*
X142204017Y-108430452D01*
X142204017Y-108430452D02*
X142168033Y-108502419D01*
X142168033Y-108502419D02*
X142168033Y-108538402D01*
X142168033Y-108538402D02*
X142204017Y-108610369D01*
X142204017Y-108610369D02*
X142240000Y-108646352D01*
X142240000Y-108646352D02*
X142311967Y-108682335D01*
X142311967Y-108682335D02*
X142455900Y-108682335D01*
X142455900Y-108682335D02*
X142527867Y-108718319D01*
X142527867Y-108718319D02*
X142563850Y-108754302D01*
X142563850Y-108754302D02*
X142599833Y-108826269D01*
X142599833Y-108826269D02*
X142599833Y-108970202D01*
X142599833Y-108970202D02*
X142563850Y-109042169D01*
X142563850Y-109042169D02*
X142527867Y-109078152D01*
X142527867Y-109078152D02*
X142455900Y-109114135D01*
X142455900Y-109114135D02*
X142311967Y-109114135D01*
X142311967Y-109114135D02*
X142240000Y-109078152D01*
X142240000Y-109078152D02*
X142204017Y-109042169D01*
X142204017Y-109042169D02*
X142168033Y-108970202D01*
X142168033Y-108970202D02*
X142168033Y-108826269D01*
X142168033Y-108826269D02*
X142204017Y-108754302D01*
X142204017Y-108754302D02*
X142240000Y-108718319D01*
X142240000Y-108718319D02*
X142311967Y-108682335D01*
X143859250Y-110050422D02*
X143823267Y-110014438D01*
X143823267Y-110014438D02*
X143751300Y-109978455D01*
X143751300Y-109978455D02*
X143607367Y-110050422D01*
X143607367Y-110050422D02*
X143535400Y-110014438D01*
X143535400Y-110014438D02*
X143499417Y-109978455D01*
X143247533Y-110122388D02*
X142887700Y-110122388D01*
X143319500Y-110338288D02*
X143067617Y-109582638D01*
X143067617Y-109582638D02*
X142815733Y-110338288D01*
X142240000Y-109834522D02*
X142240000Y-110338288D01*
X142419917Y-109546655D02*
X142599833Y-110086405D01*
X142599833Y-110086405D02*
X142132050Y-110086405D01*
X154148366Y-98954135D02*
X154580166Y-98954135D01*
X154364266Y-98954135D02*
X154364266Y-98198485D01*
X154364266Y-98198485D02*
X154436233Y-98306435D01*
X154436233Y-98306435D02*
X154508200Y-98378402D01*
X154508200Y-98378402D02*
X154580166Y-98414385D01*
X153680583Y-98198485D02*
X153608616Y-98198485D01*
X153608616Y-98198485D02*
X153536649Y-98234469D01*
X153536649Y-98234469D02*
X153500666Y-98270452D01*
X153500666Y-98270452D02*
X153464683Y-98342419D01*
X153464683Y-98342419D02*
X153428699Y-98486352D01*
X153428699Y-98486352D02*
X153428699Y-98666269D01*
X153428699Y-98666269D02*
X153464683Y-98810202D01*
X153464683Y-98810202D02*
X153500666Y-98882169D01*
X153500666Y-98882169D02*
X153536649Y-98918152D01*
X153536649Y-98918152D02*
X153608616Y-98954135D01*
X153608616Y-98954135D02*
X153680583Y-98954135D01*
X153680583Y-98954135D02*
X153752549Y-98918152D01*
X153752549Y-98918152D02*
X153788533Y-98882169D01*
X153788533Y-98882169D02*
X153824516Y-98810202D01*
X153824516Y-98810202D02*
X153860499Y-98666269D01*
X153860499Y-98666269D02*
X153860499Y-98486352D01*
X153860499Y-98486352D02*
X153824516Y-98342419D01*
X153824516Y-98342419D02*
X153788533Y-98270452D01*
X153788533Y-98270452D02*
X153752549Y-98234469D01*
X153752549Y-98234469D02*
X153680583Y-98198485D01*
X154652133Y-99890422D02*
X154616150Y-99854438D01*
X154616150Y-99854438D02*
X154544183Y-99818455D01*
X154544183Y-99818455D02*
X154400250Y-99890422D01*
X154400250Y-99890422D02*
X154328283Y-99854438D01*
X154328283Y-99854438D02*
X154292300Y-99818455D01*
X154004433Y-100178288D02*
X154004433Y-99422638D01*
X154004433Y-99422638D02*
X153572633Y-100178288D01*
X153572633Y-100178288D02*
X153572633Y-99422638D01*
X152960917Y-99782472D02*
X153212800Y-99782472D01*
X153212800Y-100178288D02*
X153212800Y-99422638D01*
X153212800Y-99422638D02*
X152852967Y-99422638D01*
X152133300Y-100106322D02*
X152169283Y-100142305D01*
X152169283Y-100142305D02*
X152277233Y-100178288D01*
X152277233Y-100178288D02*
X152349200Y-100178288D01*
X152349200Y-100178288D02*
X152457150Y-100142305D01*
X152457150Y-100142305D02*
X152529117Y-100070338D01*
X152529117Y-100070338D02*
X152565100Y-99998372D01*
X152565100Y-99998372D02*
X152601083Y-99854438D01*
X152601083Y-99854438D02*
X152601083Y-99746488D01*
X152601083Y-99746488D02*
X152565100Y-99602555D01*
X152565100Y-99602555D02*
X152529117Y-99530588D01*
X152529117Y-99530588D02*
X152457150Y-99458622D01*
X152457150Y-99458622D02*
X152349200Y-99422638D01*
X152349200Y-99422638D02*
X152277233Y-99422638D01*
X152277233Y-99422638D02*
X152169283Y-99458622D01*
X152169283Y-99458622D02*
X152133300Y-99494605D01*
X151845433Y-99494605D02*
X151809450Y-99458622D01*
X151809450Y-99458622D02*
X151737483Y-99422638D01*
X151737483Y-99422638D02*
X151557567Y-99422638D01*
X151557567Y-99422638D02*
X151485600Y-99458622D01*
X151485600Y-99458622D02*
X151449617Y-99494605D01*
X151449617Y-99494605D02*
X151413633Y-99566572D01*
X151413633Y-99566572D02*
X151413633Y-99638538D01*
X151413633Y-99638538D02*
X151449617Y-99746488D01*
X151449617Y-99746488D02*
X151881417Y-100178288D01*
X151881417Y-100178288D02*
X151413633Y-100178288D01*
X142887700Y-89406211D02*
X143319500Y-89406211D01*
X143103600Y-89406211D02*
X143103600Y-88650561D01*
X143103600Y-88650561D02*
X143175567Y-88758511D01*
X143175567Y-88758511D02*
X143247534Y-88830478D01*
X143247534Y-88830478D02*
X143319500Y-88866461D01*
X142635817Y-88650561D02*
X142132050Y-88650561D01*
X142132050Y-88650561D02*
X142455900Y-89406211D01*
X150138341Y-101740356D02*
X150390224Y-101380523D01*
X150570141Y-101740356D02*
X150570141Y-100984706D01*
X150570141Y-100984706D02*
X150282274Y-100984706D01*
X150282274Y-100984706D02*
X150210308Y-101020690D01*
X150210308Y-101020690D02*
X150174324Y-101056673D01*
X150174324Y-101056673D02*
X150138341Y-101128640D01*
X150138341Y-101128640D02*
X150138341Y-101236590D01*
X150138341Y-101236590D02*
X150174324Y-101308556D01*
X150174324Y-101308556D02*
X150210308Y-101344540D01*
X150210308Y-101344540D02*
X150282274Y-101380523D01*
X150282274Y-101380523D02*
X150570141Y-101380523D01*
X149922441Y-100984706D02*
X149490641Y-100984706D01*
X149706541Y-101740356D02*
X149706541Y-100984706D01*
X148806958Y-101668390D02*
X148842941Y-101704373D01*
X148842941Y-101704373D02*
X148950891Y-101740356D01*
X148950891Y-101740356D02*
X149022858Y-101740356D01*
X149022858Y-101740356D02*
X149130808Y-101704373D01*
X149130808Y-101704373D02*
X149202775Y-101632406D01*
X149202775Y-101632406D02*
X149238758Y-101560440D01*
X149238758Y-101560440D02*
X149274741Y-101416506D01*
X149274741Y-101416506D02*
X149274741Y-101308556D01*
X149274741Y-101308556D02*
X149238758Y-101164623D01*
X149238758Y-101164623D02*
X149202775Y-101092656D01*
X149202775Y-101092656D02*
X149130808Y-101020690D01*
X149130808Y-101020690D02*
X149022858Y-100984706D01*
X149022858Y-100984706D02*
X148950891Y-100984706D01*
X148950891Y-100984706D02*
X148842941Y-101020690D01*
X148842941Y-101020690D02*
X148806958Y-101056673D01*
X148483108Y-101452490D02*
X147907375Y-101452490D01*
X147547541Y-101344540D02*
X147295658Y-101344540D01*
X147187708Y-101740356D02*
X147547541Y-101740356D01*
X147547541Y-101740356D02*
X147547541Y-100984706D01*
X147547541Y-100984706D02*
X147187708Y-100984706D01*
X146863858Y-101740356D02*
X146863858Y-100984706D01*
X146863858Y-100984706D02*
X146432058Y-101740356D01*
X146432058Y-101740356D02*
X146432058Y-100984706D01*
X154616150Y-121670561D02*
X154148366Y-121670561D01*
X154148366Y-121670561D02*
X154400250Y-121958428D01*
X154400250Y-121958428D02*
X154292300Y-121958428D01*
X154292300Y-121958428D02*
X154220333Y-121994411D01*
X154220333Y-121994411D02*
X154184350Y-122030395D01*
X154184350Y-122030395D02*
X154148366Y-122102361D01*
X154148366Y-122102361D02*
X154148366Y-122282278D01*
X154148366Y-122282278D02*
X154184350Y-122354245D01*
X154184350Y-122354245D02*
X154220333Y-122390228D01*
X154220333Y-122390228D02*
X154292300Y-122426211D01*
X154292300Y-122426211D02*
X154508200Y-122426211D01*
X154508200Y-122426211D02*
X154580166Y-122390228D01*
X154580166Y-122390228D02*
X154616150Y-122354245D01*
X153824516Y-122354245D02*
X153788533Y-122390228D01*
X153788533Y-122390228D02*
X153824516Y-122426211D01*
X153824516Y-122426211D02*
X153860499Y-122390228D01*
X153860499Y-122390228D02*
X153824516Y-122354245D01*
X153824516Y-122354245D02*
X153824516Y-122426211D01*
X153536650Y-121670561D02*
X153068866Y-121670561D01*
X153068866Y-121670561D02*
X153320750Y-121958428D01*
X153320750Y-121958428D02*
X153212800Y-121958428D01*
X153212800Y-121958428D02*
X153140833Y-121994411D01*
X153140833Y-121994411D02*
X153104850Y-122030395D01*
X153104850Y-122030395D02*
X153068866Y-122102361D01*
X153068866Y-122102361D02*
X153068866Y-122282278D01*
X153068866Y-122282278D02*
X153104850Y-122354245D01*
X153104850Y-122354245D02*
X153140833Y-122390228D01*
X153140833Y-122390228D02*
X153212800Y-122426211D01*
X153212800Y-122426211D02*
X153428700Y-122426211D01*
X153428700Y-122426211D02*
X153500666Y-122390228D01*
X153500666Y-122390228D02*
X153536650Y-122354245D01*
X152852966Y-121670561D02*
X152601083Y-122426211D01*
X152601083Y-122426211D02*
X152349199Y-121670561D01*
X145709247Y-128100666D02*
X145745231Y-128064683D01*
X145745231Y-128064683D02*
X145781214Y-127992716D01*
X145781214Y-127992716D02*
X145781214Y-127812800D01*
X145781214Y-127812800D02*
X145745231Y-127740833D01*
X145745231Y-127740833D02*
X145709247Y-127704850D01*
X145709247Y-127704850D02*
X145637281Y-127668866D01*
X145637281Y-127668866D02*
X145565314Y-127668866D01*
X145565314Y-127668866D02*
X145457364Y-127704850D01*
X145457364Y-127704850D02*
X145025564Y-128136650D01*
X145025564Y-128136650D02*
X145025564Y-127668866D01*
X145781214Y-127416983D02*
X145781214Y-126913216D01*
X145781214Y-126913216D02*
X145025564Y-127237066D01*
X144089278Y-128172633D02*
X144125261Y-128136650D01*
X144125261Y-128136650D02*
X144161244Y-128064683D01*
X144161244Y-128064683D02*
X144089278Y-127920750D01*
X144089278Y-127920750D02*
X144125261Y-127848783D01*
X144125261Y-127848783D02*
X144161244Y-127812800D01*
X144557061Y-127632883D02*
X144557061Y-127201083D01*
X143801411Y-127416983D02*
X144557061Y-127416983D01*
X144557061Y-127021167D02*
X143801411Y-126517400D01*
X144557061Y-126517400D02*
X143801411Y-127021167D01*
X154400250Y-108358485D02*
X154328283Y-108358485D01*
X154328283Y-108358485D02*
X154256316Y-108394469D01*
X154256316Y-108394469D02*
X154220333Y-108430452D01*
X154220333Y-108430452D02*
X154184350Y-108502419D01*
X154184350Y-108502419D02*
X154148366Y-108646352D01*
X154148366Y-108646352D02*
X154148366Y-108826269D01*
X154148366Y-108826269D02*
X154184350Y-108970202D01*
X154184350Y-108970202D02*
X154220333Y-109042169D01*
X154220333Y-109042169D02*
X154256316Y-109078152D01*
X154256316Y-109078152D02*
X154328283Y-109114135D01*
X154328283Y-109114135D02*
X154400250Y-109114135D01*
X154400250Y-109114135D02*
X154472216Y-109078152D01*
X154472216Y-109078152D02*
X154508200Y-109042169D01*
X154508200Y-109042169D02*
X154544183Y-108970202D01*
X154544183Y-108970202D02*
X154580166Y-108826269D01*
X154580166Y-108826269D02*
X154580166Y-108646352D01*
X154580166Y-108646352D02*
X154544183Y-108502419D01*
X154544183Y-108502419D02*
X154508200Y-108430452D01*
X154508200Y-108430452D02*
X154472216Y-108394469D01*
X154472216Y-108394469D02*
X154400250Y-108358485D01*
X153500666Y-108610369D02*
X153500666Y-109114135D01*
X153680583Y-108322502D02*
X153860499Y-108862252D01*
X153860499Y-108862252D02*
X153392716Y-108862252D01*
X154652133Y-110050422D02*
X154616150Y-110014438D01*
X154616150Y-110014438D02*
X154544183Y-109978455D01*
X154544183Y-109978455D02*
X154400250Y-110050422D01*
X154400250Y-110050422D02*
X154328283Y-110014438D01*
X154328283Y-110014438D02*
X154292300Y-109978455D01*
X154040416Y-110122388D02*
X153680583Y-110122388D01*
X154112383Y-110338288D02*
X153860500Y-109582638D01*
X153860500Y-109582638D02*
X153608616Y-110338288D01*
X153392716Y-109654605D02*
X153356733Y-109618622D01*
X153356733Y-109618622D02*
X153284766Y-109582638D01*
X153284766Y-109582638D02*
X153104850Y-109582638D01*
X153104850Y-109582638D02*
X153032883Y-109618622D01*
X153032883Y-109618622D02*
X152996900Y-109654605D01*
X152996900Y-109654605D02*
X152960916Y-109726572D01*
X152960916Y-109726572D02*
X152960916Y-109798538D01*
X152960916Y-109798538D02*
X152996900Y-109906488D01*
X152996900Y-109906488D02*
X153428700Y-110338288D01*
X153428700Y-110338288D02*
X152960916Y-110338288D01*
X154400250Y-115978485D02*
X154328283Y-115978485D01*
X154328283Y-115978485D02*
X154256316Y-116014469D01*
X154256316Y-116014469D02*
X154220333Y-116050452D01*
X154220333Y-116050452D02*
X154184350Y-116122419D01*
X154184350Y-116122419D02*
X154148366Y-116266352D01*
X154148366Y-116266352D02*
X154148366Y-116446269D01*
X154148366Y-116446269D02*
X154184350Y-116590202D01*
X154184350Y-116590202D02*
X154220333Y-116662169D01*
X154220333Y-116662169D02*
X154256316Y-116698152D01*
X154256316Y-116698152D02*
X154328283Y-116734135D01*
X154328283Y-116734135D02*
X154400250Y-116734135D01*
X154400250Y-116734135D02*
X154472216Y-116698152D01*
X154472216Y-116698152D02*
X154508200Y-116662169D01*
X154508200Y-116662169D02*
X154544183Y-116590202D01*
X154544183Y-116590202D02*
X154580166Y-116446269D01*
X154580166Y-116446269D02*
X154580166Y-116266352D01*
X154580166Y-116266352D02*
X154544183Y-116122419D01*
X154544183Y-116122419D02*
X154508200Y-116050452D01*
X154508200Y-116050452D02*
X154472216Y-116014469D01*
X154472216Y-116014469D02*
X154400250Y-115978485D01*
X153428699Y-116734135D02*
X153860499Y-116734135D01*
X153644599Y-116734135D02*
X153644599Y-115978485D01*
X153644599Y-115978485D02*
X153716566Y-116086435D01*
X153716566Y-116086435D02*
X153788533Y-116158402D01*
X153788533Y-116158402D02*
X153860499Y-116194385D01*
X154652133Y-117670422D02*
X154616150Y-117634438D01*
X154616150Y-117634438D02*
X154544183Y-117598455D01*
X154544183Y-117598455D02*
X154400250Y-117670422D01*
X154400250Y-117670422D02*
X154328283Y-117634438D01*
X154328283Y-117634438D02*
X154292300Y-117598455D01*
X154076400Y-117202638D02*
X153572633Y-117958288D01*
X153572633Y-117202638D02*
X154076400Y-117958288D01*
X153320749Y-117274605D02*
X153284766Y-117238622D01*
X153284766Y-117238622D02*
X153212799Y-117202638D01*
X153212799Y-117202638D02*
X153032883Y-117202638D01*
X153032883Y-117202638D02*
X152960916Y-117238622D01*
X152960916Y-117238622D02*
X152924933Y-117274605D01*
X152924933Y-117274605D02*
X152888949Y-117346572D01*
X152888949Y-117346572D02*
X152888949Y-117418538D01*
X152888949Y-117418538D02*
X152924933Y-117526488D01*
X152924933Y-117526488D02*
X153356733Y-117958288D01*
X153356733Y-117958288D02*
X152888949Y-117958288D01*
X150951141Y-114440356D02*
X150951141Y-113684706D01*
X150951141Y-113684706D02*
X150663274Y-113684706D01*
X150663274Y-113684706D02*
X150591308Y-113720690D01*
X150591308Y-113720690D02*
X150555324Y-113756673D01*
X150555324Y-113756673D02*
X150519341Y-113828640D01*
X150519341Y-113828640D02*
X150519341Y-113936590D01*
X150519341Y-113936590D02*
X150555324Y-114008556D01*
X150555324Y-114008556D02*
X150591308Y-114044540D01*
X150591308Y-114044540D02*
X150663274Y-114080523D01*
X150663274Y-114080523D02*
X150951141Y-114080523D01*
X150267458Y-113684706D02*
X150087541Y-114440356D01*
X150087541Y-114440356D02*
X149943608Y-113900606D01*
X149943608Y-113900606D02*
X149799674Y-114440356D01*
X149799674Y-114440356D02*
X149619758Y-113684706D01*
X148900091Y-114440356D02*
X149151974Y-114080523D01*
X149331891Y-114440356D02*
X149331891Y-113684706D01*
X149331891Y-113684706D02*
X149044024Y-113684706D01*
X149044024Y-113684706D02*
X148972058Y-113720690D01*
X148972058Y-113720690D02*
X148936074Y-113756673D01*
X148936074Y-113756673D02*
X148900091Y-113828640D01*
X148900091Y-113828640D02*
X148900091Y-113936590D01*
X148900091Y-113936590D02*
X148936074Y-114008556D01*
X148936074Y-114008556D02*
X148972058Y-114044540D01*
X148972058Y-114044540D02*
X149044024Y-114080523D01*
X149044024Y-114080523D02*
X149331891Y-114080523D01*
X148576241Y-114152490D02*
X148000508Y-114152490D01*
X147280841Y-114440356D02*
X147640674Y-114440356D01*
X147640674Y-114440356D02*
X147640674Y-113684706D01*
X147028957Y-114044540D02*
X146777074Y-114044540D01*
X146669124Y-114440356D02*
X147028957Y-114440356D01*
X147028957Y-114440356D02*
X147028957Y-113684706D01*
X147028957Y-113684706D02*
X146669124Y-113684706D01*
X146345274Y-114440356D02*
X146345274Y-113684706D01*
X146345274Y-113684706D02*
X146165357Y-113684706D01*
X146165357Y-113684706D02*
X146057407Y-113720690D01*
X146057407Y-113720690D02*
X145985441Y-113792656D01*
X145985441Y-113792656D02*
X145949457Y-113864623D01*
X145949457Y-113864623D02*
X145913474Y-114008556D01*
X145913474Y-114008556D02*
X145913474Y-114116506D01*
X145913474Y-114116506D02*
X145949457Y-114260440D01*
X145949457Y-114260440D02*
X145985441Y-114332406D01*
X145985441Y-114332406D02*
X146057407Y-114404373D01*
X146057407Y-114404373D02*
X146165357Y-114440356D01*
X146165357Y-114440356D02*
X146345274Y-114440356D01*
X154148366Y-91946211D02*
X154580166Y-91946211D01*
X154364266Y-91946211D02*
X154364266Y-91190561D01*
X154364266Y-91190561D02*
X154436233Y-91298511D01*
X154436233Y-91298511D02*
X154508200Y-91370478D01*
X154508200Y-91370478D02*
X154580166Y-91406461D01*
X153896483Y-91190561D02*
X153428699Y-91190561D01*
X153428699Y-91190561D02*
X153680583Y-91478428D01*
X153680583Y-91478428D02*
X153572633Y-91478428D01*
X153572633Y-91478428D02*
X153500666Y-91514411D01*
X153500666Y-91514411D02*
X153464683Y-91550395D01*
X153464683Y-91550395D02*
X153428699Y-91622361D01*
X153428699Y-91622361D02*
X153428699Y-91802278D01*
X153428699Y-91802278D02*
X153464683Y-91874245D01*
X153464683Y-91874245D02*
X153500666Y-91910228D01*
X153500666Y-91910228D02*
X153572633Y-91946211D01*
X153572633Y-91946211D02*
X153788533Y-91946211D01*
X153788533Y-91946211D02*
X153860499Y-91910228D01*
X153860499Y-91910228D02*
X153896483Y-91874245D01*
X154400250Y-103890561D02*
X154328283Y-103890561D01*
X154328283Y-103890561D02*
X154256316Y-103926545D01*
X154256316Y-103926545D02*
X154220333Y-103962528D01*
X154220333Y-103962528D02*
X154184350Y-104034495D01*
X154184350Y-104034495D02*
X154148366Y-104178428D01*
X154148366Y-104178428D02*
X154148366Y-104358345D01*
X154148366Y-104358345D02*
X154184350Y-104502278D01*
X154184350Y-104502278D02*
X154220333Y-104574245D01*
X154220333Y-104574245D02*
X154256316Y-104610228D01*
X154256316Y-104610228D02*
X154328283Y-104646211D01*
X154328283Y-104646211D02*
X154400250Y-104646211D01*
X154400250Y-104646211D02*
X154472216Y-104610228D01*
X154472216Y-104610228D02*
X154508200Y-104574245D01*
X154508200Y-104574245D02*
X154544183Y-104502278D01*
X154544183Y-104502278D02*
X154580166Y-104358345D01*
X154580166Y-104358345D02*
X154580166Y-104178428D01*
X154580166Y-104178428D02*
X154544183Y-104034495D01*
X154544183Y-104034495D02*
X154508200Y-103962528D01*
X154508200Y-103962528D02*
X154472216Y-103926545D01*
X154472216Y-103926545D02*
X154400250Y-103890561D01*
X153716566Y-104214411D02*
X153788533Y-104178428D01*
X153788533Y-104178428D02*
X153824516Y-104142445D01*
X153824516Y-104142445D02*
X153860499Y-104070478D01*
X153860499Y-104070478D02*
X153860499Y-104034495D01*
X153860499Y-104034495D02*
X153824516Y-103962528D01*
X153824516Y-103962528D02*
X153788533Y-103926545D01*
X153788533Y-103926545D02*
X153716566Y-103890561D01*
X153716566Y-103890561D02*
X153572633Y-103890561D01*
X153572633Y-103890561D02*
X153500666Y-103926545D01*
X153500666Y-103926545D02*
X153464683Y-103962528D01*
X153464683Y-103962528D02*
X153428699Y-104034495D01*
X153428699Y-104034495D02*
X153428699Y-104070478D01*
X153428699Y-104070478D02*
X153464683Y-104142445D01*
X153464683Y-104142445D02*
X153500666Y-104178428D01*
X153500666Y-104178428D02*
X153572633Y-104214411D01*
X153572633Y-104214411D02*
X153716566Y-104214411D01*
X153716566Y-104214411D02*
X153788533Y-104250395D01*
X153788533Y-104250395D02*
X153824516Y-104286378D01*
X153824516Y-104286378D02*
X153860499Y-104358345D01*
X153860499Y-104358345D02*
X153860499Y-104502278D01*
X153860499Y-104502278D02*
X153824516Y-104574245D01*
X153824516Y-104574245D02*
X153788533Y-104610228D01*
X153788533Y-104610228D02*
X153716566Y-104646211D01*
X153716566Y-104646211D02*
X153572633Y-104646211D01*
X153572633Y-104646211D02*
X153500666Y-104610228D01*
X153500666Y-104610228D02*
X153464683Y-104574245D01*
X153464683Y-104574245D02*
X153428699Y-104502278D01*
X153428699Y-104502278D02*
X153428699Y-104358345D01*
X153428699Y-104358345D02*
X153464683Y-104286378D01*
X153464683Y-104286378D02*
X153500666Y-104250395D01*
X153500666Y-104250395D02*
X153572633Y-104214411D01*
X143319500Y-98882528D02*
X143283517Y-98846545D01*
X143283517Y-98846545D02*
X143211550Y-98810561D01*
X143211550Y-98810561D02*
X143031634Y-98810561D01*
X143031634Y-98810561D02*
X142959667Y-98846545D01*
X142959667Y-98846545D02*
X142923684Y-98882528D01*
X142923684Y-98882528D02*
X142887700Y-98954495D01*
X142887700Y-98954495D02*
X142887700Y-99026461D01*
X142887700Y-99026461D02*
X142923684Y-99134411D01*
X142923684Y-99134411D02*
X143355484Y-99566211D01*
X143355484Y-99566211D02*
X142887700Y-99566211D01*
X142599833Y-98882528D02*
X142563850Y-98846545D01*
X142563850Y-98846545D02*
X142491883Y-98810561D01*
X142491883Y-98810561D02*
X142311967Y-98810561D01*
X142311967Y-98810561D02*
X142240000Y-98846545D01*
X142240000Y-98846545D02*
X142204017Y-98882528D01*
X142204017Y-98882528D02*
X142168033Y-98954495D01*
X142168033Y-98954495D02*
X142168033Y-99026461D01*
X142168033Y-99026461D02*
X142204017Y-99134411D01*
X142204017Y-99134411D02*
X142635817Y-99566211D01*
X142635817Y-99566211D02*
X142168033Y-99566211D01*
X143215455Y-127287866D02*
X143251438Y-127359833D01*
X143251438Y-127359833D02*
X143251438Y-127467783D01*
X143251438Y-127467783D02*
X143215455Y-127575733D01*
X143215455Y-127575733D02*
X143143488Y-127647700D01*
X143143488Y-127647700D02*
X143071521Y-127683683D01*
X143071521Y-127683683D02*
X142927588Y-127719666D01*
X142927588Y-127719666D02*
X142819638Y-127719666D01*
X142819638Y-127719666D02*
X142675705Y-127683683D01*
X142675705Y-127683683D02*
X142603738Y-127647700D01*
X142603738Y-127647700D02*
X142531771Y-127575733D01*
X142531771Y-127575733D02*
X142495788Y-127467783D01*
X142495788Y-127467783D02*
X142495788Y-127395816D01*
X142495788Y-127395816D02*
X142531771Y-127287866D01*
X142531771Y-127287866D02*
X142567755Y-127251883D01*
X142567755Y-127251883D02*
X142819638Y-127251883D01*
X142819638Y-127251883D02*
X142819638Y-127395816D01*
X142495788Y-126928033D02*
X143251438Y-126928033D01*
X143251438Y-126928033D02*
X142495788Y-126496233D01*
X142495788Y-126496233D02*
X143251438Y-126496233D01*
X142495788Y-126136400D02*
X143251438Y-126136400D01*
X143251438Y-126136400D02*
X143251438Y-125956483D01*
X143251438Y-125956483D02*
X143215455Y-125848533D01*
X143215455Y-125848533D02*
X143143488Y-125776567D01*
X143143488Y-125776567D02*
X143071521Y-125740583D01*
X143071521Y-125740583D02*
X142927588Y-125704600D01*
X142927588Y-125704600D02*
X142819638Y-125704600D01*
X142819638Y-125704600D02*
X142675705Y-125740583D01*
X142675705Y-125740583D02*
X142603738Y-125776567D01*
X142603738Y-125776567D02*
X142531771Y-125848533D01*
X142531771Y-125848533D02*
X142495788Y-125956483D01*
X142495788Y-125956483D02*
X142495788Y-126136400D01*
X143319500Y-101422528D02*
X143283517Y-101386545D01*
X143283517Y-101386545D02*
X143211550Y-101350561D01*
X143211550Y-101350561D02*
X143031634Y-101350561D01*
X143031634Y-101350561D02*
X142959667Y-101386545D01*
X142959667Y-101386545D02*
X142923684Y-101422528D01*
X142923684Y-101422528D02*
X142887700Y-101494495D01*
X142887700Y-101494495D02*
X142887700Y-101566461D01*
X142887700Y-101566461D02*
X142923684Y-101674411D01*
X142923684Y-101674411D02*
X143355484Y-102106211D01*
X143355484Y-102106211D02*
X142887700Y-102106211D01*
X142635817Y-101350561D02*
X142168033Y-101350561D01*
X142168033Y-101350561D02*
X142419917Y-101638428D01*
X142419917Y-101638428D02*
X142311967Y-101638428D01*
X142311967Y-101638428D02*
X142240000Y-101674411D01*
X142240000Y-101674411D02*
X142204017Y-101710395D01*
X142204017Y-101710395D02*
X142168033Y-101782361D01*
X142168033Y-101782361D02*
X142168033Y-101962278D01*
X142168033Y-101962278D02*
X142204017Y-102034245D01*
X142204017Y-102034245D02*
X142240000Y-102070228D01*
X142240000Y-102070228D02*
X142311967Y-102106211D01*
X142311967Y-102106211D02*
X142527867Y-102106211D01*
X142527867Y-102106211D02*
X142599833Y-102070228D01*
X142599833Y-102070228D02*
X142635817Y-102034245D01*
X143355484Y-113438485D02*
X142887700Y-113438485D01*
X142887700Y-113438485D02*
X143139584Y-113726352D01*
X143139584Y-113726352D02*
X143031634Y-113726352D01*
X143031634Y-113726352D02*
X142959667Y-113762335D01*
X142959667Y-113762335D02*
X142923684Y-113798319D01*
X142923684Y-113798319D02*
X142887700Y-113870285D01*
X142887700Y-113870285D02*
X142887700Y-114050202D01*
X142887700Y-114050202D02*
X142923684Y-114122169D01*
X142923684Y-114122169D02*
X142959667Y-114158152D01*
X142959667Y-114158152D02*
X143031634Y-114194135D01*
X143031634Y-114194135D02*
X143247534Y-114194135D01*
X143247534Y-114194135D02*
X143319500Y-114158152D01*
X143319500Y-114158152D02*
X143355484Y-114122169D01*
X142419917Y-113438485D02*
X142347950Y-113438485D01*
X142347950Y-113438485D02*
X142275983Y-113474469D01*
X142275983Y-113474469D02*
X142240000Y-113510452D01*
X142240000Y-113510452D02*
X142204017Y-113582419D01*
X142204017Y-113582419D02*
X142168033Y-113726352D01*
X142168033Y-113726352D02*
X142168033Y-113906269D01*
X142168033Y-113906269D02*
X142204017Y-114050202D01*
X142204017Y-114050202D02*
X142240000Y-114122169D01*
X142240000Y-114122169D02*
X142275983Y-114158152D01*
X142275983Y-114158152D02*
X142347950Y-114194135D01*
X142347950Y-114194135D02*
X142419917Y-114194135D01*
X142419917Y-114194135D02*
X142491883Y-114158152D01*
X142491883Y-114158152D02*
X142527867Y-114122169D01*
X142527867Y-114122169D02*
X142563850Y-114050202D01*
X142563850Y-114050202D02*
X142599833Y-113906269D01*
X142599833Y-113906269D02*
X142599833Y-113726352D01*
X142599833Y-113726352D02*
X142563850Y-113582419D01*
X142563850Y-113582419D02*
X142527867Y-113510452D01*
X142527867Y-113510452D02*
X142491883Y-113474469D01*
X142491883Y-113474469D02*
X142419917Y-113438485D01*
X143859250Y-115130422D02*
X143823267Y-115094438D01*
X143823267Y-115094438D02*
X143751300Y-115058455D01*
X143751300Y-115058455D02*
X143607367Y-115130422D01*
X143607367Y-115130422D02*
X143535400Y-115094438D01*
X143535400Y-115094438D02*
X143499417Y-115058455D01*
X143247533Y-115202388D02*
X142887700Y-115202388D01*
X143319500Y-115418288D02*
X143067617Y-114662638D01*
X143067617Y-114662638D02*
X142815733Y-115418288D01*
X142240000Y-114662638D02*
X142383933Y-114662638D01*
X142383933Y-114662638D02*
X142455900Y-114698622D01*
X142455900Y-114698622D02*
X142491883Y-114734605D01*
X142491883Y-114734605D02*
X142563850Y-114842555D01*
X142563850Y-114842555D02*
X142599833Y-114986488D01*
X142599833Y-114986488D02*
X142599833Y-115274355D01*
X142599833Y-115274355D02*
X142563850Y-115346322D01*
X142563850Y-115346322D02*
X142527867Y-115382305D01*
X142527867Y-115382305D02*
X142455900Y-115418288D01*
X142455900Y-115418288D02*
X142311967Y-115418288D01*
X142311967Y-115418288D02*
X142240000Y-115382305D01*
X142240000Y-115382305D02*
X142204017Y-115346322D01*
X142204017Y-115346322D02*
X142168033Y-115274355D01*
X142168033Y-115274355D02*
X142168033Y-115094438D01*
X142168033Y-115094438D02*
X142204017Y-115022472D01*
X142204017Y-115022472D02*
X142240000Y-114986488D01*
X142240000Y-114986488D02*
X142311967Y-114950505D01*
X142311967Y-114950505D02*
X142455900Y-114950505D01*
X142455900Y-114950505D02*
X142527867Y-114986488D01*
X142527867Y-114986488D02*
X142563850Y-115022472D01*
X142563850Y-115022472D02*
X142599833Y-115094438D01*
X154645455Y-127668866D02*
X154681438Y-127740833D01*
X154681438Y-127740833D02*
X154681438Y-127848783D01*
X154681438Y-127848783D02*
X154645455Y-127956733D01*
X154645455Y-127956733D02*
X154573488Y-128028700D01*
X154573488Y-128028700D02*
X154501521Y-128064683D01*
X154501521Y-128064683D02*
X154357588Y-128100666D01*
X154357588Y-128100666D02*
X154249638Y-128100666D01*
X154249638Y-128100666D02*
X154105705Y-128064683D01*
X154105705Y-128064683D02*
X154033738Y-128028700D01*
X154033738Y-128028700D02*
X153961771Y-127956733D01*
X153961771Y-127956733D02*
X153925788Y-127848783D01*
X153925788Y-127848783D02*
X153925788Y-127776816D01*
X153925788Y-127776816D02*
X153961771Y-127668866D01*
X153961771Y-127668866D02*
X153997755Y-127632883D01*
X153997755Y-127632883D02*
X154249638Y-127632883D01*
X154249638Y-127632883D02*
X154249638Y-127776816D01*
X153925788Y-127309033D02*
X154681438Y-127309033D01*
X154681438Y-127309033D02*
X153925788Y-126877233D01*
X153925788Y-126877233D02*
X154681438Y-126877233D01*
X153925788Y-126517400D02*
X154681438Y-126517400D01*
X154681438Y-126517400D02*
X154681438Y-126337483D01*
X154681438Y-126337483D02*
X154645455Y-126229533D01*
X154645455Y-126229533D02*
X154573488Y-126157567D01*
X154573488Y-126157567D02*
X154501521Y-126121583D01*
X154501521Y-126121583D02*
X154357588Y-126085600D01*
X154357588Y-126085600D02*
X154249638Y-126085600D01*
X154249638Y-126085600D02*
X154105705Y-126121583D01*
X154105705Y-126121583D02*
X154033738Y-126157567D01*
X154033738Y-126157567D02*
X153961771Y-126229533D01*
X153961771Y-126229533D02*
X153925788Y-126337483D01*
X153925788Y-126337483D02*
X153925788Y-126517400D01*
X148249247Y-128100666D02*
X148285231Y-128064683D01*
X148285231Y-128064683D02*
X148321214Y-127992716D01*
X148321214Y-127992716D02*
X148321214Y-127812800D01*
X148321214Y-127812800D02*
X148285231Y-127740833D01*
X148285231Y-127740833D02*
X148249247Y-127704850D01*
X148249247Y-127704850D02*
X148177281Y-127668866D01*
X148177281Y-127668866D02*
X148105314Y-127668866D01*
X148105314Y-127668866D02*
X147997364Y-127704850D01*
X147997364Y-127704850D02*
X147565564Y-128136650D01*
X147565564Y-128136650D02*
X147565564Y-127668866D01*
X148321214Y-127021166D02*
X148321214Y-127165099D01*
X148321214Y-127165099D02*
X148285231Y-127237066D01*
X148285231Y-127237066D02*
X148249247Y-127273049D01*
X148249247Y-127273049D02*
X148141297Y-127345016D01*
X148141297Y-127345016D02*
X147997364Y-127380999D01*
X147997364Y-127380999D02*
X147709497Y-127380999D01*
X147709497Y-127380999D02*
X147637531Y-127345016D01*
X147637531Y-127345016D02*
X147601547Y-127309033D01*
X147601547Y-127309033D02*
X147565564Y-127237066D01*
X147565564Y-127237066D02*
X147565564Y-127093133D01*
X147565564Y-127093133D02*
X147601547Y-127021166D01*
X147601547Y-127021166D02*
X147637531Y-126985183D01*
X147637531Y-126985183D02*
X147709497Y-126949199D01*
X147709497Y-126949199D02*
X147889414Y-126949199D01*
X147889414Y-126949199D02*
X147961381Y-126985183D01*
X147961381Y-126985183D02*
X147997364Y-127021166D01*
X147997364Y-127021166D02*
X148033347Y-127093133D01*
X148033347Y-127093133D02*
X148033347Y-127237066D01*
X148033347Y-127237066D02*
X147997364Y-127309033D01*
X147997364Y-127309033D02*
X147961381Y-127345016D01*
X147961381Y-127345016D02*
X147889414Y-127380999D01*
X146629278Y-128172633D02*
X146665261Y-128136650D01*
X146665261Y-128136650D02*
X146701244Y-128064683D01*
X146701244Y-128064683D02*
X146629278Y-127920750D01*
X146629278Y-127920750D02*
X146665261Y-127848783D01*
X146665261Y-127848783D02*
X146701244Y-127812800D01*
X146341411Y-127093133D02*
X146701244Y-127345016D01*
X146341411Y-127524933D02*
X147097061Y-127524933D01*
X147097061Y-127524933D02*
X147097061Y-127237066D01*
X147097061Y-127237066D02*
X147061078Y-127165100D01*
X147061078Y-127165100D02*
X147025094Y-127129116D01*
X147025094Y-127129116D02*
X146953128Y-127093133D01*
X146953128Y-127093133D02*
X146845178Y-127093133D01*
X146845178Y-127093133D02*
X146773211Y-127129116D01*
X146773211Y-127129116D02*
X146737228Y-127165100D01*
X146737228Y-127165100D02*
X146701244Y-127237066D01*
X146701244Y-127237066D02*
X146701244Y-127524933D01*
X147097061Y-126841250D02*
X146341411Y-126337483D01*
X147097061Y-126337483D02*
X146341411Y-126841250D01*
X143319500Y-103962528D02*
X143283517Y-103926545D01*
X143283517Y-103926545D02*
X143211550Y-103890561D01*
X143211550Y-103890561D02*
X143031634Y-103890561D01*
X143031634Y-103890561D02*
X142959667Y-103926545D01*
X142959667Y-103926545D02*
X142923684Y-103962528D01*
X142923684Y-103962528D02*
X142887700Y-104034495D01*
X142887700Y-104034495D02*
X142887700Y-104106461D01*
X142887700Y-104106461D02*
X142923684Y-104214411D01*
X142923684Y-104214411D02*
X143355484Y-104646211D01*
X143355484Y-104646211D02*
X142887700Y-104646211D01*
X142240000Y-104142445D02*
X142240000Y-104646211D01*
X142419917Y-103854578D02*
X142599833Y-104394328D01*
X142599833Y-104394328D02*
X142132050Y-104394328D01*
X154400250Y-113438485D02*
X154328283Y-113438485D01*
X154328283Y-113438485D02*
X154256316Y-113474469D01*
X154256316Y-113474469D02*
X154220333Y-113510452D01*
X154220333Y-113510452D02*
X154184350Y-113582419D01*
X154184350Y-113582419D02*
X154148366Y-113726352D01*
X154148366Y-113726352D02*
X154148366Y-113906269D01*
X154148366Y-113906269D02*
X154184350Y-114050202D01*
X154184350Y-114050202D02*
X154220333Y-114122169D01*
X154220333Y-114122169D02*
X154256316Y-114158152D01*
X154256316Y-114158152D02*
X154328283Y-114194135D01*
X154328283Y-114194135D02*
X154400250Y-114194135D01*
X154400250Y-114194135D02*
X154472216Y-114158152D01*
X154472216Y-114158152D02*
X154508200Y-114122169D01*
X154508200Y-114122169D02*
X154544183Y-114050202D01*
X154544183Y-114050202D02*
X154580166Y-113906269D01*
X154580166Y-113906269D02*
X154580166Y-113726352D01*
X154580166Y-113726352D02*
X154544183Y-113582419D01*
X154544183Y-113582419D02*
X154508200Y-113510452D01*
X154508200Y-113510452D02*
X154472216Y-113474469D01*
X154472216Y-113474469D02*
X154400250Y-113438485D01*
X153860499Y-113510452D02*
X153824516Y-113474469D01*
X153824516Y-113474469D02*
X153752549Y-113438485D01*
X153752549Y-113438485D02*
X153572633Y-113438485D01*
X153572633Y-113438485D02*
X153500666Y-113474469D01*
X153500666Y-113474469D02*
X153464683Y-113510452D01*
X153464683Y-113510452D02*
X153428699Y-113582419D01*
X153428699Y-113582419D02*
X153428699Y-113654385D01*
X153428699Y-113654385D02*
X153464683Y-113762335D01*
X153464683Y-113762335D02*
X153896483Y-114194135D01*
X153896483Y-114194135D02*
X153428699Y-114194135D01*
X154652133Y-115130422D02*
X154616150Y-115094438D01*
X154616150Y-115094438D02*
X154544183Y-115058455D01*
X154544183Y-115058455D02*
X154400250Y-115130422D01*
X154400250Y-115130422D02*
X154328283Y-115094438D01*
X154328283Y-115094438D02*
X154292300Y-115058455D01*
X154040416Y-115202388D02*
X153680583Y-115202388D01*
X154112383Y-115418288D02*
X153860500Y-114662638D01*
X153860500Y-114662638D02*
X153608616Y-115418288D01*
X153212800Y-114662638D02*
X153140833Y-114662638D01*
X153140833Y-114662638D02*
X153068866Y-114698622D01*
X153068866Y-114698622D02*
X153032883Y-114734605D01*
X153032883Y-114734605D02*
X152996900Y-114806572D01*
X152996900Y-114806572D02*
X152960916Y-114950505D01*
X152960916Y-114950505D02*
X152960916Y-115130422D01*
X152960916Y-115130422D02*
X152996900Y-115274355D01*
X152996900Y-115274355D02*
X153032883Y-115346322D01*
X153032883Y-115346322D02*
X153068866Y-115382305D01*
X153068866Y-115382305D02*
X153140833Y-115418288D01*
X153140833Y-115418288D02*
X153212800Y-115418288D01*
X153212800Y-115418288D02*
X153284766Y-115382305D01*
X153284766Y-115382305D02*
X153320750Y-115346322D01*
X153320750Y-115346322D02*
X153356733Y-115274355D01*
X153356733Y-115274355D02*
X153392716Y-115130422D01*
X153392716Y-115130422D02*
X153392716Y-114950505D01*
X153392716Y-114950505D02*
X153356733Y-114806572D01*
X153356733Y-114806572D02*
X153320750Y-114734605D01*
X153320750Y-114734605D02*
X153284766Y-114698622D01*
X153284766Y-114698622D02*
X153212800Y-114662638D01*
X144363017Y-121670561D02*
X143895233Y-121670561D01*
X143895233Y-121670561D02*
X144147117Y-121958428D01*
X144147117Y-121958428D02*
X144039167Y-121958428D01*
X144039167Y-121958428D02*
X143967200Y-121994411D01*
X143967200Y-121994411D02*
X143931217Y-122030395D01*
X143931217Y-122030395D02*
X143895233Y-122102361D01*
X143895233Y-122102361D02*
X143895233Y-122282278D01*
X143895233Y-122282278D02*
X143931217Y-122354245D01*
X143931217Y-122354245D02*
X143967200Y-122390228D01*
X143967200Y-122390228D02*
X144039167Y-122426211D01*
X144039167Y-122426211D02*
X144255067Y-122426211D01*
X144255067Y-122426211D02*
X144327033Y-122390228D01*
X144327033Y-122390228D02*
X144363017Y-122354245D01*
X143571383Y-122354245D02*
X143535400Y-122390228D01*
X143535400Y-122390228D02*
X143571383Y-122426211D01*
X143571383Y-122426211D02*
X143607366Y-122390228D01*
X143607366Y-122390228D02*
X143571383Y-122354245D01*
X143571383Y-122354245D02*
X143571383Y-122426211D01*
X143283517Y-121670561D02*
X142815733Y-121670561D01*
X142815733Y-121670561D02*
X143067617Y-121958428D01*
X143067617Y-121958428D02*
X142959667Y-121958428D01*
X142959667Y-121958428D02*
X142887700Y-121994411D01*
X142887700Y-121994411D02*
X142851717Y-122030395D01*
X142851717Y-122030395D02*
X142815733Y-122102361D01*
X142815733Y-122102361D02*
X142815733Y-122282278D01*
X142815733Y-122282278D02*
X142851717Y-122354245D01*
X142851717Y-122354245D02*
X142887700Y-122390228D01*
X142887700Y-122390228D02*
X142959667Y-122426211D01*
X142959667Y-122426211D02*
X143175567Y-122426211D01*
X143175567Y-122426211D02*
X143247533Y-122390228D01*
X143247533Y-122390228D02*
X143283517Y-122354245D01*
X142599833Y-121670561D02*
X142347950Y-122426211D01*
X142347950Y-122426211D02*
X142096066Y-121670561D01*
X154400250Y-110898485D02*
X154328283Y-110898485D01*
X154328283Y-110898485D02*
X154256316Y-110934469D01*
X154256316Y-110934469D02*
X154220333Y-110970452D01*
X154220333Y-110970452D02*
X154184350Y-111042419D01*
X154184350Y-111042419D02*
X154148366Y-111186352D01*
X154148366Y-111186352D02*
X154148366Y-111366269D01*
X154148366Y-111366269D02*
X154184350Y-111510202D01*
X154184350Y-111510202D02*
X154220333Y-111582169D01*
X154220333Y-111582169D02*
X154256316Y-111618152D01*
X154256316Y-111618152D02*
X154328283Y-111654135D01*
X154328283Y-111654135D02*
X154400250Y-111654135D01*
X154400250Y-111654135D02*
X154472216Y-111618152D01*
X154472216Y-111618152D02*
X154508200Y-111582169D01*
X154508200Y-111582169D02*
X154544183Y-111510202D01*
X154544183Y-111510202D02*
X154580166Y-111366269D01*
X154580166Y-111366269D02*
X154580166Y-111186352D01*
X154580166Y-111186352D02*
X154544183Y-111042419D01*
X154544183Y-111042419D02*
X154508200Y-110970452D01*
X154508200Y-110970452D02*
X154472216Y-110934469D01*
X154472216Y-110934469D02*
X154400250Y-110898485D01*
X153896483Y-110898485D02*
X153428699Y-110898485D01*
X153428699Y-110898485D02*
X153680583Y-111186352D01*
X153680583Y-111186352D02*
X153572633Y-111186352D01*
X153572633Y-111186352D02*
X153500666Y-111222335D01*
X153500666Y-111222335D02*
X153464683Y-111258319D01*
X153464683Y-111258319D02*
X153428699Y-111330285D01*
X153428699Y-111330285D02*
X153428699Y-111510202D01*
X153428699Y-111510202D02*
X153464683Y-111582169D01*
X153464683Y-111582169D02*
X153500666Y-111618152D01*
X153500666Y-111618152D02*
X153572633Y-111654135D01*
X153572633Y-111654135D02*
X153788533Y-111654135D01*
X153788533Y-111654135D02*
X153860499Y-111618152D01*
X153860499Y-111618152D02*
X153896483Y-111582169D01*
X154652133Y-112590422D02*
X154616150Y-112554438D01*
X154616150Y-112554438D02*
X154544183Y-112518455D01*
X154544183Y-112518455D02*
X154400250Y-112590422D01*
X154400250Y-112590422D02*
X154328283Y-112554438D01*
X154328283Y-112554438D02*
X154292300Y-112518455D01*
X154040416Y-112662388D02*
X153680583Y-112662388D01*
X154112383Y-112878288D02*
X153860500Y-112122638D01*
X153860500Y-112122638D02*
X153608616Y-112878288D01*
X152960916Y-112878288D02*
X153392716Y-112878288D01*
X153176816Y-112878288D02*
X153176816Y-112122638D01*
X153176816Y-112122638D02*
X153248783Y-112230588D01*
X153248783Y-112230588D02*
X153320750Y-112302555D01*
X153320750Y-112302555D02*
X153392716Y-112338538D01*
X143319500Y-106502528D02*
X143283517Y-106466545D01*
X143283517Y-106466545D02*
X143211550Y-106430561D01*
X143211550Y-106430561D02*
X143031634Y-106430561D01*
X143031634Y-106430561D02*
X142959667Y-106466545D01*
X142959667Y-106466545D02*
X142923684Y-106502528D01*
X142923684Y-106502528D02*
X142887700Y-106574495D01*
X142887700Y-106574495D02*
X142887700Y-106646461D01*
X142887700Y-106646461D02*
X142923684Y-106754411D01*
X142923684Y-106754411D02*
X143355484Y-107186211D01*
X143355484Y-107186211D02*
X142887700Y-107186211D01*
X142204017Y-106430561D02*
X142563850Y-106430561D01*
X142563850Y-106430561D02*
X142599833Y-106790395D01*
X142599833Y-106790395D02*
X142563850Y-106754411D01*
X142563850Y-106754411D02*
X142491883Y-106718428D01*
X142491883Y-106718428D02*
X142311967Y-106718428D01*
X142311967Y-106718428D02*
X142240000Y-106754411D01*
X142240000Y-106754411D02*
X142204017Y-106790395D01*
X142204017Y-106790395D02*
X142168033Y-106862361D01*
X142168033Y-106862361D02*
X142168033Y-107042278D01*
X142168033Y-107042278D02*
X142204017Y-107114245D01*
X142204017Y-107114245D02*
X142240000Y-107150228D01*
X142240000Y-107150228D02*
X142311967Y-107186211D01*
X142311967Y-107186211D02*
X142491883Y-107186211D01*
X142491883Y-107186211D02*
X142563850Y-107150228D01*
X142563850Y-107150228D02*
X142599833Y-107114245D01*
X142887700Y-94486211D02*
X143319500Y-94486211D01*
X143103600Y-94486211D02*
X143103600Y-93730561D01*
X143103600Y-93730561D02*
X143175567Y-93838511D01*
X143175567Y-93838511D02*
X143247534Y-93910478D01*
X143247534Y-93910478D02*
X143319500Y-93946461D01*
X142527867Y-94486211D02*
X142383933Y-94486211D01*
X142383933Y-94486211D02*
X142311967Y-94450228D01*
X142311967Y-94450228D02*
X142275983Y-94414245D01*
X142275983Y-94414245D02*
X142204017Y-94306295D01*
X142204017Y-94306295D02*
X142168033Y-94162361D01*
X142168033Y-94162361D02*
X142168033Y-93874495D01*
X142168033Y-93874495D02*
X142204017Y-93802528D01*
X142204017Y-93802528D02*
X142240000Y-93766545D01*
X142240000Y-93766545D02*
X142311967Y-93730561D01*
X142311967Y-93730561D02*
X142455900Y-93730561D01*
X142455900Y-93730561D02*
X142527867Y-93766545D01*
X142527867Y-93766545D02*
X142563850Y-93802528D01*
X142563850Y-93802528D02*
X142599833Y-93874495D01*
X142599833Y-93874495D02*
X142599833Y-94054411D01*
X142599833Y-94054411D02*
X142563850Y-94126378D01*
X142563850Y-94126378D02*
X142527867Y-94162361D01*
X142527867Y-94162361D02*
X142455900Y-94198345D01*
X142455900Y-94198345D02*
X142311967Y-94198345D01*
X142311967Y-94198345D02*
X142240000Y-94162361D01*
X142240000Y-94162361D02*
X142204017Y-94126378D01*
X142204017Y-94126378D02*
X142168033Y-94054411D01*
X143319500Y-110970452D02*
X143283517Y-110934469D01*
X143283517Y-110934469D02*
X143211550Y-110898485D01*
X143211550Y-110898485D02*
X143031634Y-110898485D01*
X143031634Y-110898485D02*
X142959667Y-110934469D01*
X142959667Y-110934469D02*
X142923684Y-110970452D01*
X142923684Y-110970452D02*
X142887700Y-111042419D01*
X142887700Y-111042419D02*
X142887700Y-111114385D01*
X142887700Y-111114385D02*
X142923684Y-111222335D01*
X142923684Y-111222335D02*
X143355484Y-111654135D01*
X143355484Y-111654135D02*
X142887700Y-111654135D01*
X142527867Y-111654135D02*
X142383933Y-111654135D01*
X142383933Y-111654135D02*
X142311967Y-111618152D01*
X142311967Y-111618152D02*
X142275983Y-111582169D01*
X142275983Y-111582169D02*
X142204017Y-111474219D01*
X142204017Y-111474219D02*
X142168033Y-111330285D01*
X142168033Y-111330285D02*
X142168033Y-111042419D01*
X142168033Y-111042419D02*
X142204017Y-110970452D01*
X142204017Y-110970452D02*
X142240000Y-110934469D01*
X142240000Y-110934469D02*
X142311967Y-110898485D01*
X142311967Y-110898485D02*
X142455900Y-110898485D01*
X142455900Y-110898485D02*
X142527867Y-110934469D01*
X142527867Y-110934469D02*
X142563850Y-110970452D01*
X142563850Y-110970452D02*
X142599833Y-111042419D01*
X142599833Y-111042419D02*
X142599833Y-111222335D01*
X142599833Y-111222335D02*
X142563850Y-111294302D01*
X142563850Y-111294302D02*
X142527867Y-111330285D01*
X142527867Y-111330285D02*
X142455900Y-111366269D01*
X142455900Y-111366269D02*
X142311967Y-111366269D01*
X142311967Y-111366269D02*
X142240000Y-111330285D01*
X142240000Y-111330285D02*
X142204017Y-111294302D01*
X142204017Y-111294302D02*
X142168033Y-111222335D01*
X143859250Y-112590422D02*
X143823267Y-112554438D01*
X143823267Y-112554438D02*
X143751300Y-112518455D01*
X143751300Y-112518455D02*
X143607367Y-112590422D01*
X143607367Y-112590422D02*
X143535400Y-112554438D01*
X143535400Y-112554438D02*
X143499417Y-112518455D01*
X143247533Y-112662388D02*
X142887700Y-112662388D01*
X143319500Y-112878288D02*
X143067617Y-112122638D01*
X143067617Y-112122638D02*
X142815733Y-112878288D01*
X142204017Y-112122638D02*
X142563850Y-112122638D01*
X142563850Y-112122638D02*
X142599833Y-112482472D01*
X142599833Y-112482472D02*
X142563850Y-112446488D01*
X142563850Y-112446488D02*
X142491883Y-112410505D01*
X142491883Y-112410505D02*
X142311967Y-112410505D01*
X142311967Y-112410505D02*
X142240000Y-112446488D01*
X142240000Y-112446488D02*
X142204017Y-112482472D01*
X142204017Y-112482472D02*
X142168033Y-112554438D01*
X142168033Y-112554438D02*
X142168033Y-112734355D01*
X142168033Y-112734355D02*
X142204017Y-112806322D01*
X142204017Y-112806322D02*
X142240000Y-112842305D01*
X142240000Y-112842305D02*
X142311967Y-112878288D01*
X142311967Y-112878288D02*
X142491883Y-112878288D01*
X142491883Y-112878288D02*
X142563850Y-112842305D01*
X142563850Y-112842305D02*
X142599833Y-112806322D01*
X154652133Y-124210561D02*
X154400250Y-124966211D01*
X154400250Y-124966211D02*
X154148366Y-124210561D01*
X153896483Y-124966211D02*
X153896483Y-124210561D01*
X153536650Y-124966211D02*
X153536650Y-124210561D01*
X153536650Y-124210561D02*
X153104850Y-124966211D01*
X153104850Y-124966211D02*
X153104850Y-124210561D01*
X143355484Y-115978485D02*
X142887700Y-115978485D01*
X142887700Y-115978485D02*
X143139584Y-116266352D01*
X143139584Y-116266352D02*
X143031634Y-116266352D01*
X143031634Y-116266352D02*
X142959667Y-116302335D01*
X142959667Y-116302335D02*
X142923684Y-116338319D01*
X142923684Y-116338319D02*
X142887700Y-116410285D01*
X142887700Y-116410285D02*
X142887700Y-116590202D01*
X142887700Y-116590202D02*
X142923684Y-116662169D01*
X142923684Y-116662169D02*
X142959667Y-116698152D01*
X142959667Y-116698152D02*
X143031634Y-116734135D01*
X143031634Y-116734135D02*
X143247534Y-116734135D01*
X143247534Y-116734135D02*
X143319500Y-116698152D01*
X143319500Y-116698152D02*
X143355484Y-116662169D01*
X142168033Y-116734135D02*
X142599833Y-116734135D01*
X142383933Y-116734135D02*
X142383933Y-115978485D01*
X142383933Y-115978485D02*
X142455900Y-116086435D01*
X142455900Y-116086435D02*
X142527867Y-116158402D01*
X142527867Y-116158402D02*
X142599833Y-116194385D01*
X143859250Y-117670422D02*
X143823267Y-117634438D01*
X143823267Y-117634438D02*
X143751300Y-117598455D01*
X143751300Y-117598455D02*
X143607367Y-117670422D01*
X143607367Y-117670422D02*
X143535400Y-117634438D01*
X143535400Y-117634438D02*
X143499417Y-117598455D01*
X143247533Y-117742388D02*
X142887700Y-117742388D01*
X143319500Y-117958288D02*
X143067617Y-117202638D01*
X143067617Y-117202638D02*
X142815733Y-117958288D01*
X142635817Y-117202638D02*
X142132050Y-117202638D01*
X142132050Y-117202638D02*
X142455900Y-117958288D01*
X149187958Y-122345387D02*
X149439841Y-122345387D01*
X149439841Y-122741203D02*
X149439841Y-121985553D01*
X149439841Y-121985553D02*
X149080008Y-121985553D01*
X148900091Y-121985553D02*
X148468291Y-121985553D01*
X148684191Y-122741203D02*
X148684191Y-121985553D01*
X148216408Y-122741203D02*
X148216408Y-121985553D01*
X148216408Y-121985553D02*
X148036491Y-121985553D01*
X148036491Y-121985553D02*
X147928541Y-122021537D01*
X147928541Y-122021537D02*
X147856575Y-122093503D01*
X147856575Y-122093503D02*
X147820591Y-122165470D01*
X147820591Y-122165470D02*
X147784608Y-122309403D01*
X147784608Y-122309403D02*
X147784608Y-122417353D01*
X147784608Y-122417353D02*
X147820591Y-122561287D01*
X147820591Y-122561287D02*
X147856575Y-122633253D01*
X147856575Y-122633253D02*
X147928541Y-122705220D01*
X147928541Y-122705220D02*
X148036491Y-122741203D01*
X148036491Y-122741203D02*
X148216408Y-122741203D01*
X147460758Y-122741203D02*
X147460758Y-121985553D01*
X150663274Y-123209706D02*
X150411391Y-123965356D01*
X150411391Y-123965356D02*
X150159507Y-123209706D01*
X149475824Y-123893390D02*
X149511807Y-123929373D01*
X149511807Y-123929373D02*
X149619757Y-123965356D01*
X149619757Y-123965356D02*
X149691724Y-123965356D01*
X149691724Y-123965356D02*
X149799674Y-123929373D01*
X149799674Y-123929373D02*
X149871641Y-123857406D01*
X149871641Y-123857406D02*
X149907624Y-123785440D01*
X149907624Y-123785440D02*
X149943607Y-123641506D01*
X149943607Y-123641506D02*
X149943607Y-123533556D01*
X149943607Y-123533556D02*
X149907624Y-123389623D01*
X149907624Y-123389623D02*
X149871641Y-123317656D01*
X149871641Y-123317656D02*
X149799674Y-123245690D01*
X149799674Y-123245690D02*
X149691724Y-123209706D01*
X149691724Y-123209706D02*
X149619757Y-123209706D01*
X149619757Y-123209706D02*
X149511807Y-123245690D01*
X149511807Y-123245690D02*
X149475824Y-123281673D01*
X148720174Y-123893390D02*
X148756157Y-123929373D01*
X148756157Y-123929373D02*
X148864107Y-123965356D01*
X148864107Y-123965356D02*
X148936074Y-123965356D01*
X148936074Y-123965356D02*
X149044024Y-123929373D01*
X149044024Y-123929373D02*
X149115991Y-123857406D01*
X149115991Y-123857406D02*
X149151974Y-123785440D01*
X149151974Y-123785440D02*
X149187957Y-123641506D01*
X149187957Y-123641506D02*
X149187957Y-123533556D01*
X149187957Y-123533556D02*
X149151974Y-123389623D01*
X149151974Y-123389623D02*
X149115991Y-123317656D01*
X149115991Y-123317656D02*
X149044024Y-123245690D01*
X149044024Y-123245690D02*
X148936074Y-123209706D01*
X148936074Y-123209706D02*
X148864107Y-123209706D01*
X148864107Y-123209706D02*
X148756157Y-123245690D01*
X148756157Y-123245690D02*
X148720174Y-123281673D01*
X148396324Y-123677490D02*
X147820591Y-123677490D01*
X147460757Y-123569540D02*
X147208874Y-123569540D01*
X147100924Y-123965356D02*
X147460757Y-123965356D01*
X147460757Y-123965356D02*
X147460757Y-123209706D01*
X147460757Y-123209706D02*
X147100924Y-123209706D01*
X146777074Y-123965356D02*
X146777074Y-123209706D01*
X146777074Y-123209706D02*
X146345274Y-123965356D01*
X146345274Y-123965356D02*
X146345274Y-123209706D01*
X154148366Y-94486211D02*
X154580166Y-94486211D01*
X154364266Y-94486211D02*
X154364266Y-93730561D01*
X154364266Y-93730561D02*
X154436233Y-93838511D01*
X154436233Y-93838511D02*
X154508200Y-93910478D01*
X154508200Y-93910478D02*
X154580166Y-93946461D01*
X153860499Y-93802528D02*
X153824516Y-93766545D01*
X153824516Y-93766545D02*
X153752549Y-93730561D01*
X153752549Y-93730561D02*
X153572633Y-93730561D01*
X153572633Y-93730561D02*
X153500666Y-93766545D01*
X153500666Y-93766545D02*
X153464683Y-93802528D01*
X153464683Y-93802528D02*
X153428699Y-93874495D01*
X153428699Y-93874495D02*
X153428699Y-93946461D01*
X153428699Y-93946461D02*
X153464683Y-94054411D01*
X153464683Y-94054411D02*
X153896483Y-94486211D01*
X153896483Y-94486211D02*
X153428699Y-94486211D01*
X154400250Y-118518485D02*
X154328283Y-118518485D01*
X154328283Y-118518485D02*
X154256316Y-118554469D01*
X154256316Y-118554469D02*
X154220333Y-118590452D01*
X154220333Y-118590452D02*
X154184350Y-118662419D01*
X154184350Y-118662419D02*
X154148366Y-118806352D01*
X154148366Y-118806352D02*
X154148366Y-118986269D01*
X154148366Y-118986269D02*
X154184350Y-119130202D01*
X154184350Y-119130202D02*
X154220333Y-119202169D01*
X154220333Y-119202169D02*
X154256316Y-119238152D01*
X154256316Y-119238152D02*
X154328283Y-119274135D01*
X154328283Y-119274135D02*
X154400250Y-119274135D01*
X154400250Y-119274135D02*
X154472216Y-119238152D01*
X154472216Y-119238152D02*
X154508200Y-119202169D01*
X154508200Y-119202169D02*
X154544183Y-119130202D01*
X154544183Y-119130202D02*
X154580166Y-118986269D01*
X154580166Y-118986269D02*
X154580166Y-118806352D01*
X154580166Y-118806352D02*
X154544183Y-118662419D01*
X154544183Y-118662419D02*
X154508200Y-118590452D01*
X154508200Y-118590452D02*
X154472216Y-118554469D01*
X154472216Y-118554469D02*
X154400250Y-118518485D01*
X153680583Y-118518485D02*
X153608616Y-118518485D01*
X153608616Y-118518485D02*
X153536649Y-118554469D01*
X153536649Y-118554469D02*
X153500666Y-118590452D01*
X153500666Y-118590452D02*
X153464683Y-118662419D01*
X153464683Y-118662419D02*
X153428699Y-118806352D01*
X153428699Y-118806352D02*
X153428699Y-118986269D01*
X153428699Y-118986269D02*
X153464683Y-119130202D01*
X153464683Y-119130202D02*
X153500666Y-119202169D01*
X153500666Y-119202169D02*
X153536649Y-119238152D01*
X153536649Y-119238152D02*
X153608616Y-119274135D01*
X153608616Y-119274135D02*
X153680583Y-119274135D01*
X153680583Y-119274135D02*
X153752549Y-119238152D01*
X153752549Y-119238152D02*
X153788533Y-119202169D01*
X153788533Y-119202169D02*
X153824516Y-119130202D01*
X153824516Y-119130202D02*
X153860499Y-118986269D01*
X153860499Y-118986269D02*
X153860499Y-118806352D01*
X153860499Y-118806352D02*
X153824516Y-118662419D01*
X153824516Y-118662419D02*
X153788533Y-118590452D01*
X153788533Y-118590452D02*
X153752549Y-118554469D01*
X153752549Y-118554469D02*
X153680583Y-118518485D01*
X154652133Y-120210422D02*
X154616150Y-120174438D01*
X154616150Y-120174438D02*
X154544183Y-120138455D01*
X154544183Y-120138455D02*
X154400250Y-120210422D01*
X154400250Y-120210422D02*
X154328283Y-120174438D01*
X154328283Y-120174438D02*
X154292300Y-120138455D01*
X154076400Y-119742638D02*
X153572633Y-120498288D01*
X153572633Y-119742638D02*
X154076400Y-120498288D01*
X152888949Y-120498288D02*
X153320749Y-120498288D01*
X153104849Y-120498288D02*
X153104849Y-119742638D01*
X153104849Y-119742638D02*
X153176816Y-119850588D01*
X153176816Y-119850588D02*
X153248783Y-119922555D01*
X153248783Y-119922555D02*
X153320749Y-119958538D01*
X143319500Y-96342528D02*
X143283517Y-96306545D01*
X143283517Y-96306545D02*
X143211550Y-96270561D01*
X143211550Y-96270561D02*
X143031634Y-96270561D01*
X143031634Y-96270561D02*
X142959667Y-96306545D01*
X142959667Y-96306545D02*
X142923684Y-96342528D01*
X142923684Y-96342528D02*
X142887700Y-96414495D01*
X142887700Y-96414495D02*
X142887700Y-96486461D01*
X142887700Y-96486461D02*
X142923684Y-96594411D01*
X142923684Y-96594411D02*
X143355484Y-97026211D01*
X143355484Y-97026211D02*
X142887700Y-97026211D01*
X142419917Y-96270561D02*
X142347950Y-96270561D01*
X142347950Y-96270561D02*
X142275983Y-96306545D01*
X142275983Y-96306545D02*
X142240000Y-96342528D01*
X142240000Y-96342528D02*
X142204017Y-96414495D01*
X142204017Y-96414495D02*
X142168033Y-96558428D01*
X142168033Y-96558428D02*
X142168033Y-96738345D01*
X142168033Y-96738345D02*
X142204017Y-96882278D01*
X142204017Y-96882278D02*
X142240000Y-96954245D01*
X142240000Y-96954245D02*
X142275983Y-96990228D01*
X142275983Y-96990228D02*
X142347950Y-97026211D01*
X142347950Y-97026211D02*
X142419917Y-97026211D01*
X142419917Y-97026211D02*
X142491883Y-96990228D01*
X142491883Y-96990228D02*
X142527867Y-96954245D01*
X142527867Y-96954245D02*
X142563850Y-96882278D01*
X142563850Y-96882278D02*
X142599833Y-96738345D01*
X142599833Y-96738345D02*
X142599833Y-96558428D01*
X142599833Y-96558428D02*
X142563850Y-96414495D01*
X142563850Y-96414495D02*
X142527867Y-96342528D01*
X142527867Y-96342528D02*
X142491883Y-96306545D01*
X142491883Y-96306545D02*
X142419917Y-96270561D01*
X154148366Y-86866211D02*
X154580166Y-86866211D01*
X154364266Y-86866211D02*
X154364266Y-86110561D01*
X154364266Y-86110561D02*
X154436233Y-86218511D01*
X154436233Y-86218511D02*
X154508200Y-86290478D01*
X154508200Y-86290478D02*
X154580166Y-86326461D01*
X153464683Y-86110561D02*
X153824516Y-86110561D01*
X153824516Y-86110561D02*
X153860499Y-86470395D01*
X153860499Y-86470395D02*
X153824516Y-86434411D01*
X153824516Y-86434411D02*
X153752549Y-86398428D01*
X153752549Y-86398428D02*
X153572633Y-86398428D01*
X153572633Y-86398428D02*
X153500666Y-86434411D01*
X153500666Y-86434411D02*
X153464683Y-86470395D01*
X153464683Y-86470395D02*
X153428699Y-86542361D01*
X153428699Y-86542361D02*
X153428699Y-86722278D01*
X153428699Y-86722278D02*
X153464683Y-86794245D01*
X153464683Y-86794245D02*
X153500666Y-86830228D01*
X153500666Y-86830228D02*
X153572633Y-86866211D01*
X153572633Y-86866211D02*
X153752549Y-86866211D01*
X153752549Y-86866211D02*
X153824516Y-86830228D01*
X153824516Y-86830228D02*
X153860499Y-86794245D01*
X142887700Y-91946211D02*
X143319500Y-91946211D01*
X143103600Y-91946211D02*
X143103600Y-91190561D01*
X143103600Y-91190561D02*
X143175567Y-91298511D01*
X143175567Y-91298511D02*
X143247534Y-91370478D01*
X143247534Y-91370478D02*
X143319500Y-91406461D01*
X142455900Y-91514411D02*
X142527867Y-91478428D01*
X142527867Y-91478428D02*
X142563850Y-91442445D01*
X142563850Y-91442445D02*
X142599833Y-91370478D01*
X142599833Y-91370478D02*
X142599833Y-91334495D01*
X142599833Y-91334495D02*
X142563850Y-91262528D01*
X142563850Y-91262528D02*
X142527867Y-91226545D01*
X142527867Y-91226545D02*
X142455900Y-91190561D01*
X142455900Y-91190561D02*
X142311967Y-91190561D01*
X142311967Y-91190561D02*
X142240000Y-91226545D01*
X142240000Y-91226545D02*
X142204017Y-91262528D01*
X142204017Y-91262528D02*
X142168033Y-91334495D01*
X142168033Y-91334495D02*
X142168033Y-91370478D01*
X142168033Y-91370478D02*
X142204017Y-91442445D01*
X142204017Y-91442445D02*
X142240000Y-91478428D01*
X142240000Y-91478428D02*
X142311967Y-91514411D01*
X142311967Y-91514411D02*
X142455900Y-91514411D01*
X142455900Y-91514411D02*
X142527867Y-91550395D01*
X142527867Y-91550395D02*
X142563850Y-91586378D01*
X142563850Y-91586378D02*
X142599833Y-91658345D01*
X142599833Y-91658345D02*
X142599833Y-91802278D01*
X142599833Y-91802278D02*
X142563850Y-91874245D01*
X142563850Y-91874245D02*
X142527867Y-91910228D01*
X142527867Y-91910228D02*
X142455900Y-91946211D01*
X142455900Y-91946211D02*
X142311967Y-91946211D01*
X142311967Y-91946211D02*
X142240000Y-91910228D01*
X142240000Y-91910228D02*
X142204017Y-91874245D01*
X142204017Y-91874245D02*
X142168033Y-91802278D01*
X142168033Y-91802278D02*
X142168033Y-91658345D01*
X142168033Y-91658345D02*
X142204017Y-91586378D01*
X142204017Y-91586378D02*
X142240000Y-91550395D01*
X142240000Y-91550395D02*
X142311967Y-91514411D01*
X152578038Y-128378033D02*
X151822388Y-128126150D01*
X151822388Y-128126150D02*
X152578038Y-127874266D01*
X151894355Y-127190583D02*
X151858371Y-127226566D01*
X151858371Y-127226566D02*
X151822388Y-127334516D01*
X151822388Y-127334516D02*
X151822388Y-127406483D01*
X151822388Y-127406483D02*
X151858371Y-127514433D01*
X151858371Y-127514433D02*
X151930338Y-127586400D01*
X151930338Y-127586400D02*
X152002305Y-127622383D01*
X152002305Y-127622383D02*
X152146238Y-127658366D01*
X152146238Y-127658366D02*
X152254188Y-127658366D01*
X152254188Y-127658366D02*
X152398121Y-127622383D01*
X152398121Y-127622383D02*
X152470088Y-127586400D01*
X152470088Y-127586400D02*
X152542055Y-127514433D01*
X152542055Y-127514433D02*
X152578038Y-127406483D01*
X152578038Y-127406483D02*
X152578038Y-127334516D01*
X152578038Y-127334516D02*
X152542055Y-127226566D01*
X152542055Y-127226566D02*
X152506071Y-127190583D01*
X151894355Y-126434933D02*
X151858371Y-126470916D01*
X151858371Y-126470916D02*
X151822388Y-126578866D01*
X151822388Y-126578866D02*
X151822388Y-126650833D01*
X151822388Y-126650833D02*
X151858371Y-126758783D01*
X151858371Y-126758783D02*
X151930338Y-126830750D01*
X151930338Y-126830750D02*
X152002305Y-126866733D01*
X152002305Y-126866733D02*
X152146238Y-126902716D01*
X152146238Y-126902716D02*
X152254188Y-126902716D01*
X152254188Y-126902716D02*
X152398121Y-126866733D01*
X152398121Y-126866733D02*
X152470088Y-126830750D01*
X152470088Y-126830750D02*
X152542055Y-126758783D01*
X152542055Y-126758783D02*
X152578038Y-126650833D01*
X152578038Y-126650833D02*
X152578038Y-126578866D01*
X152578038Y-126578866D02*
X152542055Y-126470916D01*
X152542055Y-126470916D02*
X152506071Y-126434933D01*
X154400250Y-100738485D02*
X154328283Y-100738485D01*
X154328283Y-100738485D02*
X154256316Y-100774469D01*
X154256316Y-100774469D02*
X154220333Y-100810452D01*
X154220333Y-100810452D02*
X154184350Y-100882419D01*
X154184350Y-100882419D02*
X154148366Y-101026352D01*
X154148366Y-101026352D02*
X154148366Y-101206269D01*
X154148366Y-101206269D02*
X154184350Y-101350202D01*
X154184350Y-101350202D02*
X154220333Y-101422169D01*
X154220333Y-101422169D02*
X154256316Y-101458152D01*
X154256316Y-101458152D02*
X154328283Y-101494135D01*
X154328283Y-101494135D02*
X154400250Y-101494135D01*
X154400250Y-101494135D02*
X154472216Y-101458152D01*
X154472216Y-101458152D02*
X154508200Y-101422169D01*
X154508200Y-101422169D02*
X154544183Y-101350202D01*
X154544183Y-101350202D02*
X154580166Y-101206269D01*
X154580166Y-101206269D02*
X154580166Y-101026352D01*
X154580166Y-101026352D02*
X154544183Y-100882419D01*
X154544183Y-100882419D02*
X154508200Y-100810452D01*
X154508200Y-100810452D02*
X154472216Y-100774469D01*
X154472216Y-100774469D02*
X154400250Y-100738485D01*
X153788533Y-101494135D02*
X153644599Y-101494135D01*
X153644599Y-101494135D02*
X153572633Y-101458152D01*
X153572633Y-101458152D02*
X153536649Y-101422169D01*
X153536649Y-101422169D02*
X153464683Y-101314219D01*
X153464683Y-101314219D02*
X153428699Y-101170285D01*
X153428699Y-101170285D02*
X153428699Y-100882419D01*
X153428699Y-100882419D02*
X153464683Y-100810452D01*
X153464683Y-100810452D02*
X153500666Y-100774469D01*
X153500666Y-100774469D02*
X153572633Y-100738485D01*
X153572633Y-100738485D02*
X153716566Y-100738485D01*
X153716566Y-100738485D02*
X153788533Y-100774469D01*
X153788533Y-100774469D02*
X153824516Y-100810452D01*
X153824516Y-100810452D02*
X153860499Y-100882419D01*
X153860499Y-100882419D02*
X153860499Y-101062335D01*
X153860499Y-101062335D02*
X153824516Y-101134302D01*
X153824516Y-101134302D02*
X153788533Y-101170285D01*
X153788533Y-101170285D02*
X153716566Y-101206269D01*
X153716566Y-101206269D02*
X153572633Y-101206269D01*
X153572633Y-101206269D02*
X153500666Y-101170285D01*
X153500666Y-101170285D02*
X153464683Y-101134302D01*
X153464683Y-101134302D02*
X153428699Y-101062335D01*
X154652133Y-102430422D02*
X154616150Y-102394438D01*
X154616150Y-102394438D02*
X154544183Y-102358455D01*
X154544183Y-102358455D02*
X154400250Y-102430422D01*
X154400250Y-102430422D02*
X154328283Y-102394438D01*
X154328283Y-102394438D02*
X154292300Y-102358455D01*
X154004433Y-102718288D02*
X154004433Y-101962638D01*
X154004433Y-101962638D02*
X153572633Y-102718288D01*
X153572633Y-102718288D02*
X153572633Y-101962638D01*
X152960917Y-102322472D02*
X153212800Y-102322472D01*
X153212800Y-102718288D02*
X153212800Y-101962638D01*
X153212800Y-101962638D02*
X152852967Y-101962638D01*
X152133300Y-102646322D02*
X152169283Y-102682305D01*
X152169283Y-102682305D02*
X152277233Y-102718288D01*
X152277233Y-102718288D02*
X152349200Y-102718288D01*
X152349200Y-102718288D02*
X152457150Y-102682305D01*
X152457150Y-102682305D02*
X152529117Y-102610338D01*
X152529117Y-102610338D02*
X152565100Y-102538372D01*
X152565100Y-102538372D02*
X152601083Y-102394438D01*
X152601083Y-102394438D02*
X152601083Y-102286488D01*
X152601083Y-102286488D02*
X152565100Y-102142555D01*
X152565100Y-102142555D02*
X152529117Y-102070588D01*
X152529117Y-102070588D02*
X152457150Y-101998622D01*
X152457150Y-101998622D02*
X152349200Y-101962638D01*
X152349200Y-101962638D02*
X152277233Y-101962638D01*
X152277233Y-101962638D02*
X152169283Y-101998622D01*
X152169283Y-101998622D02*
X152133300Y-102034605D01*
X151413633Y-102718288D02*
X151845433Y-102718288D01*
X151629533Y-102718288D02*
X151629533Y-101962638D01*
X151629533Y-101962638D02*
X151701500Y-102070588D01*
X151701500Y-102070588D02*
X151773467Y-102142555D01*
X151773467Y-102142555D02*
X151845433Y-102178538D01*
X145008583Y-119489745D02*
X144972600Y-119453761D01*
X144972600Y-119453761D02*
X144900633Y-119417778D01*
X144900633Y-119417778D02*
X144756700Y-119489745D01*
X144756700Y-119489745D02*
X144684733Y-119453761D01*
X144684733Y-119453761D02*
X144648750Y-119417778D01*
X143929083Y-119777611D02*
X144180966Y-119417778D01*
X144360883Y-119777611D02*
X144360883Y-119021961D01*
X144360883Y-119021961D02*
X144073016Y-119021961D01*
X144073016Y-119021961D02*
X144001050Y-119057945D01*
X144001050Y-119057945D02*
X143965066Y-119093928D01*
X143965066Y-119093928D02*
X143929083Y-119165895D01*
X143929083Y-119165895D02*
X143929083Y-119273845D01*
X143929083Y-119273845D02*
X143965066Y-119345811D01*
X143965066Y-119345811D02*
X144001050Y-119381795D01*
X144001050Y-119381795D02*
X144073016Y-119417778D01*
X144073016Y-119417778D02*
X144360883Y-119417778D01*
X143641216Y-119741628D02*
X143533266Y-119777611D01*
X143533266Y-119777611D02*
X143353350Y-119777611D01*
X143353350Y-119777611D02*
X143281383Y-119741628D01*
X143281383Y-119741628D02*
X143245400Y-119705645D01*
X143245400Y-119705645D02*
X143209416Y-119633678D01*
X143209416Y-119633678D02*
X143209416Y-119561711D01*
X143209416Y-119561711D02*
X143245400Y-119489745D01*
X143245400Y-119489745D02*
X143281383Y-119453761D01*
X143281383Y-119453761D02*
X143353350Y-119417778D01*
X143353350Y-119417778D02*
X143497283Y-119381795D01*
X143497283Y-119381795D02*
X143569250Y-119345811D01*
X143569250Y-119345811D02*
X143605233Y-119309828D01*
X143605233Y-119309828D02*
X143641216Y-119237861D01*
X143641216Y-119237861D02*
X143641216Y-119165895D01*
X143641216Y-119165895D02*
X143605233Y-119093928D01*
X143605233Y-119093928D02*
X143569250Y-119057945D01*
X143569250Y-119057945D02*
X143497283Y-119021961D01*
X143497283Y-119021961D02*
X143317366Y-119021961D01*
X143317366Y-119021961D02*
X143209416Y-119057945D01*
X142993516Y-119021961D02*
X142561716Y-119021961D01*
X142777616Y-119777611D02*
X142777616Y-119021961D01*
X142417783Y-119489745D02*
X142381800Y-119453761D01*
X142381800Y-119453761D02*
X142309833Y-119417778D01*
X142309833Y-119417778D02*
X142165900Y-119489745D01*
X142165900Y-119489745D02*
X142093933Y-119453761D01*
X142093933Y-119453761D02*
X142057950Y-119417778D01*
X154148366Y-97026211D02*
X154580166Y-97026211D01*
X154364266Y-97026211D02*
X154364266Y-96270561D01*
X154364266Y-96270561D02*
X154436233Y-96378511D01*
X154436233Y-96378511D02*
X154508200Y-96450478D01*
X154508200Y-96450478D02*
X154580166Y-96486461D01*
X153428699Y-97026211D02*
X153860499Y-97026211D01*
X153644599Y-97026211D02*
X153644599Y-96270561D01*
X153644599Y-96270561D02*
X153716566Y-96378511D01*
X153716566Y-96378511D02*
X153788533Y-96450478D01*
X153788533Y-96450478D02*
X153860499Y-96486461D01*
X154400250Y-105818485D02*
X154328283Y-105818485D01*
X154328283Y-105818485D02*
X154256316Y-105854469D01*
X154256316Y-105854469D02*
X154220333Y-105890452D01*
X154220333Y-105890452D02*
X154184350Y-105962419D01*
X154184350Y-105962419D02*
X154148366Y-106106352D01*
X154148366Y-106106352D02*
X154148366Y-106286269D01*
X154148366Y-106286269D02*
X154184350Y-106430202D01*
X154184350Y-106430202D02*
X154220333Y-106502169D01*
X154220333Y-106502169D02*
X154256316Y-106538152D01*
X154256316Y-106538152D02*
X154328283Y-106574135D01*
X154328283Y-106574135D02*
X154400250Y-106574135D01*
X154400250Y-106574135D02*
X154472216Y-106538152D01*
X154472216Y-106538152D02*
X154508200Y-106502169D01*
X154508200Y-106502169D02*
X154544183Y-106430202D01*
X154544183Y-106430202D02*
X154580166Y-106286269D01*
X154580166Y-106286269D02*
X154580166Y-106106352D01*
X154580166Y-106106352D02*
X154544183Y-105962419D01*
X154544183Y-105962419D02*
X154508200Y-105890452D01*
X154508200Y-105890452D02*
X154472216Y-105854469D01*
X154472216Y-105854469D02*
X154400250Y-105818485D01*
X153464683Y-105818485D02*
X153824516Y-105818485D01*
X153824516Y-105818485D02*
X153860499Y-106178319D01*
X153860499Y-106178319D02*
X153824516Y-106142335D01*
X153824516Y-106142335D02*
X153752549Y-106106352D01*
X153752549Y-106106352D02*
X153572633Y-106106352D01*
X153572633Y-106106352D02*
X153500666Y-106142335D01*
X153500666Y-106142335D02*
X153464683Y-106178319D01*
X153464683Y-106178319D02*
X153428699Y-106250285D01*
X153428699Y-106250285D02*
X153428699Y-106430202D01*
X153428699Y-106430202D02*
X153464683Y-106502169D01*
X153464683Y-106502169D02*
X153500666Y-106538152D01*
X153500666Y-106538152D02*
X153572633Y-106574135D01*
X153572633Y-106574135D02*
X153752549Y-106574135D01*
X153752549Y-106574135D02*
X153824516Y-106538152D01*
X153824516Y-106538152D02*
X153860499Y-106502169D01*
X154652133Y-107510422D02*
X154616150Y-107474438D01*
X154616150Y-107474438D02*
X154544183Y-107438455D01*
X154544183Y-107438455D02*
X154400250Y-107510422D01*
X154400250Y-107510422D02*
X154328283Y-107474438D01*
X154328283Y-107474438D02*
X154292300Y-107438455D01*
X154040416Y-107582388D02*
X153680583Y-107582388D01*
X154112383Y-107798288D02*
X153860500Y-107042638D01*
X153860500Y-107042638D02*
X153608616Y-107798288D01*
X153428700Y-107042638D02*
X152960916Y-107042638D01*
X152960916Y-107042638D02*
X153212800Y-107330505D01*
X153212800Y-107330505D02*
X153104850Y-107330505D01*
X153104850Y-107330505D02*
X153032883Y-107366488D01*
X153032883Y-107366488D02*
X152996900Y-107402472D01*
X152996900Y-107402472D02*
X152960916Y-107474438D01*
X152960916Y-107474438D02*
X152960916Y-107654355D01*
X152960916Y-107654355D02*
X152996900Y-107726322D01*
X152996900Y-107726322D02*
X153032883Y-107762305D01*
X153032883Y-107762305D02*
X153104850Y-107798288D01*
X153104850Y-107798288D02*
X153320750Y-107798288D01*
X153320750Y-107798288D02*
X153392716Y-107762305D01*
X153392716Y-107762305D02*
X153428700Y-107726322D01*
X154148366Y-89406211D02*
X154580166Y-89406211D01*
X154364266Y-89406211D02*
X154364266Y-88650561D01*
X154364266Y-88650561D02*
X154436233Y-88758511D01*
X154436233Y-88758511D02*
X154508200Y-88830478D01*
X154508200Y-88830478D02*
X154580166Y-88866461D01*
X153500666Y-88902445D02*
X153500666Y-89406211D01*
X153680583Y-88614578D02*
X153860499Y-89154328D01*
X153860499Y-89154328D02*
X153392716Y-89154328D01*
X143751299Y-124210561D02*
X143499416Y-124966211D01*
X143499416Y-124966211D02*
X143247532Y-124210561D01*
X142995649Y-124966211D02*
X142995649Y-124210561D01*
X142635816Y-124966211D02*
X142635816Y-124210561D01*
X142635816Y-124210561D02*
X142204016Y-124966211D01*
X142204016Y-124966211D02*
X142204016Y-124210561D01*
X142887700Y-86866211D02*
X143319500Y-86866211D01*
X143103600Y-86866211D02*
X143103600Y-86110561D01*
X143103600Y-86110561D02*
X143175567Y-86218511D01*
X143175567Y-86218511D02*
X143247534Y-86290478D01*
X143247534Y-86290478D02*
X143319500Y-86326461D01*
X142240000Y-86110561D02*
X142383933Y-86110561D01*
X142383933Y-86110561D02*
X142455900Y-86146545D01*
X142455900Y-86146545D02*
X142491883Y-86182528D01*
X142491883Y-86182528D02*
X142563850Y-86290478D01*
X142563850Y-86290478D02*
X142599833Y-86434411D01*
X142599833Y-86434411D02*
X142599833Y-86722278D01*
X142599833Y-86722278D02*
X142563850Y-86794245D01*
X142563850Y-86794245D02*
X142527867Y-86830228D01*
X142527867Y-86830228D02*
X142455900Y-86866211D01*
X142455900Y-86866211D02*
X142311967Y-86866211D01*
X142311967Y-86866211D02*
X142240000Y-86830228D01*
X142240000Y-86830228D02*
X142204017Y-86794245D01*
X142204017Y-86794245D02*
X142168033Y-86722278D01*
X142168033Y-86722278D02*
X142168033Y-86542361D01*
X142168033Y-86542361D02*
X142204017Y-86470395D01*
X142204017Y-86470395D02*
X142240000Y-86434411D01*
X142240000Y-86434411D02*
X142311967Y-86398428D01*
X142311967Y-86398428D02*
X142455900Y-86398428D01*
X142455900Y-86398428D02*
X142527867Y-86434411D01*
X142527867Y-86434411D02*
X142563850Y-86470395D01*
X142563850Y-86470395D02*
X142599833Y-86542361D01*
D11*
X155281357Y-81777585D02*
X155281357Y-82425285D01*
X155281357Y-81870114D02*
X155235093Y-81823850D01*
X155235093Y-81823850D02*
X155142564Y-81777585D01*
X155142564Y-81777585D02*
X155003771Y-81777585D01*
X155003771Y-81777585D02*
X154911243Y-81823850D01*
X154911243Y-81823850D02*
X154864979Y-81916378D01*
X154864979Y-81916378D02*
X154864979Y-82425285D01*
X153847165Y-82425285D02*
X154171015Y-81962642D01*
X154402336Y-82425285D02*
X154402336Y-81453735D01*
X154402336Y-81453735D02*
X154032222Y-81453735D01*
X154032222Y-81453735D02*
X153939693Y-81500000D01*
X153939693Y-81500000D02*
X153893429Y-81546264D01*
X153893429Y-81546264D02*
X153847165Y-81638792D01*
X153847165Y-81638792D02*
X153847165Y-81777585D01*
X153847165Y-81777585D02*
X153893429Y-81870114D01*
X153893429Y-81870114D02*
X153939693Y-81916378D01*
X153939693Y-81916378D02*
X154032222Y-81962642D01*
X154032222Y-81962642D02*
X154402336Y-81962642D01*
X153106936Y-81916378D02*
X153430786Y-81916378D01*
X153430786Y-82425285D02*
X153430786Y-81453735D01*
X153430786Y-81453735D02*
X152968143Y-81453735D01*
X152135386Y-81453735D02*
X152598029Y-81453735D01*
X152598029Y-81453735D02*
X152644293Y-81916378D01*
X152644293Y-81916378D02*
X152598029Y-81870114D01*
X152598029Y-81870114D02*
X152505501Y-81823850D01*
X152505501Y-81823850D02*
X152274179Y-81823850D01*
X152274179Y-81823850D02*
X152181651Y-81870114D01*
X152181651Y-81870114D02*
X152135386Y-81916378D01*
X152135386Y-81916378D02*
X152089122Y-82008907D01*
X152089122Y-82008907D02*
X152089122Y-82240228D01*
X152089122Y-82240228D02*
X152135386Y-82332757D01*
X152135386Y-82332757D02*
X152181651Y-82379021D01*
X152181651Y-82379021D02*
X152274179Y-82425285D01*
X152274179Y-82425285D02*
X152505501Y-82425285D01*
X152505501Y-82425285D02*
X152598029Y-82379021D01*
X152598029Y-82379021D02*
X152644293Y-82332757D01*
X151719007Y-81546264D02*
X151672743Y-81500000D01*
X151672743Y-81500000D02*
X151580215Y-81453735D01*
X151580215Y-81453735D02*
X151348893Y-81453735D01*
X151348893Y-81453735D02*
X151256365Y-81500000D01*
X151256365Y-81500000D02*
X151210100Y-81546264D01*
X151210100Y-81546264D02*
X151163836Y-81638792D01*
X151163836Y-81638792D02*
X151163836Y-81731321D01*
X151163836Y-81731321D02*
X151210100Y-81870114D01*
X151210100Y-81870114D02*
X151765272Y-82425285D01*
X151765272Y-82425285D02*
X151163836Y-82425285D01*
X150608664Y-81870114D02*
X150701193Y-81823850D01*
X150701193Y-81823850D02*
X150747457Y-81777585D01*
X150747457Y-81777585D02*
X150793721Y-81685057D01*
X150793721Y-81685057D02*
X150793721Y-81638792D01*
X150793721Y-81638792D02*
X150747457Y-81546264D01*
X150747457Y-81546264D02*
X150701193Y-81500000D01*
X150701193Y-81500000D02*
X150608664Y-81453735D01*
X150608664Y-81453735D02*
X150423607Y-81453735D01*
X150423607Y-81453735D02*
X150331079Y-81500000D01*
X150331079Y-81500000D02*
X150284814Y-81546264D01*
X150284814Y-81546264D02*
X150238550Y-81638792D01*
X150238550Y-81638792D02*
X150238550Y-81685057D01*
X150238550Y-81685057D02*
X150284814Y-81777585D01*
X150284814Y-81777585D02*
X150331079Y-81823850D01*
X150331079Y-81823850D02*
X150423607Y-81870114D01*
X150423607Y-81870114D02*
X150608664Y-81870114D01*
X150608664Y-81870114D02*
X150701193Y-81916378D01*
X150701193Y-81916378D02*
X150747457Y-81962642D01*
X150747457Y-81962642D02*
X150793721Y-82055171D01*
X150793721Y-82055171D02*
X150793721Y-82240228D01*
X150793721Y-82240228D02*
X150747457Y-82332757D01*
X150747457Y-82332757D02*
X150701193Y-82379021D01*
X150701193Y-82379021D02*
X150608664Y-82425285D01*
X150608664Y-82425285D02*
X150423607Y-82425285D01*
X150423607Y-82425285D02*
X150331079Y-82379021D01*
X150331079Y-82379021D02*
X150284814Y-82332757D01*
X150284814Y-82332757D02*
X150238550Y-82240228D01*
X150238550Y-82240228D02*
X150238550Y-82055171D01*
X150238550Y-82055171D02*
X150284814Y-81962642D01*
X150284814Y-81962642D02*
X150331079Y-81916378D01*
X150331079Y-81916378D02*
X150423607Y-81870114D01*
X149914700Y-81453735D02*
X149313264Y-81453735D01*
X149313264Y-81453735D02*
X149637114Y-81823850D01*
X149637114Y-81823850D02*
X149498321Y-81823850D01*
X149498321Y-81823850D02*
X149405793Y-81870114D01*
X149405793Y-81870114D02*
X149359528Y-81916378D01*
X149359528Y-81916378D02*
X149313264Y-82008907D01*
X149313264Y-82008907D02*
X149313264Y-82240228D01*
X149313264Y-82240228D02*
X149359528Y-82332757D01*
X149359528Y-82332757D02*
X149405793Y-82379021D01*
X149405793Y-82379021D02*
X149498321Y-82425285D01*
X149498321Y-82425285D02*
X149775907Y-82425285D01*
X149775907Y-82425285D02*
X149868435Y-82379021D01*
X149868435Y-82379021D02*
X149914700Y-82332757D01*
X148943149Y-81546264D02*
X148896885Y-81500000D01*
X148896885Y-81500000D02*
X148804357Y-81453735D01*
X148804357Y-81453735D02*
X148573035Y-81453735D01*
X148573035Y-81453735D02*
X148480507Y-81500000D01*
X148480507Y-81500000D02*
X148434242Y-81546264D01*
X148434242Y-81546264D02*
X148387978Y-81638792D01*
X148387978Y-81638792D02*
X148387978Y-81731321D01*
X148387978Y-81731321D02*
X148434242Y-81870114D01*
X148434242Y-81870114D02*
X148989414Y-82425285D01*
X148989414Y-82425285D02*
X148387978Y-82425285D01*
X147064819Y-81916378D02*
X146926026Y-81962642D01*
X146926026Y-81962642D02*
X146879762Y-82008907D01*
X146879762Y-82008907D02*
X146833498Y-82101435D01*
X146833498Y-82101435D02*
X146833498Y-82240228D01*
X146833498Y-82240228D02*
X146879762Y-82332757D01*
X146879762Y-82332757D02*
X146926026Y-82379021D01*
X146926026Y-82379021D02*
X147018555Y-82425285D01*
X147018555Y-82425285D02*
X147388669Y-82425285D01*
X147388669Y-82425285D02*
X147388669Y-81453735D01*
X147388669Y-81453735D02*
X147064819Y-81453735D01*
X147064819Y-81453735D02*
X146972291Y-81500000D01*
X146972291Y-81500000D02*
X146926026Y-81546264D01*
X146926026Y-81546264D02*
X146879762Y-81638792D01*
X146879762Y-81638792D02*
X146879762Y-81731321D01*
X146879762Y-81731321D02*
X146926026Y-81823850D01*
X146926026Y-81823850D02*
X146972291Y-81870114D01*
X146972291Y-81870114D02*
X147064819Y-81916378D01*
X147064819Y-81916378D02*
X147388669Y-81916378D01*
X146417119Y-82425285D02*
X146417119Y-81777585D01*
X146417119Y-81962642D02*
X146370855Y-81870114D01*
X146370855Y-81870114D02*
X146324591Y-81823850D01*
X146324591Y-81823850D02*
X146232062Y-81777585D01*
X146232062Y-81777585D02*
X146139533Y-81777585D01*
X145445569Y-82379021D02*
X145538097Y-82425285D01*
X145538097Y-82425285D02*
X145723155Y-82425285D01*
X145723155Y-82425285D02*
X145815683Y-82379021D01*
X145815683Y-82379021D02*
X145861947Y-82286492D01*
X145861947Y-82286492D02*
X145861947Y-81916378D01*
X145861947Y-81916378D02*
X145815683Y-81823850D01*
X145815683Y-81823850D02*
X145723155Y-81777585D01*
X145723155Y-81777585D02*
X145538097Y-81777585D01*
X145538097Y-81777585D02*
X145445569Y-81823850D01*
X145445569Y-81823850D02*
X145399305Y-81916378D01*
X145399305Y-81916378D02*
X145399305Y-82008907D01*
X145399305Y-82008907D02*
X145861947Y-82101435D01*
X144566548Y-82425285D02*
X144566548Y-81916378D01*
X144566548Y-81916378D02*
X144612812Y-81823850D01*
X144612812Y-81823850D02*
X144705340Y-81777585D01*
X144705340Y-81777585D02*
X144890398Y-81777585D01*
X144890398Y-81777585D02*
X144982926Y-81823850D01*
X144566548Y-82379021D02*
X144659076Y-82425285D01*
X144659076Y-82425285D02*
X144890398Y-82425285D01*
X144890398Y-82425285D02*
X144982926Y-82379021D01*
X144982926Y-82379021D02*
X145029190Y-82286492D01*
X145029190Y-82286492D02*
X145029190Y-82193964D01*
X145029190Y-82193964D02*
X144982926Y-82101435D01*
X144982926Y-82101435D02*
X144890398Y-82055171D01*
X144890398Y-82055171D02*
X144659076Y-82055171D01*
X144659076Y-82055171D02*
X144566548Y-82008907D01*
X144103905Y-82425285D02*
X144103905Y-81453735D01*
X144011377Y-82055171D02*
X143733791Y-82425285D01*
X143733791Y-81777585D02*
X144103905Y-82147700D01*
X143178619Y-82425285D02*
X143271148Y-82379021D01*
X143271148Y-82379021D02*
X143317412Y-82332757D01*
X143317412Y-82332757D02*
X143363676Y-82240228D01*
X143363676Y-82240228D02*
X143363676Y-81962642D01*
X143363676Y-81962642D02*
X143317412Y-81870114D01*
X143317412Y-81870114D02*
X143271148Y-81823850D01*
X143271148Y-81823850D02*
X143178619Y-81777585D01*
X143178619Y-81777585D02*
X143039826Y-81777585D01*
X143039826Y-81777585D02*
X142947298Y-81823850D01*
X142947298Y-81823850D02*
X142901034Y-81870114D01*
X142901034Y-81870114D02*
X142854769Y-81962642D01*
X142854769Y-81962642D02*
X142854769Y-82240228D01*
X142854769Y-82240228D02*
X142901034Y-82332757D01*
X142901034Y-82332757D02*
X142947298Y-82379021D01*
X142947298Y-82379021D02*
X143039826Y-82425285D01*
X143039826Y-82425285D02*
X143178619Y-82425285D01*
X142022013Y-81777585D02*
X142022013Y-82425285D01*
X142438391Y-81777585D02*
X142438391Y-82286492D01*
X142438391Y-82286492D02*
X142392127Y-82379021D01*
X142392127Y-82379021D02*
X142299598Y-82425285D01*
X142299598Y-82425285D02*
X142160805Y-82425285D01*
X142160805Y-82425285D02*
X142068277Y-82379021D01*
X142068277Y-82379021D02*
X142022013Y-82332757D01*
X141698163Y-81777585D02*
X141328049Y-81777585D01*
X141559370Y-81453735D02*
X141559370Y-82286492D01*
X141559370Y-82286492D02*
X141513106Y-82379021D01*
X141513106Y-82379021D02*
X141420577Y-82425285D01*
X141420577Y-82425285D02*
X141328049Y-82425285D01*
D12*
G04 #@! TO.C,JP1*
X147674500Y-126366000D02*
X149325500Y-126366000D01*
X149325500Y-124334000D02*
X147674500Y-124334000D01*
X147674500Y-124334000D02*
G75*
G03*
X147420500Y-124588000I0J-254000D01*
G01*
X147420500Y-126112000D02*
G75*
G03*
X147674500Y-126366000I254000J0D01*
G01*
X149579500Y-124588000D02*
G75*
G03*
X149325500Y-124334000I-254000J0D01*
G01*
X149325500Y-126366000D02*
G75*
G03*
X149579500Y-126112000I0J254000D01*
G01*
G04 #@! TO.C,JP4*
X146374500Y-104116000D02*
X148025500Y-104116000D01*
X148025500Y-102084000D02*
X146374500Y-102084000D01*
X146374500Y-102084000D02*
G75*
G03*
X146120500Y-102338000I0J-254000D01*
G01*
X146120500Y-103862000D02*
G75*
G03*
X146374500Y-104116000I254000J0D01*
G01*
X148279500Y-102338000D02*
G75*
G03*
X148025500Y-102084000I-254000J0D01*
G01*
X148025500Y-104116000D02*
G75*
G03*
X148279500Y-103862000I0J254000D01*
G01*
G04 #@! TO.C,JP6*
X149325500Y-114784000D02*
X147674500Y-114784000D01*
X147674500Y-116816000D02*
X149325500Y-116816000D01*
X149325500Y-116816000D02*
G75*
G03*
X149579500Y-116562000I0J254000D01*
G01*
X149579500Y-115038000D02*
G75*
G03*
X149325500Y-114784000I-254000J0D01*
G01*
X147420500Y-116562000D02*
G75*
G03*
X147674500Y-116816000I254000J0D01*
G01*
X147674500Y-114784000D02*
G75*
G03*
X147420500Y-115038000I0J-254000D01*
G01*
G04 #@! TO.C,JP5*
X150700500Y-102109000D02*
X149049500Y-102109000D01*
X149049500Y-104141000D02*
X150700500Y-104141000D01*
X150700500Y-104141000D02*
G75*
G03*
X150954500Y-103887000I0J254000D01*
G01*
X150954500Y-102363000D02*
G75*
G03*
X150700500Y-102109000I-254000J0D01*
G01*
X148795500Y-103887000D02*
G75*
G03*
X149049500Y-104141000I254000J0D01*
G01*
X149049500Y-102109000D02*
G75*
G03*
X148795500Y-102363000I0J-254000D01*
G01*
G04 #@! TD*
M02*
