G04 #@! TF.GenerationSoftware,KiCad,Pcbnew,(7.0.0)*
G04 #@! TF.CreationDate,2023-04-22T14:52:30+07:00*
G04 #@! TF.ProjectId,sparkfun-nrf52832-breakout,73706172-6b66-4756-9e2d-6e7266353238,rev?*
G04 #@! TF.SameCoordinates,Original*
G04 #@! TF.FileFunction,Copper,L2,Bot*
G04 #@! TF.FilePolarity,Positive*
%FSLAX46Y46*%
G04 Gerber Fmt 4.6, Leading zero omitted, Abs format (unit mm)*
G04 Created by KiCad (PCBNEW (7.0.0)) date 2023-04-22 14:52:30*
%MOMM*%
%LPD*%
G01*
G04 APERTURE LIST*
%ADD10C,0.177800*%
G04 #@! TA.AperFunction,NonConductor*
%ADD11C,0.177800*%
G04 #@! TD*
G04 #@! TA.AperFunction,EtchedComponent*
%ADD12C,0.254000*%
G04 #@! TD*
G04 #@! TA.AperFunction,ComponentPad*
%ADD13R,1.700000X1.700000*%
G04 #@! TD*
G04 #@! TA.AperFunction,ComponentPad*
%ADD14O,1.700000X1.700000*%
G04 #@! TD*
G04 #@! TA.AperFunction,ComponentPad*
%ADD15C,1.879600*%
G04 #@! TD*
G04 #@! TA.AperFunction,SMDPad,CuDef*
%ADD16R,0.635000X1.270000*%
G04 #@! TD*
G04 #@! TA.AperFunction,ViaPad*
%ADD17C,0.508000*%
G04 #@! TD*
G04 #@! TA.AperFunction,Conductor*
%ADD18C,0.152400*%
G04 #@! TD*
G04 #@! TA.AperFunction,Conductor*
%ADD19C,0.406400*%
G04 #@! TD*
G04 #@! TA.AperFunction,Conductor*
%ADD20C,0.400000*%
G04 #@! TD*
G04 #@! TA.AperFunction,Conductor*
%ADD21C,0.228600*%
G04 #@! TD*
G04 APERTURE END LIST*
D10*
D11*
X140550900Y-130386666D02*
X140076766Y-130217332D01*
X140076766Y-130217332D02*
X140550900Y-130047999D01*
X140076766Y-129404532D02*
X140076766Y-129810932D01*
X140076766Y-129607732D02*
X140787966Y-129607732D01*
X140787966Y-129607732D02*
X140686366Y-129675465D01*
X140686366Y-129675465D02*
X140618633Y-129743199D01*
X140618633Y-129743199D02*
X140584766Y-129810932D01*
X140787966Y-128964266D02*
X140787966Y-128896532D01*
X140787966Y-128896532D02*
X140754100Y-128828799D01*
X140754100Y-128828799D02*
X140720233Y-128794932D01*
X140720233Y-128794932D02*
X140652500Y-128761066D01*
X140652500Y-128761066D02*
X140517033Y-128727199D01*
X140517033Y-128727199D02*
X140347700Y-128727199D01*
X140347700Y-128727199D02*
X140212233Y-128761066D01*
X140212233Y-128761066D02*
X140144500Y-128794932D01*
X140144500Y-128794932D02*
X140110633Y-128828799D01*
X140110633Y-128828799D02*
X140076766Y-128896532D01*
X140076766Y-128896532D02*
X140076766Y-128964266D01*
X140076766Y-128964266D02*
X140110633Y-129031999D01*
X140110633Y-129031999D02*
X140144500Y-129065866D01*
X140144500Y-129065866D02*
X140212233Y-129099732D01*
X140212233Y-129099732D02*
X140347700Y-129133599D01*
X140347700Y-129133599D02*
X140517033Y-129133599D01*
X140517033Y-129133599D02*
X140652500Y-129099732D01*
X140652500Y-129099732D02*
X140720233Y-129065866D01*
X140720233Y-129065866D02*
X140754100Y-129031999D01*
X140754100Y-129031999D02*
X140787966Y-128964266D01*
D12*
G04 #@! TO.C,JP1*
X148119000Y-125350000D02*
X148881000Y-125350000D01*
G04 #@! TO.C,JP4*
X146819000Y-103100000D02*
X147581000Y-103100000D01*
G04 #@! TO.C,JP6*
X148881000Y-115800000D02*
X148119000Y-115800000D01*
G04 #@! TO.C,JP5*
X150256000Y-103125000D02*
X149494000Y-103125000D01*
G04 #@! TD*
D13*
G04 #@! TO.P,J5,1,Pin_1*
G04 #@! TO.N,/SWDCLK*
X146354999Y-111039999D03*
D14*
G04 #@! TO.P,J5,2,Pin_2*
G04 #@! TO.N,/SWDIO*
X148894999Y-111039999D03*
G04 #@! TO.P,J5,3,Pin_3*
G04 #@! TO.N,GND*
X151434999Y-111039999D03*
G04 #@! TD*
D15*
G04 #@! TO.P,J4,1,1*
G04 #@! TO.N,GND*
X156150000Y-127220000D03*
G04 #@! TO.P,J4,2,2*
G04 #@! TO.N,VIN*
X156150000Y-124680000D03*
G04 #@! TO.P,J4,3,3*
G04 #@! TO.N,VDD*
X156150000Y-122140000D03*
G04 #@! TO.P,J4,4,4*
G04 #@! TO.N,/P00*
X156150000Y-119600000D03*
G04 #@! TO.P,J4,5,5*
G04 #@! TO.N,/P01*
X156150000Y-117060000D03*
G04 #@! TO.P,J4,6,6*
G04 #@! TO.N,/P02*
X156150000Y-114520000D03*
G04 #@! TO.P,J4,7,7*
G04 #@! TO.N,/P03*
X156150000Y-111980000D03*
G04 #@! TO.P,J4,8,8*
G04 #@! TO.N,/P04*
X156150000Y-109440000D03*
G04 #@! TO.P,J4,9,9*
G04 #@! TO.N,/P05*
X156150000Y-106900000D03*
G04 #@! TO.P,J4,10,10*
G04 #@! TO.N,/P08*
X156150000Y-104360000D03*
G04 #@! TO.P,J4,11,11*
G04 #@! TO.N,/P09*
X156150000Y-101820000D03*
G04 #@! TO.P,J4,12,12*
G04 #@! TO.N,/P10*
X156150000Y-99280000D03*
G04 #@! TO.P,J4,13,13*
G04 #@! TO.N,/P11*
X156150000Y-96740000D03*
G04 #@! TO.P,J4,14,14*
G04 #@! TO.N,/P12*
X156150000Y-94200000D03*
G04 #@! TO.P,J4,15,15*
G04 #@! TO.N,/P13*
X156150000Y-91660000D03*
G04 #@! TO.P,J4,16,16*
G04 #@! TO.N,/P14*
X156150000Y-89120000D03*
G04 #@! TO.P,J4,17,17*
G04 #@! TO.N,/P15*
X156150000Y-86580000D03*
G04 #@! TD*
G04 #@! TO.P,J1,1,DTR*
G04 #@! TO.N,unconnected-(J1-DTR-Pad1)*
X142130000Y-129750000D03*
G04 #@! TO.P,J1,2,RXI*
G04 #@! TO.N,/P27*
X144670000Y-129750000D03*
G04 #@! TO.P,J1,3,TXO*
G04 #@! TO.N,/P26*
X147210000Y-129750000D03*
G04 #@! TO.P,J1,4,VCC*
G04 #@! TO.N,unconnected-(J1-VCC-Pad4)*
X149750000Y-129750000D03*
G04 #@! TO.P,J1,5,CTS*
G04 #@! TO.N,Net-(J1-CTS)*
X152290000Y-129750000D03*
G04 #@! TO.P,J1,6,GND*
G04 #@! TO.N,GND*
X154830000Y-129750000D03*
G04 #@! TD*
G04 #@! TO.P,J2,1,1*
G04 #@! TO.N,VDD*
X150070000Y-105650000D03*
G04 #@! TO.P,J2,2,2*
X147530000Y-105650000D03*
G04 #@! TD*
G04 #@! TO.P,J3,1,1*
G04 #@! TO.N,GND*
X140875000Y-127200000D03*
G04 #@! TO.P,J3,2,2*
G04 #@! TO.N,VIN*
X140875000Y-124660000D03*
G04 #@! TO.P,J3,3,3*
G04 #@! TO.N,VDD*
X140875000Y-122120000D03*
G04 #@! TO.P,J3,4,4*
G04 #@! TO.N,/~{RESET}*
X140875000Y-119580000D03*
G04 #@! TO.P,J3,5,5*
G04 #@! TO.N,/P31*
X140875000Y-117040000D03*
G04 #@! TO.P,J3,6,6*
G04 #@! TO.N,/P30*
X140875000Y-114500000D03*
G04 #@! TO.P,J3,7,7*
G04 #@! TO.N,/P29*
X140875000Y-111960000D03*
G04 #@! TO.P,J3,8,8*
G04 #@! TO.N,/P28*
X140875000Y-109420000D03*
G04 #@! TO.P,J3,9,9*
G04 #@! TO.N,/P25*
X140875000Y-106880000D03*
G04 #@! TO.P,J3,10,10*
G04 #@! TO.N,/P24*
X140875000Y-104340000D03*
G04 #@! TO.P,J3,11,11*
G04 #@! TO.N,/P23*
X140875000Y-101800000D03*
G04 #@! TO.P,J3,12,12*
G04 #@! TO.N,/P22*
X140875000Y-99260000D03*
G04 #@! TO.P,J3,13,13*
G04 #@! TO.N,/P20*
X140875000Y-96720000D03*
G04 #@! TO.P,J3,14,14*
G04 #@! TO.N,/P19*
X140875000Y-94180000D03*
G04 #@! TO.P,J3,15,15*
G04 #@! TO.N,/P18*
X140875000Y-91640000D03*
G04 #@! TO.P,J3,16,16*
G04 #@! TO.N,/P17*
X140875000Y-89100000D03*
G04 #@! TO.P,J3,17,17*
G04 #@! TO.N,/P16*
X140875000Y-86560000D03*
G04 #@! TD*
D16*
G04 #@! TO.P,JP1,1,1*
G04 #@! TO.N,Net-(J1-CTS)*
X147991999Y-125349999D03*
G04 #@! TO.P,JP1,2,2*
G04 #@! TO.N,VDD*
X149007999Y-125349999D03*
G04 #@! TD*
G04 #@! TO.P,JP4,1,1*
G04 #@! TO.N,Net-(Y2-2)*
X146691999Y-103099999D03*
G04 #@! TO.P,JP4,2,2*
G04 #@! TO.N,/P00*
X147707999Y-103099999D03*
G04 #@! TD*
G04 #@! TO.P,JP6,1,1*
G04 #@! TO.N,GND*
X149007999Y-115799999D03*
G04 #@! TO.P,JP6,2,2*
G04 #@! TO.N,Net-(JP6-Pad2)*
X147991999Y-115799999D03*
G04 #@! TD*
G04 #@! TO.P,JP5,1,1*
G04 #@! TO.N,Net-(Y2-1)*
X150382999Y-103124999D03*
G04 #@! TO.P,JP5,2,2*
G04 #@! TO.N,/P01*
X149366999Y-103124999D03*
G04 #@! TD*
D17*
G04 #@! TO.N,GND*
X145700000Y-107050000D03*
X143900000Y-92150000D03*
X144550000Y-98750000D03*
X145173700Y-118541800D03*
X146850100Y-84429600D03*
X148120100Y-84429600D03*
X147231100Y-93573600D03*
X144970500Y-86080600D03*
X151930100Y-86969600D03*
X145580100Y-84429600D03*
X146240500Y-86080600D03*
X153150000Y-125625000D03*
X156883100Y-84429600D03*
X148501100Y-97383600D03*
X151930100Y-88239600D03*
X151930100Y-84429600D03*
X148501100Y-96113600D03*
X153200100Y-86969600D03*
X151900000Y-105600000D03*
X154470100Y-84429600D03*
X142633700Y-87579200D03*
X148501100Y-94843600D03*
X146138900Y-124663200D03*
X151879300Y-98217600D03*
X151536400Y-90805000D03*
X149771100Y-93573600D03*
X149390100Y-84429600D03*
X149771100Y-96113600D03*
X145961100Y-101981000D03*
X144462500Y-102641400D03*
X148475000Y-121450000D03*
X147231100Y-94843600D03*
X150660100Y-84429600D03*
X144348200Y-116700300D03*
X146215100Y-87579200D03*
X147485100Y-87579200D03*
X155740100Y-84429600D03*
X147510500Y-86080600D03*
X151041100Y-93573600D03*
X153200100Y-88239600D03*
X148700000Y-88239600D03*
X151041100Y-96113600D03*
X147231100Y-96113600D03*
X141960600Y-84429600D03*
X147231100Y-97383600D03*
X153200100Y-84429600D03*
X153200100Y-85699600D03*
X150660100Y-85699600D03*
X142430500Y-85550000D03*
X148551900Y-118033800D03*
X143700500Y-86080600D03*
X143294100Y-84429600D03*
X151041100Y-94843600D03*
X145173700Y-120700800D03*
X150660100Y-86969600D03*
X152717500Y-99386000D03*
X149771100Y-97383600D03*
X148501100Y-93573600D03*
X151930100Y-85699600D03*
X154470100Y-85699600D03*
X151050000Y-119625000D03*
X151041100Y-97383600D03*
X150660100Y-88239600D03*
X144923900Y-95961200D03*
X149771100Y-94843600D03*
G04 #@! TO.N,VDD*
X143700500Y-122910600D03*
X144386300Y-103936800D03*
X143700500Y-114528600D03*
X145453100Y-98780600D03*
X145478500Y-92151200D03*
X149800000Y-122950000D03*
X152666700Y-98196400D03*
G04 #@! TO.N,Net-(Y2-2)*
X145986500Y-103098600D03*
G04 #@! TO.N,Net-(Y2-1)*
X151015700Y-103098600D03*
G04 #@! TO.N,/P07*
X155054300Y-105257600D03*
X150533100Y-99644200D03*
G04 #@! TO.N,/P27*
X142151100Y-108483400D03*
G04 #@! TO.N,/P26*
X142151100Y-107696000D03*
G04 #@! TO.N,/P10*
X152158700Y-99745800D03*
G04 #@! TO.N,/P09*
X151498300Y-99669600D03*
G04 #@! TO.N,/~{RESET}*
X152781000Y-92316300D03*
X154343100Y-100076000D03*
G04 #@! TO.N,/P24*
X149860000Y-91605100D03*
G04 #@! TO.N,/P23*
X150495000Y-91401900D03*
G04 #@! TO.N,/P22*
X150837900Y-90830400D03*
G04 #@! TO.N,/P20*
X153276300Y-91871800D03*
G04 #@! TO.N,/P19*
X153758900Y-90144600D03*
G04 #@! TO.N,/P18*
X153835100Y-93751400D03*
G04 #@! TO.N,/P17*
X153835100Y-94437200D03*
G04 #@! TO.N,/P16*
X153835100Y-95097600D03*
G04 #@! TO.N,/P00*
X146824700Y-99872800D03*
G04 #@! TO.N,/P01*
X147535900Y-99847400D03*
G04 #@! TO.N,/P02*
X148094700Y-100228400D03*
G04 #@! TO.N,/P03*
X148586900Y-99660000D03*
G04 #@! TO.N,/P04*
X149072600Y-100228400D03*
G04 #@! TO.N,/P05*
X149555200Y-99644200D03*
G04 #@! TO.N,/P08*
X151015700Y-100228400D03*
G04 #@! TO.N,/SWDIO*
X153022300Y-100076000D03*
X152260300Y-90830400D03*
G04 #@! TO.N,/SWDCLK*
X152209500Y-91948000D03*
X153682700Y-100076000D03*
G04 #@! TO.N,Net-(JP6-Pad2)*
X146000100Y-116687600D03*
G04 #@! TO.N,/P06*
X150037800Y-100228400D03*
X155054300Y-105918000D03*
G04 #@! TD*
D18*
G04 #@! TO.N,/P00*
X147739848Y-101625400D02*
X147739100Y-101625400D01*
X147936600Y-101822152D02*
X147739848Y-101625400D01*
X148800000Y-104292400D02*
X147936600Y-103429000D01*
X147936600Y-103429000D02*
X147936600Y-101822152D01*
X148800000Y-104292400D02*
X152031700Y-104292400D01*
D19*
G04 #@! TO.N,VDD*
X143700500Y-114528600D02*
X143700500Y-122910600D01*
D20*
X148900000Y-125343600D02*
X148906400Y-125350000D01*
X149800000Y-122950000D02*
X148900000Y-123850000D01*
D19*
X145224500Y-103098600D02*
X144386300Y-103936800D01*
D21*
X145478500Y-98755200D02*
X145580100Y-98653600D01*
D19*
X145224500Y-99009200D02*
X145224500Y-103098600D01*
D21*
X145453100Y-98780600D02*
X145453100Y-94564200D01*
X152463500Y-98907600D02*
X152666700Y-98704400D01*
X145453100Y-94564200D02*
X145478500Y-94538800D01*
X152666700Y-98196400D02*
X152666700Y-98704400D01*
D20*
X148900000Y-123850000D02*
X148900000Y-125343600D01*
D21*
X145580100Y-98653600D02*
X151549100Y-98653600D01*
D19*
X145478500Y-98755200D02*
X145224500Y-99009200D01*
D21*
X145453100Y-98780600D02*
X145478500Y-98755200D01*
X151803100Y-98907600D02*
X151549100Y-98653600D01*
X151803100Y-98907600D02*
X152463500Y-98907600D01*
X145478500Y-94538800D02*
X145478500Y-92151200D01*
D18*
G04 #@! TO.N,Net-(Y2-2)*
X146723100Y-103098600D02*
X145986500Y-103098600D01*
G04 #@! TO.N,Net-(Y2-1)*
X150279100Y-103098600D02*
X151015700Y-103098600D01*
G04 #@! TO.N,/P07*
X150736300Y-100711000D02*
X151472900Y-100711000D01*
X151472900Y-100711000D02*
X154927300Y-104165400D01*
X150533100Y-100507800D02*
X150736300Y-100711000D01*
X154927300Y-105130600D02*
X155054300Y-105257600D01*
X154927300Y-104165400D02*
X154927300Y-105130600D01*
X150533100Y-99644200D02*
X150533100Y-100507800D01*
G04 #@! TO.N,/P27*
X144670000Y-125918900D02*
X144670000Y-129750000D01*
X142151100Y-123400000D02*
X144670000Y-125918900D01*
X142151100Y-108483400D02*
X142151100Y-123400000D01*
G04 #@! TO.N,/P26*
X142151100Y-107696000D02*
X142405100Y-107696000D01*
X142455900Y-123155900D02*
X147210000Y-127910000D01*
X142659100Y-108661200D02*
X142455900Y-108864400D01*
X142659100Y-107950000D02*
X142659100Y-108661200D01*
X142455900Y-108864400D02*
X142455900Y-123155900D01*
X142405100Y-107696000D02*
X142659100Y-107950000D01*
X147210000Y-127910000D02*
X147210000Y-129750000D01*
G04 #@! TO.N,/P10*
X152158700Y-99898200D02*
X152158700Y-99745800D01*
X156121100Y-99415600D02*
X156121100Y-99288600D01*
X156121100Y-99999800D02*
X155562300Y-100558600D01*
X152819100Y-100558600D02*
X152158700Y-99898200D01*
X152819100Y-100558600D02*
X155562300Y-100558600D01*
X156121100Y-99288600D02*
X156121100Y-99999800D01*
G04 #@! TO.N,/P09*
X151498300Y-99669600D02*
X151498300Y-99872800D01*
X153454100Y-101828600D02*
X156121100Y-101828600D01*
X151498300Y-99872800D02*
X153454100Y-101828600D01*
G04 #@! TO.N,/~{RESET}*
X152781000Y-92316300D02*
X153047700Y-92583000D01*
X153047700Y-92583000D02*
X153047700Y-95427800D01*
X154647900Y-97028000D02*
X154647900Y-99745800D01*
X154343100Y-100050600D02*
X154647900Y-99745800D01*
X153047700Y-95427800D02*
X154647900Y-97028000D01*
X154343100Y-100076000D02*
X154343100Y-100050600D01*
G04 #@! TO.N,/P24*
X142989300Y-96037400D02*
X142684500Y-96342200D01*
X142074900Y-101066600D02*
X142074900Y-103174800D01*
X142379700Y-98653600D02*
X142379700Y-100761800D01*
X142989300Y-93116400D02*
X142989300Y-96037400D01*
X143294100Y-92811600D02*
X142989300Y-93116400D01*
X142684500Y-98348800D02*
X142379700Y-98653600D01*
X142379700Y-100761800D02*
X142074900Y-101066600D01*
X142684500Y-96342200D02*
X142684500Y-98348800D01*
X149161500Y-90906600D02*
X149860000Y-91605100D01*
X142074900Y-103174800D02*
X140881100Y-104368600D01*
X143929100Y-90906600D02*
X149161500Y-90906600D01*
X143294100Y-91541600D02*
X143294100Y-92811600D01*
X143294100Y-91541600D02*
X143929100Y-90906600D01*
G04 #@! TO.N,/P23*
X150495000Y-91198700D02*
X149898100Y-90601800D01*
X142074900Y-100634800D02*
X140881100Y-101828600D01*
X150495000Y-91401900D02*
X150495000Y-91198700D01*
X143802100Y-90601800D02*
X142989300Y-91414600D01*
X142074900Y-98526600D02*
X142379700Y-98221800D01*
X149898100Y-90601800D02*
X143802100Y-90601800D01*
X142379700Y-96215200D02*
X142684500Y-95910400D01*
X142684500Y-92989400D02*
X142989300Y-92684600D01*
X142074900Y-98526600D02*
X142074900Y-100634800D01*
X142379700Y-98221800D02*
X142379700Y-96215200D01*
X142684500Y-95910400D02*
X142684500Y-92989400D01*
X142989300Y-92684600D02*
X142989300Y-91414600D01*
G04 #@! TO.N,/P22*
X142684500Y-91287600D02*
X142684500Y-92456000D01*
X142379700Y-92760800D02*
X142379700Y-95783400D01*
X150304500Y-90297000D02*
X150837900Y-90830400D01*
X142074900Y-96088200D02*
X142074900Y-98094800D01*
X143675100Y-90297000D02*
X142684500Y-91287600D01*
X142379700Y-95783400D02*
X142074900Y-96088200D01*
X142684500Y-92456000D02*
X142379700Y-92760800D01*
X150787100Y-90779600D02*
X150837900Y-90830400D01*
X142074900Y-98094800D02*
X140881100Y-99288600D01*
X150304500Y-90297000D02*
X143675100Y-90297000D01*
G04 #@! TO.N,/P20*
X153276300Y-90297000D02*
X152971500Y-89992200D01*
X142074900Y-92608400D02*
X142074900Y-95554800D01*
X142074900Y-92608400D02*
X142379700Y-92303600D01*
X152971500Y-89992200D02*
X143421100Y-89992200D01*
X143421100Y-89992200D02*
X142379700Y-91033600D01*
X142074900Y-95554800D02*
X140881100Y-96748600D01*
X153276300Y-91871800D02*
X153276300Y-90297000D01*
X142379700Y-92303600D02*
X142379700Y-91033600D01*
G04 #@! TO.N,/P19*
X153758900Y-89839800D02*
X153606500Y-89687400D01*
X142074900Y-90906600D02*
X142074900Y-92176600D01*
X153758900Y-90144600D02*
X153758900Y-89839800D01*
X140881100Y-93370400D02*
X140881100Y-94208600D01*
X143294100Y-89687400D02*
X142074900Y-90906600D01*
X142074900Y-92176600D02*
X140881100Y-93370400D01*
X153606500Y-89687400D02*
X143294100Y-89687400D01*
G04 #@! TO.N,/P18*
X153733500Y-89382600D02*
X154241500Y-89890600D01*
X153733500Y-89382600D02*
X143167100Y-89382600D01*
X143167100Y-89382600D02*
X140881100Y-91668600D01*
X154241500Y-93345000D02*
X154241500Y-89890600D01*
X154241500Y-93345000D02*
X153835100Y-93751400D01*
G04 #@! TO.N,/P17*
X154546300Y-93726000D02*
X153835100Y-94437200D01*
X153860500Y-89077800D02*
X140931900Y-89077800D01*
X154546300Y-89763600D02*
X153860500Y-89077800D01*
X154546300Y-93726000D02*
X154546300Y-89763600D01*
X140931900Y-89077800D02*
X140881100Y-89128600D01*
G04 #@! TO.N,/P16*
X153835100Y-95097600D02*
X154139900Y-95097600D01*
X154851100Y-89636600D02*
X153987500Y-88773000D01*
X153987500Y-88773000D02*
X143065500Y-88773000D01*
X154851100Y-94386400D02*
X154851100Y-89636600D01*
X143065500Y-88773000D02*
X140881100Y-86588600D01*
X154139900Y-95097600D02*
X154851100Y-94386400D01*
G04 #@! TO.N,/P00*
X147231100Y-100279200D02*
X147231100Y-101117400D01*
X154343100Y-111506000D02*
X154343100Y-113614200D01*
X152742900Y-106959400D02*
X154038300Y-108254800D01*
X154343100Y-113614200D02*
X154647900Y-113919000D01*
X147739100Y-103098600D02*
X147815300Y-103098600D01*
X152742900Y-105003600D02*
X152742900Y-106959400D01*
X146824700Y-99872800D02*
X147231100Y-100279200D01*
X154038300Y-108254800D02*
X154038300Y-111201200D01*
X154647900Y-113919000D02*
X154647900Y-116027200D01*
X154647900Y-116027200D02*
X154952700Y-116332000D01*
X154952700Y-116332000D02*
X154952700Y-118440200D01*
X147231100Y-101117400D02*
X147739100Y-101625400D01*
X152031700Y-104292400D02*
X152742900Y-105003600D01*
X154952700Y-118440200D02*
X156121100Y-119608600D01*
X154038300Y-111201200D02*
X154343100Y-111506000D01*
G04 #@! TO.N,/P01*
X153047700Y-104876600D02*
X153047700Y-106832400D01*
X149263100Y-103860600D02*
X149390100Y-103987600D01*
X149263100Y-103098600D02*
X149263100Y-103860600D01*
X154343100Y-108127800D02*
X154343100Y-111074200D01*
X147535900Y-100990400D02*
X149263100Y-102717600D01*
X154952700Y-115900200D02*
X156121100Y-117068600D01*
X147535900Y-99847400D02*
X147535900Y-100990400D01*
X154647900Y-113487200D02*
X154952700Y-113792000D01*
X153047700Y-106832400D02*
X154343100Y-108127800D01*
X154343100Y-111074200D02*
X154647900Y-111379000D01*
X154647900Y-111379000D02*
X154647900Y-113487200D01*
X152158700Y-103987600D02*
X153047700Y-104876600D01*
X149390100Y-103987600D02*
X152158700Y-103987600D01*
X154952700Y-113792000D02*
X154952700Y-115900200D01*
X149263100Y-102717600D02*
X149263100Y-103098600D01*
G04 #@! TO.N,/P02*
X153352500Y-104749600D02*
X153352500Y-106705400D01*
X154647900Y-110947200D02*
X154952700Y-111252000D01*
X148094700Y-100228400D02*
X148094700Y-101117400D01*
X153352500Y-106705400D02*
X154647900Y-108000800D01*
X149212300Y-102235000D02*
X150837900Y-102235000D01*
X154952700Y-111252000D02*
X154952700Y-113360200D01*
X154952700Y-113360200D02*
X156121100Y-114528600D01*
X150837900Y-102235000D02*
X153352500Y-104749600D01*
X148094700Y-101117400D02*
X149212300Y-102235000D01*
X154647900Y-108000800D02*
X154647900Y-110947200D01*
G04 #@! TO.N,/P03*
X148586900Y-101177800D02*
X149339300Y-101930200D01*
X148586900Y-99660000D02*
X148586900Y-101177800D01*
X153657300Y-106578400D02*
X154952700Y-107873800D01*
X154952700Y-110820200D02*
X156121100Y-111988600D01*
X154952700Y-107873800D02*
X154952700Y-110820200D01*
X150964900Y-101930200D02*
X153657300Y-104622600D01*
X149339300Y-101930200D02*
X150964900Y-101930200D01*
X153657300Y-104622600D02*
X153657300Y-106578400D01*
G04 #@! TO.N,/P04*
X149072600Y-100228400D02*
X149072600Y-101231700D01*
X156121100Y-108610400D02*
X156121100Y-109448600D01*
X149072600Y-101231700D02*
X149466300Y-101625400D01*
X149466300Y-101625400D02*
X151091900Y-101625400D01*
X153962100Y-104495600D02*
X153962100Y-106451400D01*
X151091900Y-101625400D02*
X153962100Y-104495600D01*
X153962100Y-106451400D02*
X156121100Y-108610400D01*
G04 #@! TO.N,/P05*
X151218900Y-101320600D02*
X154266900Y-104368600D01*
X149720300Y-101320600D02*
X151218900Y-101320600D01*
X154851100Y-106908600D02*
X154266900Y-106324400D01*
X154266900Y-106324400D02*
X154266900Y-104368600D01*
X156121100Y-106908600D02*
X154851100Y-106908600D01*
X149555200Y-99644200D02*
X149555200Y-101155500D01*
X149555200Y-101155500D02*
X149720300Y-101320600D01*
G04 #@! TO.N,/P08*
X153327100Y-102133400D02*
X154495500Y-102133400D01*
X151193500Y-100406200D02*
X151599900Y-100406200D01*
X154495500Y-102133400D02*
X156121100Y-103759000D01*
X151015700Y-100228400D02*
X151193500Y-100406200D01*
X156121100Y-103759000D02*
X156121100Y-104368600D01*
X151599900Y-100406200D02*
X153327100Y-102133400D01*
G04 #@! TO.N,/SWDIO*
X151904700Y-92329000D02*
X151904700Y-92557600D01*
X152438100Y-93091000D02*
X152438100Y-95681800D01*
X153022300Y-100076000D02*
X153022300Y-100050600D01*
X151904700Y-92557600D02*
X152438100Y-93091000D01*
X154038300Y-97282000D02*
X154038300Y-99034600D01*
X152438100Y-95681800D02*
X154038300Y-97282000D01*
X151726900Y-91363800D02*
X152260300Y-90830400D01*
X151726900Y-92151200D02*
X151726900Y-91363800D01*
X153022300Y-100050600D02*
X154038300Y-99034600D01*
X151726900Y-92151200D02*
X151904700Y-92329000D01*
G04 #@! TO.N,/SWDCLK*
X152742900Y-92964000D02*
X152742900Y-95554800D01*
X153682700Y-100050600D02*
X154343100Y-99390200D01*
X152209500Y-91948000D02*
X152209500Y-92430600D01*
X152742900Y-95554800D02*
X154343100Y-97155000D01*
X153682700Y-100076000D02*
X153682700Y-100050600D01*
X152209500Y-92430600D02*
X152742900Y-92964000D01*
X154343100Y-97155000D02*
X154343100Y-99390200D01*
G04 #@! TO.N,Net-(JP6-Pad2)*
X146000100Y-116687600D02*
X146889100Y-115798600D01*
X146889100Y-115798600D02*
X147993100Y-115798600D01*
G04 #@! TO.N,/P06*
X154571700Y-105460800D02*
X155028900Y-105918000D01*
X154571700Y-105460800D02*
X154571700Y-104241600D01*
X154571700Y-104241600D02*
X151345900Y-101015800D01*
X150202900Y-101015800D02*
X151345900Y-101015800D01*
X155028900Y-105918000D02*
X155054300Y-105918000D01*
X150037800Y-100850700D02*
X150202900Y-101015800D01*
X150037800Y-100228400D02*
X150037800Y-100850700D01*
D20*
G04 #@! TO.N,Net-(J1-CTS)*
X147950000Y-126400000D02*
X147950000Y-125200000D01*
X152290000Y-128190000D02*
X151300000Y-127200000D01*
X152290000Y-129750000D02*
X152290000Y-128190000D01*
X148750000Y-127200000D02*
X147950000Y-126400000D01*
X151300000Y-127200000D02*
X148750000Y-127200000D01*
G04 #@! TD*
G04 #@! TA.AperFunction,Conductor*
G04 #@! TO.N,GND*
G36*
X152894910Y-90239606D02*
G01*
X153028894Y-90373590D01*
X153047200Y-90417784D01*
X153047200Y-91499569D01*
X153028894Y-91543763D01*
X152946484Y-91626172D01*
X152946481Y-91626175D01*
X152943008Y-91629649D01*
X152940780Y-91634021D01*
X152940776Y-91634027D01*
X152886723Y-91740112D01*
X152886721Y-91740116D01*
X152884491Y-91744494D01*
X152883722Y-91749344D01*
X152883721Y-91749350D01*
X152867040Y-91854675D01*
X152842047Y-91895461D01*
X152795535Y-91906629D01*
X152785860Y-91905097D01*
X152785855Y-91905097D01*
X152781000Y-91904328D01*
X152776145Y-91905097D01*
X152776143Y-91905097D01*
X152680357Y-91920267D01*
X152648182Y-91916884D01*
X152622009Y-91897868D01*
X152608850Y-91868313D01*
X152601309Y-91820694D01*
X152569681Y-91758621D01*
X152545023Y-91710227D01*
X152545022Y-91710225D01*
X152542792Y-91705849D01*
X152451651Y-91614708D01*
X152447275Y-91612478D01*
X152447272Y-91612476D01*
X152341187Y-91558423D01*
X152341185Y-91558422D01*
X152336806Y-91556191D01*
X152331953Y-91555422D01*
X152331949Y-91555421D01*
X152214355Y-91536797D01*
X152209500Y-91536028D01*
X152204645Y-91536797D01*
X152087050Y-91555421D01*
X152087044Y-91555422D01*
X152082194Y-91556191D01*
X152077815Y-91558421D01*
X152077809Y-91558424D01*
X152046874Y-91574187D01*
X152005506Y-91579633D01*
X151969928Y-91557832D01*
X151956000Y-91518499D01*
X151956000Y-91484584D01*
X151974306Y-91440390D01*
X152020735Y-91393961D01*
X152161835Y-91252859D01*
X152186714Y-91237614D01*
X152215805Y-91235325D01*
X152255440Y-91241603D01*
X152255445Y-91241603D01*
X152260300Y-91242372D01*
X152387606Y-91222209D01*
X152502451Y-91163692D01*
X152593592Y-91072551D01*
X152652109Y-90957706D01*
X152672272Y-90830400D01*
X152652109Y-90703094D01*
X152601878Y-90604511D01*
X152595823Y-90592627D01*
X152595822Y-90592625D01*
X152593592Y-90588249D01*
X152502451Y-90497108D01*
X152498075Y-90494878D01*
X152498072Y-90494876D01*
X152391987Y-90440823D01*
X152391985Y-90440822D01*
X152387606Y-90438591D01*
X152382753Y-90437822D01*
X152382749Y-90437821D01*
X152265155Y-90419197D01*
X152260300Y-90418428D01*
X152255445Y-90419197D01*
X152137850Y-90437821D01*
X152137844Y-90437822D01*
X152132994Y-90438591D01*
X152128616Y-90440821D01*
X152128612Y-90440823D01*
X152022527Y-90494876D01*
X152022521Y-90494880D01*
X152018149Y-90497108D01*
X152014675Y-90500581D01*
X152014672Y-90500584D01*
X151930484Y-90584772D01*
X151930481Y-90584775D01*
X151927008Y-90588249D01*
X151924780Y-90592621D01*
X151924776Y-90592627D01*
X151870723Y-90698712D01*
X151870721Y-90698716D01*
X151868491Y-90703094D01*
X151867722Y-90707944D01*
X151867721Y-90707950D01*
X151850166Y-90818793D01*
X151848328Y-90830400D01*
X151849097Y-90835255D01*
X151849097Y-90835257D01*
X151855374Y-90874894D01*
X151853084Y-90903984D01*
X151837837Y-90928864D01*
X151570300Y-91196401D01*
X151567928Y-91198652D01*
X151542295Y-91221732D01*
X151542288Y-91221740D01*
X151537414Y-91226130D01*
X151534744Y-91232125D01*
X151534741Y-91232130D01*
X151526938Y-91249655D01*
X151522262Y-91258266D01*
X151511816Y-91274353D01*
X151511813Y-91274358D01*
X151508239Y-91279864D01*
X151507211Y-91286346D01*
X151507211Y-91286349D01*
X151506626Y-91290045D01*
X151501995Y-91305679D01*
X151497800Y-91315103D01*
X151497800Y-91321673D01*
X151497800Y-91340856D01*
X151497030Y-91350633D01*
X151494030Y-91369569D01*
X151494030Y-91369572D01*
X151493003Y-91376058D01*
X151495671Y-91386017D01*
X151497800Y-91402188D01*
X151497800Y-92143581D01*
X151497714Y-92146852D01*
X151495909Y-92181276D01*
X151495909Y-92181280D01*
X151495566Y-92187839D01*
X151497920Y-92193973D01*
X151497921Y-92193975D01*
X151504791Y-92211874D01*
X151507576Y-92221274D01*
X151512931Y-92246465D01*
X151518990Y-92254805D01*
X151526771Y-92269134D01*
X151530468Y-92278764D01*
X151535112Y-92283408D01*
X151548674Y-92296970D01*
X151555043Y-92304427D01*
X151566317Y-92319944D01*
X151570178Y-92325258D01*
X151575863Y-92328540D01*
X151575864Y-92328541D01*
X151579102Y-92330410D01*
X151592048Y-92340344D01*
X151657294Y-92405590D01*
X151675600Y-92449784D01*
X151675600Y-92549981D01*
X151675514Y-92553252D01*
X151673709Y-92587676D01*
X151673709Y-92587680D01*
X151673366Y-92594239D01*
X151675720Y-92600373D01*
X151675721Y-92600375D01*
X151682591Y-92618274D01*
X151685376Y-92627674D01*
X151688492Y-92642335D01*
X151690731Y-92652865D01*
X151696790Y-92661205D01*
X151704571Y-92675534D01*
X151708268Y-92685164D01*
X151712912Y-92689808D01*
X151726474Y-92703370D01*
X151732843Y-92710827D01*
X151736230Y-92715489D01*
X151747978Y-92731658D01*
X151753663Y-92734940D01*
X151753664Y-92734941D01*
X151756902Y-92736810D01*
X151769848Y-92746744D01*
X152190694Y-93167590D01*
X152209000Y-93211784D01*
X152209000Y-95674181D01*
X152208914Y-95677452D01*
X152207109Y-95711876D01*
X152207109Y-95711880D01*
X152206766Y-95718439D01*
X152209120Y-95724573D01*
X152209121Y-95724575D01*
X152215991Y-95742474D01*
X152218776Y-95751874D01*
X152219785Y-95756623D01*
X152224131Y-95777065D01*
X152230190Y-95785405D01*
X152237971Y-95799734D01*
X152241668Y-95809364D01*
X152246312Y-95814007D01*
X152246312Y-95814008D01*
X152259874Y-95827570D01*
X152266243Y-95835027D01*
X152277517Y-95850544D01*
X152281378Y-95855858D01*
X152287063Y-95859140D01*
X152287064Y-95859141D01*
X152290302Y-95861010D01*
X152303248Y-95870944D01*
X153790894Y-97358590D01*
X153809200Y-97402784D01*
X153809200Y-98913816D01*
X153804442Y-98937734D01*
X153790894Y-98958010D01*
X153098837Y-99650064D01*
X153073958Y-99665311D01*
X153044869Y-99667601D01*
X153027159Y-99664797D01*
X153027156Y-99664797D01*
X153022300Y-99664028D01*
X153010693Y-99665866D01*
X152899850Y-99683421D01*
X152899844Y-99683422D01*
X152894994Y-99684191D01*
X152890616Y-99686421D01*
X152890612Y-99686423D01*
X152784527Y-99740476D01*
X152784521Y-99740480D01*
X152780149Y-99742708D01*
X152776675Y-99746181D01*
X152776672Y-99746184D01*
X152692484Y-99830372D01*
X152692481Y-99830375D01*
X152689008Y-99833849D01*
X152686778Y-99838224D01*
X152686776Y-99838228D01*
X152676210Y-99858966D01*
X152644439Y-99888334D01*
X152601208Y-99890032D01*
X152567232Y-99863247D01*
X152558791Y-99820814D01*
X152567817Y-99763829D01*
X152570672Y-99745800D01*
X152550509Y-99618494D01*
X152501215Y-99521750D01*
X152494223Y-99508027D01*
X152494222Y-99508025D01*
X152491992Y-99503649D01*
X152400851Y-99412508D01*
X152396475Y-99410278D01*
X152396472Y-99410276D01*
X152290387Y-99356223D01*
X152290385Y-99356222D01*
X152286006Y-99353991D01*
X152281153Y-99353222D01*
X152281149Y-99353221D01*
X152163555Y-99334597D01*
X152158700Y-99333828D01*
X152153845Y-99334597D01*
X152036250Y-99353221D01*
X152036244Y-99353222D01*
X152031394Y-99353991D01*
X152027016Y-99356221D01*
X152027012Y-99356223D01*
X151920929Y-99410276D01*
X151920927Y-99410276D01*
X151916549Y-99412508D01*
X151913074Y-99415982D01*
X151913067Y-99415988D01*
X151910789Y-99418266D01*
X151866596Y-99436568D01*
X151822405Y-99418262D01*
X151743927Y-99339784D01*
X151740451Y-99336308D01*
X151736075Y-99334078D01*
X151736072Y-99334076D01*
X151629987Y-99280023D01*
X151629985Y-99280022D01*
X151625606Y-99277791D01*
X151620753Y-99277022D01*
X151620749Y-99277021D01*
X151503155Y-99258397D01*
X151498300Y-99257628D01*
X151493445Y-99258397D01*
X151375850Y-99277021D01*
X151375844Y-99277022D01*
X151370994Y-99277791D01*
X151366616Y-99280021D01*
X151366612Y-99280023D01*
X151260527Y-99334076D01*
X151260521Y-99334080D01*
X151256149Y-99336308D01*
X151252675Y-99339781D01*
X151252672Y-99339784D01*
X151168484Y-99423972D01*
X151168481Y-99423975D01*
X151165008Y-99427449D01*
X151162780Y-99431821D01*
X151162776Y-99431827D01*
X151108723Y-99537912D01*
X151108721Y-99537916D01*
X151106491Y-99542294D01*
X151105722Y-99547144D01*
X151105721Y-99547150D01*
X151094562Y-99617610D01*
X151086328Y-99669600D01*
X151087097Y-99674455D01*
X151087097Y-99674456D01*
X151098541Y-99746714D01*
X151092499Y-99784864D01*
X151065187Y-99812177D01*
X151027038Y-99818222D01*
X151020563Y-99817197D01*
X151020556Y-99817197D01*
X151015700Y-99816428D01*
X151010845Y-99817197D01*
X151010840Y-99817197D01*
X151000236Y-99818876D01*
X150962086Y-99812832D01*
X150934773Y-99785518D01*
X150928732Y-99747367D01*
X150928836Y-99746714D01*
X150934690Y-99709752D01*
X150944303Y-99649060D01*
X150944303Y-99649055D01*
X150945072Y-99644200D01*
X150924909Y-99516894D01*
X150893281Y-99454821D01*
X150868623Y-99406427D01*
X150868622Y-99406425D01*
X150866392Y-99402049D01*
X150775251Y-99310908D01*
X150770875Y-99308678D01*
X150770872Y-99308676D01*
X150664787Y-99254623D01*
X150664785Y-99254622D01*
X150660406Y-99252391D01*
X150655553Y-99251622D01*
X150655549Y-99251621D01*
X150537955Y-99232997D01*
X150533100Y-99232228D01*
X150528245Y-99232997D01*
X150410650Y-99251621D01*
X150410644Y-99251622D01*
X150405794Y-99252391D01*
X150401416Y-99254621D01*
X150401412Y-99254623D01*
X150295327Y-99308676D01*
X150295321Y-99308680D01*
X150290949Y-99310908D01*
X150287475Y-99314381D01*
X150287472Y-99314384D01*
X150203284Y-99398572D01*
X150203281Y-99398575D01*
X150199808Y-99402049D01*
X150197580Y-99406421D01*
X150197576Y-99406427D01*
X150143523Y-99512512D01*
X150143521Y-99512516D01*
X150141291Y-99516894D01*
X150140522Y-99521744D01*
X150140521Y-99521750D01*
X150131837Y-99576582D01*
X150121128Y-99644200D01*
X150121897Y-99649055D01*
X150121897Y-99649056D01*
X150137794Y-99749431D01*
X150131751Y-99787582D01*
X150104438Y-99814896D01*
X150066287Y-99820939D01*
X150042657Y-99817197D01*
X150042655Y-99817197D01*
X150037800Y-99816428D01*
X150032945Y-99817197D01*
X150032940Y-99817197D01*
X150022336Y-99818876D01*
X149984186Y-99812832D01*
X149956873Y-99785518D01*
X149950832Y-99747367D01*
X149950936Y-99746714D01*
X149956790Y-99709752D01*
X149966403Y-99649060D01*
X149966403Y-99649055D01*
X149967172Y-99644200D01*
X149947009Y-99516894D01*
X149915381Y-99454821D01*
X149890723Y-99406427D01*
X149890722Y-99406425D01*
X149888492Y-99402049D01*
X149797351Y-99310908D01*
X149792975Y-99308678D01*
X149792972Y-99308676D01*
X149686887Y-99254623D01*
X149686885Y-99254622D01*
X149682506Y-99252391D01*
X149677653Y-99251622D01*
X149677649Y-99251621D01*
X149560055Y-99232997D01*
X149555200Y-99232228D01*
X149550345Y-99232997D01*
X149432750Y-99251621D01*
X149432744Y-99251622D01*
X149427894Y-99252391D01*
X149423516Y-99254621D01*
X149423512Y-99254623D01*
X149317427Y-99308676D01*
X149317421Y-99308680D01*
X149313049Y-99310908D01*
X149309575Y-99314381D01*
X149309572Y-99314384D01*
X149225384Y-99398572D01*
X149225381Y-99398575D01*
X149221908Y-99402049D01*
X149219680Y-99406421D01*
X149219676Y-99406427D01*
X149165623Y-99512512D01*
X149165621Y-99512516D01*
X149163391Y-99516894D01*
X149162622Y-99521744D01*
X149162621Y-99521750D01*
X149153937Y-99576582D01*
X149143228Y-99644200D01*
X149156017Y-99724950D01*
X149159568Y-99747368D01*
X149153525Y-99785519D01*
X149126213Y-99812832D01*
X149088062Y-99818876D01*
X149077459Y-99817197D01*
X149077455Y-99817197D01*
X149072600Y-99816428D01*
X149067744Y-99817197D01*
X149067740Y-99817197D01*
X149056524Y-99818973D01*
X149018374Y-99812929D01*
X148991062Y-99785616D01*
X148985019Y-99747465D01*
X148985773Y-99742708D01*
X148998872Y-99660000D01*
X148978709Y-99532694D01*
X148927314Y-99431827D01*
X148922423Y-99422227D01*
X148922422Y-99422225D01*
X148920192Y-99417849D01*
X148829051Y-99326708D01*
X148824675Y-99324478D01*
X148824672Y-99324476D01*
X148718587Y-99270423D01*
X148718585Y-99270422D01*
X148714206Y-99268191D01*
X148709353Y-99267422D01*
X148709349Y-99267421D01*
X148591755Y-99248797D01*
X148586900Y-99248028D01*
X148582045Y-99248797D01*
X148464450Y-99267421D01*
X148464444Y-99267422D01*
X148459594Y-99268191D01*
X148455216Y-99270421D01*
X148455212Y-99270423D01*
X148349127Y-99324476D01*
X148349121Y-99324480D01*
X148344749Y-99326708D01*
X148341275Y-99330181D01*
X148341272Y-99330184D01*
X148257084Y-99414372D01*
X148257081Y-99414375D01*
X148253608Y-99417849D01*
X148251380Y-99422221D01*
X148251376Y-99422227D01*
X148197323Y-99528312D01*
X148197321Y-99528316D01*
X148195091Y-99532694D01*
X148194322Y-99537544D01*
X148194321Y-99537550D01*
X148182906Y-99609627D01*
X148174928Y-99660000D01*
X148176921Y-99672583D01*
X148188948Y-99748521D01*
X148182905Y-99786672D01*
X148155592Y-99813985D01*
X148117442Y-99820029D01*
X148099558Y-99817197D01*
X148099555Y-99817197D01*
X148094700Y-99816428D01*
X148089845Y-99817197D01*
X148089843Y-99817197D01*
X148008409Y-99830094D01*
X147961896Y-99818926D01*
X147936902Y-99778140D01*
X147934635Y-99763829D01*
X147927709Y-99720094D01*
X147891513Y-99649056D01*
X147871423Y-99609627D01*
X147871422Y-99609625D01*
X147869192Y-99605249D01*
X147778051Y-99514108D01*
X147773675Y-99511878D01*
X147773672Y-99511876D01*
X147667587Y-99457823D01*
X147667585Y-99457822D01*
X147663206Y-99455591D01*
X147658353Y-99454822D01*
X147658349Y-99454821D01*
X147540755Y-99436197D01*
X147535900Y-99435428D01*
X147531045Y-99436197D01*
X147413450Y-99454821D01*
X147413444Y-99454822D01*
X147408594Y-99455591D01*
X147404216Y-99457821D01*
X147404212Y-99457823D01*
X147298127Y-99511876D01*
X147298121Y-99511880D01*
X147293749Y-99514108D01*
X147290275Y-99517581D01*
X147290272Y-99517584D01*
X147211794Y-99596063D01*
X147167600Y-99614369D01*
X147123406Y-99596063D01*
X147070327Y-99542984D01*
X147066851Y-99539508D01*
X147062475Y-99537278D01*
X147062472Y-99537276D01*
X146956387Y-99483223D01*
X146956385Y-99483222D01*
X146952006Y-99480991D01*
X146947153Y-99480222D01*
X146947149Y-99480221D01*
X146837655Y-99462879D01*
X146824700Y-99460828D01*
X146813093Y-99462666D01*
X146702250Y-99480221D01*
X146702244Y-99480222D01*
X146697394Y-99480991D01*
X146693016Y-99483221D01*
X146693012Y-99483223D01*
X146586927Y-99537276D01*
X146586921Y-99537280D01*
X146582549Y-99539508D01*
X146579075Y-99542981D01*
X146579072Y-99542984D01*
X146494884Y-99627172D01*
X146494881Y-99627175D01*
X146491408Y-99630649D01*
X146489180Y-99635021D01*
X146489176Y-99635027D01*
X146435123Y-99741112D01*
X146435121Y-99741116D01*
X146432891Y-99745494D01*
X146432122Y-99750344D01*
X146432121Y-99750350D01*
X146415530Y-99855108D01*
X146412728Y-99872800D01*
X146413497Y-99877655D01*
X146432121Y-99995249D01*
X146432122Y-99995253D01*
X146432891Y-100000106D01*
X146435122Y-100004485D01*
X146435123Y-100004487D01*
X146489176Y-100110572D01*
X146489178Y-100110575D01*
X146491408Y-100114951D01*
X146582549Y-100206092D01*
X146586925Y-100208322D01*
X146586927Y-100208323D01*
X146643458Y-100237127D01*
X146697394Y-100264609D01*
X146824700Y-100284772D01*
X146869196Y-100277724D01*
X146898283Y-100280013D01*
X146923164Y-100295260D01*
X146983694Y-100355790D01*
X147002000Y-100399984D01*
X147002000Y-101109781D01*
X147001914Y-101113052D01*
X147000109Y-101147476D01*
X147000109Y-101147480D01*
X146999766Y-101154039D01*
X147002120Y-101160173D01*
X147002121Y-101160175D01*
X147008991Y-101178074D01*
X147011776Y-101187474D01*
X147017131Y-101212665D01*
X147023190Y-101221005D01*
X147030971Y-101235334D01*
X147034668Y-101244964D01*
X147039312Y-101249607D01*
X147039312Y-101249608D01*
X147052874Y-101263170D01*
X147059243Y-101270627D01*
X147074378Y-101291458D01*
X147080063Y-101294740D01*
X147080064Y-101294741D01*
X147083302Y-101296610D01*
X147096248Y-101306544D01*
X147571701Y-101781997D01*
X147573953Y-101784370D01*
X147601430Y-101814886D01*
X147606850Y-101817299D01*
X147613025Y-101822573D01*
X147689194Y-101898742D01*
X147707500Y-101942936D01*
X147707500Y-102249601D01*
X147689194Y-102293795D01*
X147645000Y-102312101D01*
X147375444Y-102312101D01*
X147372434Y-102312699D01*
X147372430Y-102312700D01*
X147336879Y-102319771D01*
X147336877Y-102319771D01*
X147330842Y-102320972D01*
X147325726Y-102324389D01*
X147325724Y-102324391D01*
X147285383Y-102351346D01*
X147285380Y-102351348D01*
X147280266Y-102354766D01*
X147276848Y-102359880D01*
X147276846Y-102359883D01*
X147251967Y-102397118D01*
X147220090Y-102421578D01*
X147179910Y-102421578D01*
X147148033Y-102397118D01*
X147123153Y-102359883D01*
X147119734Y-102354766D01*
X147074275Y-102324391D01*
X147074274Y-102324390D01*
X147074272Y-102324389D01*
X147069158Y-102320972D01*
X147063125Y-102319772D01*
X147063123Y-102319771D01*
X147027567Y-102312698D01*
X147027559Y-102312697D01*
X147024557Y-102312100D01*
X147021487Y-102312100D01*
X146362515Y-102312100D01*
X146362504Y-102312100D01*
X146359444Y-102312101D01*
X146356434Y-102312699D01*
X146356430Y-102312700D01*
X146320879Y-102319771D01*
X146320877Y-102319771D01*
X146314842Y-102320972D01*
X146309726Y-102324389D01*
X146309724Y-102324391D01*
X146269383Y-102351346D01*
X146269380Y-102351348D01*
X146264266Y-102354766D01*
X146260848Y-102359880D01*
X146260846Y-102359883D01*
X146233890Y-102400225D01*
X146233888Y-102400229D01*
X146230472Y-102405342D01*
X146229272Y-102411372D01*
X146229271Y-102411376D01*
X146222198Y-102446932D01*
X146222197Y-102446941D01*
X146221600Y-102449943D01*
X146221600Y-102453013D01*
X146221600Y-102659724D01*
X146207672Y-102699056D01*
X146172095Y-102720858D01*
X146130726Y-102715412D01*
X146118190Y-102709025D01*
X146118191Y-102709025D01*
X146113806Y-102706791D01*
X146108949Y-102706021D01*
X146108947Y-102706021D01*
X145991355Y-102687397D01*
X145986500Y-102686628D01*
X145981645Y-102687397D01*
X145864050Y-102706021D01*
X145864044Y-102706022D01*
X145859194Y-102706791D01*
X145854816Y-102709021D01*
X145854812Y-102709023D01*
X145748727Y-102763076D01*
X145748721Y-102763080D01*
X145744349Y-102765308D01*
X145740875Y-102768781D01*
X145740872Y-102768784D01*
X145687294Y-102822363D01*
X145643100Y-102840669D01*
X145598906Y-102822363D01*
X145580600Y-102778169D01*
X145580600Y-99210610D01*
X145589810Y-99177954D01*
X145614726Y-99154922D01*
X145637857Y-99143136D01*
X145695251Y-99113892D01*
X145786392Y-99022751D01*
X145819370Y-98958028D01*
X145820951Y-98954926D01*
X145843983Y-98930010D01*
X145876639Y-98920800D01*
X151412534Y-98920800D01*
X151456728Y-98939106D01*
X151591194Y-99073571D01*
X151598967Y-99083042D01*
X151610459Y-99100241D01*
X151674657Y-99143136D01*
X151698843Y-99159297D01*
X151803100Y-99180035D01*
X151823380Y-99176000D01*
X151835573Y-99174800D01*
X152431022Y-99174800D01*
X152443215Y-99176000D01*
X152463500Y-99180036D01*
X152473967Y-99177954D01*
X152483784Y-99176001D01*
X152567757Y-99159297D01*
X152633829Y-99115149D01*
X152633831Y-99115146D01*
X152656141Y-99100241D01*
X152667633Y-99083040D01*
X152675397Y-99073579D01*
X152832676Y-98916299D01*
X152842137Y-98908535D01*
X152859341Y-98897041D01*
X152908192Y-98823929D01*
X152918397Y-98808657D01*
X152939135Y-98704400D01*
X152935100Y-98684119D01*
X152933900Y-98671927D01*
X152933900Y-98530531D01*
X152952206Y-98486337D01*
X152972465Y-98466078D01*
X152999992Y-98438551D01*
X153058509Y-98323706D01*
X153078672Y-98196400D01*
X153058509Y-98069094D01*
X152999992Y-97954249D01*
X152908851Y-97863108D01*
X152904475Y-97860878D01*
X152904472Y-97860876D01*
X152798387Y-97806823D01*
X152798385Y-97806822D01*
X152794006Y-97804591D01*
X152789153Y-97803822D01*
X152789149Y-97803821D01*
X152671555Y-97785197D01*
X152666700Y-97784428D01*
X152661845Y-97785197D01*
X152544250Y-97803821D01*
X152544244Y-97803822D01*
X152539394Y-97804591D01*
X152535016Y-97806821D01*
X152535012Y-97806823D01*
X152428927Y-97860876D01*
X152428921Y-97860880D01*
X152424549Y-97863108D01*
X152421075Y-97866581D01*
X152421072Y-97866584D01*
X152336884Y-97950772D01*
X152336881Y-97950775D01*
X152333408Y-97954249D01*
X152331180Y-97958621D01*
X152331176Y-97958627D01*
X152277123Y-98064712D01*
X152277121Y-98064716D01*
X152274891Y-98069094D01*
X152274122Y-98073944D01*
X152274121Y-98073950D01*
X152259337Y-98167300D01*
X152254728Y-98196400D01*
X152255497Y-98201255D01*
X152274121Y-98318849D01*
X152274122Y-98318853D01*
X152274891Y-98323706D01*
X152277122Y-98328085D01*
X152277123Y-98328087D01*
X152331176Y-98434172D01*
X152331178Y-98434175D01*
X152333408Y-98438551D01*
X152336884Y-98442026D01*
X152336884Y-98442027D01*
X152381194Y-98486337D01*
X152399500Y-98530531D01*
X152399500Y-98567834D01*
X152394742Y-98591753D01*
X152381192Y-98612030D01*
X152371125Y-98622096D01*
X152326933Y-98640400D01*
X151939665Y-98640400D01*
X151915747Y-98635642D01*
X151895471Y-98622094D01*
X151761001Y-98487623D01*
X151753228Y-98478151D01*
X151745161Y-98466078D01*
X151741741Y-98460959D01*
X151731809Y-98454323D01*
X151697405Y-98431335D01*
X151658473Y-98405321D01*
X151658471Y-98405320D01*
X151653357Y-98401903D01*
X151647322Y-98400702D01*
X151647321Y-98400702D01*
X151555138Y-98382365D01*
X151549100Y-98381164D01*
X151533481Y-98384271D01*
X151528816Y-98385199D01*
X151516622Y-98386400D01*
X145782800Y-98386400D01*
X145738606Y-98368094D01*
X145720300Y-98323900D01*
X145720300Y-94676245D01*
X145725057Y-94652328D01*
X145726776Y-94648175D01*
X145730197Y-94643057D01*
X145750935Y-94538800D01*
X145746900Y-94518519D01*
X145745700Y-94506327D01*
X145745700Y-92485331D01*
X145764006Y-92441137D01*
X145781247Y-92423896D01*
X145811792Y-92393351D01*
X145870309Y-92278506D01*
X145890472Y-92151200D01*
X145870309Y-92023894D01*
X145836012Y-91956582D01*
X145814023Y-91913427D01*
X145814022Y-91913425D01*
X145811792Y-91909049D01*
X145720651Y-91817908D01*
X145716275Y-91815678D01*
X145716272Y-91815676D01*
X145610187Y-91761623D01*
X145610185Y-91761622D01*
X145605806Y-91759391D01*
X145600953Y-91758622D01*
X145600949Y-91758621D01*
X145483355Y-91739997D01*
X145478500Y-91739228D01*
X145473645Y-91739997D01*
X145356050Y-91758621D01*
X145356044Y-91758622D01*
X145351194Y-91759391D01*
X145346816Y-91761621D01*
X145346812Y-91761623D01*
X145240727Y-91815676D01*
X145240721Y-91815680D01*
X145236349Y-91817908D01*
X145232875Y-91821381D01*
X145232872Y-91821384D01*
X145148684Y-91905572D01*
X145148681Y-91905575D01*
X145145208Y-91909049D01*
X145142980Y-91913421D01*
X145142976Y-91913427D01*
X145088923Y-92019512D01*
X145088921Y-92019516D01*
X145086691Y-92023894D01*
X145085922Y-92028744D01*
X145085921Y-92028750D01*
X145071877Y-92117427D01*
X145066528Y-92151200D01*
X145067297Y-92156055D01*
X145085921Y-92273649D01*
X145085922Y-92273653D01*
X145086691Y-92278506D01*
X145088922Y-92282885D01*
X145088923Y-92282887D01*
X145142976Y-92388972D01*
X145142978Y-92388975D01*
X145145208Y-92393351D01*
X145148684Y-92396826D01*
X145148684Y-92396827D01*
X145192994Y-92441137D01*
X145211300Y-92485331D01*
X145211300Y-94426755D01*
X145206542Y-94450673D01*
X145204820Y-94454828D01*
X145201403Y-94459943D01*
X145200203Y-94465973D01*
X145200202Y-94465977D01*
X145183183Y-94551537D01*
X145180664Y-94564200D01*
X145181865Y-94570237D01*
X145184699Y-94584484D01*
X145185900Y-94596678D01*
X145185900Y-98446469D01*
X145167594Y-98490663D01*
X145123284Y-98534972D01*
X145123281Y-98534975D01*
X145119808Y-98538449D01*
X145117580Y-98542821D01*
X145117576Y-98542827D01*
X145082316Y-98612030D01*
X145061291Y-98653294D01*
X145060521Y-98658151D01*
X145059659Y-98660806D01*
X145044412Y-98685685D01*
X145003399Y-98726698D01*
X144993393Y-98734824D01*
X144984322Y-98740750D01*
X144984313Y-98740758D01*
X144979985Y-98743586D01*
X144976808Y-98747666D01*
X144976803Y-98747672D01*
X144959442Y-98769978D01*
X144954325Y-98775773D01*
X144953663Y-98776434D01*
X144953653Y-98776444D01*
X144951834Y-98778265D01*
X144950341Y-98780355D01*
X144950329Y-98780370D01*
X144939713Y-98795239D01*
X144938172Y-98797306D01*
X144910167Y-98833287D01*
X144910163Y-98833292D01*
X144906989Y-98837372D01*
X144905309Y-98842262D01*
X144904557Y-98843653D01*
X144904285Y-98844088D01*
X144904054Y-98844537D01*
X144903863Y-98844999D01*
X144903163Y-98846430D01*
X144900159Y-98850639D01*
X144898685Y-98855589D01*
X144898680Y-98855600D01*
X144885665Y-98899316D01*
X144884878Y-98901773D01*
X144870080Y-98944879D01*
X144870078Y-98944887D01*
X144868400Y-98949777D01*
X144868400Y-98954949D01*
X144868141Y-98956502D01*
X144868026Y-98956997D01*
X144867952Y-98957510D01*
X144867920Y-98958028D01*
X144867726Y-98959577D01*
X144866248Y-98964544D01*
X144866462Y-98969718D01*
X144866462Y-98969719D01*
X144868347Y-99015286D01*
X144868400Y-99017869D01*
X144868400Y-102925211D01*
X144863642Y-102949129D01*
X144850094Y-102969405D01*
X144291385Y-103528112D01*
X144266506Y-103543359D01*
X144263851Y-103544221D01*
X144258994Y-103544991D01*
X144254612Y-103547223D01*
X144254611Y-103547224D01*
X144148527Y-103601276D01*
X144148521Y-103601280D01*
X144144149Y-103603508D01*
X144140675Y-103606981D01*
X144140672Y-103606984D01*
X144056484Y-103691172D01*
X144056481Y-103691175D01*
X144053008Y-103694649D01*
X144050780Y-103699021D01*
X144050776Y-103699027D01*
X143996723Y-103805112D01*
X143996721Y-103805116D01*
X143994491Y-103809494D01*
X143993722Y-103814344D01*
X143993721Y-103814350D01*
X143979203Y-103906021D01*
X143974328Y-103936800D01*
X143975097Y-103941655D01*
X143993721Y-104059249D01*
X143993722Y-104059253D01*
X143994491Y-104064106D01*
X143996722Y-104068485D01*
X143996723Y-104068487D01*
X144050776Y-104174572D01*
X144050778Y-104174575D01*
X144053008Y-104178951D01*
X144144149Y-104270092D01*
X144148525Y-104272322D01*
X144148527Y-104272323D01*
X144205494Y-104301349D01*
X144258994Y-104328609D01*
X144386300Y-104348772D01*
X144513606Y-104328609D01*
X144628451Y-104270092D01*
X144719592Y-104178951D01*
X144778109Y-104064106D01*
X144778878Y-104059244D01*
X144779740Y-104056594D01*
X144794986Y-104031713D01*
X145445605Y-103381094D01*
X145455603Y-103372975D01*
X145469015Y-103364214D01*
X145489560Y-103337815D01*
X145494683Y-103332017D01*
X145497166Y-103329535D01*
X145509311Y-103312523D01*
X145510821Y-103310500D01*
X145527180Y-103289483D01*
X145561660Y-103267159D01*
X145602549Y-103271059D01*
X145632188Y-103299498D01*
X145648751Y-103332004D01*
X145653208Y-103340751D01*
X145744349Y-103431892D01*
X145748725Y-103434122D01*
X145748727Y-103434123D01*
X145751693Y-103435634D01*
X145859194Y-103490409D01*
X145986500Y-103510572D01*
X146113806Y-103490409D01*
X146130723Y-103481788D01*
X146172092Y-103476340D01*
X146207671Y-103498141D01*
X146221600Y-103537475D01*
X146221600Y-103746984D01*
X146221600Y-103746994D01*
X146221601Y-103750056D01*
X146222199Y-103753066D01*
X146222200Y-103753069D01*
X146227555Y-103779993D01*
X146230472Y-103794658D01*
X146233890Y-103799774D01*
X146233891Y-103799775D01*
X146250595Y-103824775D01*
X146264266Y-103845234D01*
X146314842Y-103879028D01*
X146359443Y-103887900D01*
X147024556Y-103887899D01*
X147069158Y-103879028D01*
X147119734Y-103845234D01*
X147148034Y-103802880D01*
X147179910Y-103778421D01*
X147220090Y-103778421D01*
X147251965Y-103802880D01*
X147280266Y-103845234D01*
X147330842Y-103879028D01*
X147375443Y-103887900D01*
X148040556Y-103887899D01*
X148040556Y-103887935D01*
X148066212Y-103891097D01*
X148089354Y-103905751D01*
X148632610Y-104449007D01*
X148634862Y-104451380D01*
X148662330Y-104481886D01*
X148668330Y-104484557D01*
X148668331Y-104484558D01*
X148685847Y-104492357D01*
X148694464Y-104497034D01*
X148716064Y-104511061D01*
X148726236Y-104512672D01*
X148741885Y-104517306D01*
X148751303Y-104521500D01*
X148777056Y-104521500D01*
X148786833Y-104522270D01*
X148812258Y-104526297D01*
X148822217Y-104523628D01*
X148838388Y-104521500D01*
X149623803Y-104521500D01*
X149663731Y-104535917D01*
X149685239Y-104572516D01*
X149678404Y-104614413D01*
X149646381Y-104642279D01*
X149583552Y-104666618D01*
X149583532Y-104666627D01*
X149580855Y-104667665D01*
X149578408Y-104669179D01*
X149578402Y-104669183D01*
X149411133Y-104772751D01*
X149411124Y-104772757D01*
X149408680Y-104774271D01*
X149406553Y-104776209D01*
X149406545Y-104776216D01*
X149261160Y-104908753D01*
X149261156Y-104908756D01*
X149259026Y-104910699D01*
X149257286Y-104913002D01*
X149257286Y-104913003D01*
X149138731Y-105069993D01*
X149138724Y-105070003D01*
X149136988Y-105072303D01*
X149135700Y-105074888D01*
X149135699Y-105074891D01*
X149048007Y-105251000D01*
X149048004Y-105251006D01*
X149046723Y-105253580D01*
X149045936Y-105256343D01*
X149045933Y-105256353D01*
X148992095Y-105445576D01*
X148991304Y-105448357D01*
X148991037Y-105451233D01*
X148991037Y-105451236D01*
X148982478Y-105543606D01*
X148972619Y-105650000D01*
X148991304Y-105851643D01*
X148992095Y-105854423D01*
X149045933Y-106043646D01*
X149045935Y-106043653D01*
X149046723Y-106046420D01*
X149136988Y-106227697D01*
X149138727Y-106230001D01*
X149138731Y-106230006D01*
X149193328Y-106302303D01*
X149259026Y-106389301D01*
X149342802Y-106465673D01*
X149390389Y-106509055D01*
X149408680Y-106525729D01*
X149580855Y-106632335D01*
X149769687Y-106705489D01*
X149968746Y-106742700D01*
X150168370Y-106742700D01*
X150171254Y-106742700D01*
X150370313Y-106705489D01*
X150559145Y-106632335D01*
X150731320Y-106525729D01*
X150880974Y-106389301D01*
X151003012Y-106227697D01*
X151093277Y-106046420D01*
X151148696Y-105851643D01*
X151167381Y-105650000D01*
X151148696Y-105448357D01*
X151093277Y-105253580D01*
X151003012Y-105072303D01*
X150880974Y-104910699D01*
X150815096Y-104850643D01*
X150733454Y-104776216D01*
X150733451Y-104776214D01*
X150731320Y-104774271D01*
X150728870Y-104772754D01*
X150728866Y-104772751D01*
X150561597Y-104669183D01*
X150561595Y-104669182D01*
X150559145Y-104667665D01*
X150556463Y-104666626D01*
X150556447Y-104666618D01*
X150493619Y-104642279D01*
X150461596Y-104614413D01*
X150454761Y-104572516D01*
X150476269Y-104535917D01*
X150516197Y-104521500D01*
X151910916Y-104521500D01*
X151934834Y-104526258D01*
X151955110Y-104539806D01*
X152495494Y-105080191D01*
X152513800Y-105124385D01*
X152513800Y-106951781D01*
X152513714Y-106955052D01*
X152511909Y-106989476D01*
X152511909Y-106989480D01*
X152511566Y-106996039D01*
X152513920Y-107002173D01*
X152513921Y-107002175D01*
X152520791Y-107020074D01*
X152523576Y-107029474D01*
X152528931Y-107054665D01*
X152534990Y-107063005D01*
X152542771Y-107077334D01*
X152546468Y-107086964D01*
X152551112Y-107091608D01*
X152564674Y-107105170D01*
X152571043Y-107112627D01*
X152586178Y-107133458D01*
X152591863Y-107136740D01*
X152591864Y-107136741D01*
X152595102Y-107138610D01*
X152608048Y-107148544D01*
X153790894Y-108331390D01*
X153809200Y-108375584D01*
X153809200Y-111193581D01*
X153809114Y-111196852D01*
X153807309Y-111231276D01*
X153807309Y-111231280D01*
X153806966Y-111237839D01*
X153809320Y-111243973D01*
X153809321Y-111243975D01*
X153816191Y-111261874D01*
X153818976Y-111271274D01*
X153824331Y-111296465D01*
X153830390Y-111304805D01*
X153838171Y-111319134D01*
X153841868Y-111328764D01*
X153846512Y-111333408D01*
X153860074Y-111346970D01*
X153866443Y-111354427D01*
X153881578Y-111375258D01*
X153890122Y-111380191D01*
X153890502Y-111380410D01*
X153903448Y-111390344D01*
X154095694Y-111582590D01*
X154114000Y-111626784D01*
X154114000Y-113606581D01*
X154113914Y-113609852D01*
X154112109Y-113644276D01*
X154112109Y-113644280D01*
X154111766Y-113650839D01*
X154114120Y-113656973D01*
X154114121Y-113656975D01*
X154120991Y-113674874D01*
X154123776Y-113684274D01*
X154129131Y-113709465D01*
X154135190Y-113717805D01*
X154142971Y-113732134D01*
X154146668Y-113741764D01*
X154151312Y-113746408D01*
X154164874Y-113759970D01*
X154171243Y-113767427D01*
X154186378Y-113788258D01*
X154192063Y-113791540D01*
X154192064Y-113791541D01*
X154195302Y-113793410D01*
X154208248Y-113803344D01*
X154400494Y-113995590D01*
X154418800Y-114039784D01*
X154418800Y-116019581D01*
X154418714Y-116022852D01*
X154416909Y-116057276D01*
X154416909Y-116057280D01*
X154416566Y-116063839D01*
X154418920Y-116069973D01*
X154418921Y-116069975D01*
X154425791Y-116087874D01*
X154428576Y-116097274D01*
X154433931Y-116122465D01*
X154439990Y-116130805D01*
X154447771Y-116145134D01*
X154451468Y-116154764D01*
X154456112Y-116159408D01*
X154469674Y-116172970D01*
X154476043Y-116180427D01*
X154491178Y-116201258D01*
X154496863Y-116204540D01*
X154496864Y-116204541D01*
X154500102Y-116206410D01*
X154513048Y-116216344D01*
X154705294Y-116408590D01*
X154723600Y-116452784D01*
X154723600Y-118432581D01*
X154723514Y-118435852D01*
X154721709Y-118470276D01*
X154721709Y-118470280D01*
X154721366Y-118476839D01*
X154723720Y-118482973D01*
X154723721Y-118482975D01*
X154730591Y-118500874D01*
X154733376Y-118510274D01*
X154736402Y-118524511D01*
X154738731Y-118535465D01*
X154744790Y-118543805D01*
X154752571Y-118558134D01*
X154756268Y-118567764D01*
X154760912Y-118572408D01*
X154774474Y-118585970D01*
X154780843Y-118593427D01*
X154795978Y-118614258D01*
X154804508Y-118619183D01*
X154804902Y-118619410D01*
X154817848Y-118629344D01*
X155183135Y-118994631D01*
X155200626Y-119028763D01*
X155194888Y-119066683D01*
X155126723Y-119203580D01*
X155125932Y-119206357D01*
X155125931Y-119206362D01*
X155072095Y-119395576D01*
X155071304Y-119398357D01*
X155052619Y-119600000D01*
X155071304Y-119801643D01*
X155072095Y-119804423D01*
X155125933Y-119993646D01*
X155125935Y-119993653D01*
X155126723Y-119996420D01*
X155216988Y-120177697D01*
X155218727Y-120180001D01*
X155218731Y-120180006D01*
X155228362Y-120192759D01*
X155339026Y-120339301D01*
X155488680Y-120475729D01*
X155660855Y-120582335D01*
X155849687Y-120655489D01*
X156048746Y-120692700D01*
X156248370Y-120692700D01*
X156251254Y-120692700D01*
X156450313Y-120655489D01*
X156639145Y-120582335D01*
X156811320Y-120475729D01*
X156960974Y-120339301D01*
X157083012Y-120177697D01*
X157170551Y-120001893D01*
X157199941Y-119973176D01*
X157240809Y-119968912D01*
X157275493Y-119990945D01*
X157289000Y-120029752D01*
X157289000Y-121710248D01*
X157275493Y-121749055D01*
X157240809Y-121771088D01*
X157199941Y-121766824D01*
X157170552Y-121738107D01*
X157148920Y-121694664D01*
X157083012Y-121562303D01*
X156960974Y-121400699D01*
X156811320Y-121264271D01*
X156808870Y-121262754D01*
X156808866Y-121262751D01*
X156641597Y-121159183D01*
X156641595Y-121159182D01*
X156639145Y-121157665D01*
X156636458Y-121156624D01*
X156636456Y-121156623D01*
X156453003Y-121085553D01*
X156453001Y-121085552D01*
X156450313Y-121084511D01*
X156447477Y-121083980D01*
X156447474Y-121083980D01*
X156254088Y-121047829D01*
X156254079Y-121047828D01*
X156251254Y-121047300D01*
X156048746Y-121047300D01*
X156045921Y-121047828D01*
X156045911Y-121047829D01*
X155852525Y-121083980D01*
X155852520Y-121083981D01*
X155849687Y-121084511D01*
X155847000Y-121085551D01*
X155846996Y-121085553D01*
X155663543Y-121156623D01*
X155663537Y-121156625D01*
X155660855Y-121157665D01*
X155658408Y-121159179D01*
X155658402Y-121159183D01*
X155491133Y-121262751D01*
X155491124Y-121262757D01*
X155488680Y-121264271D01*
X155486553Y-121266209D01*
X155486545Y-121266216D01*
X155341160Y-121398753D01*
X155341156Y-121398756D01*
X155339026Y-121400699D01*
X155337286Y-121403002D01*
X155337286Y-121403003D01*
X155218731Y-121559993D01*
X155218724Y-121560003D01*
X155216988Y-121562303D01*
X155215700Y-121564888D01*
X155215699Y-121564891D01*
X155128007Y-121741000D01*
X155128004Y-121741006D01*
X155126723Y-121743580D01*
X155125936Y-121746343D01*
X155125933Y-121746353D01*
X155072095Y-121935576D01*
X155071304Y-121938357D01*
X155052619Y-122140000D01*
X155071304Y-122341643D01*
X155072095Y-122344423D01*
X155125933Y-122533646D01*
X155125935Y-122533653D01*
X155126723Y-122536420D01*
X155128006Y-122538997D01*
X155128007Y-122538999D01*
X155138675Y-122560423D01*
X155216988Y-122717697D01*
X155218727Y-122720001D01*
X155218731Y-122720006D01*
X155266525Y-122783294D01*
X155339026Y-122879301D01*
X155488680Y-123015729D01*
X155491131Y-123017247D01*
X155491133Y-123017248D01*
X155524497Y-123037906D01*
X155660855Y-123122335D01*
X155849687Y-123195489D01*
X156048746Y-123232700D01*
X156248370Y-123232700D01*
X156251254Y-123232700D01*
X156450313Y-123195489D01*
X156639145Y-123122335D01*
X156811320Y-123015729D01*
X156960974Y-122879301D01*
X157083012Y-122717697D01*
X157170551Y-122541893D01*
X157199941Y-122513176D01*
X157240809Y-122508912D01*
X157275493Y-122530945D01*
X157289000Y-122569752D01*
X157289000Y-124250248D01*
X157275493Y-124289055D01*
X157240809Y-124311088D01*
X157199941Y-124306824D01*
X157170552Y-124278107D01*
X157148920Y-124234664D01*
X157083012Y-124102303D01*
X156960974Y-123940699D01*
X156869498Y-123857307D01*
X156813454Y-123806216D01*
X156813451Y-123806214D01*
X156811320Y-123804271D01*
X156808870Y-123802754D01*
X156808866Y-123802751D01*
X156641597Y-123699183D01*
X156641595Y-123699182D01*
X156639145Y-123697665D01*
X156636458Y-123696624D01*
X156636456Y-123696623D01*
X156453003Y-123625553D01*
X156453001Y-123625552D01*
X156450313Y-123624511D01*
X156447477Y-123623980D01*
X156447474Y-123623980D01*
X156254088Y-123587829D01*
X156254079Y-123587828D01*
X156251254Y-123587300D01*
X156048746Y-123587300D01*
X156045921Y-123587828D01*
X156045911Y-123587829D01*
X155852525Y-123623980D01*
X155852520Y-123623981D01*
X155849687Y-123624511D01*
X155847000Y-123625551D01*
X155846996Y-123625553D01*
X155663543Y-123696623D01*
X155663537Y-123696625D01*
X155660855Y-123697665D01*
X155658408Y-123699179D01*
X155658402Y-123699183D01*
X155491133Y-123802751D01*
X155491124Y-123802757D01*
X155488680Y-123804271D01*
X155486553Y-123806209D01*
X155486545Y-123806216D01*
X155341160Y-123938753D01*
X155341156Y-123938756D01*
X155339026Y-123940699D01*
X155337286Y-123943002D01*
X155337286Y-123943003D01*
X155218731Y-124099993D01*
X155218724Y-124100003D01*
X155216988Y-124102303D01*
X155215700Y-124104888D01*
X155215699Y-124104891D01*
X155128007Y-124281000D01*
X155128004Y-124281006D01*
X155126723Y-124283580D01*
X155125936Y-124286343D01*
X155125933Y-124286353D01*
X155076175Y-124461236D01*
X155071304Y-124478357D01*
X155071037Y-124481233D01*
X155071037Y-124481236D01*
X155065240Y-124543794D01*
X155052619Y-124680000D01*
X155071304Y-124881643D01*
X155072095Y-124884423D01*
X155125933Y-125073646D01*
X155125935Y-125073653D01*
X155126723Y-125076420D01*
X155216988Y-125257697D01*
X155218727Y-125260001D01*
X155218731Y-125260006D01*
X155278922Y-125339711D01*
X155339026Y-125419301D01*
X155488680Y-125555729D01*
X155660855Y-125662335D01*
X155849687Y-125735489D01*
X156048746Y-125772700D01*
X156248370Y-125772700D01*
X156251254Y-125772700D01*
X156450313Y-125735489D01*
X156639145Y-125662335D01*
X156811320Y-125555729D01*
X156960974Y-125419301D01*
X157083012Y-125257697D01*
X157170551Y-125081893D01*
X157199941Y-125053176D01*
X157240809Y-125048912D01*
X157275493Y-125070945D01*
X157289000Y-125109752D01*
X157289000Y-126479937D01*
X157276903Y-126516894D01*
X157245294Y-126539544D01*
X157206410Y-126539120D01*
X157175303Y-126515786D01*
X157136846Y-126460864D01*
X157131320Y-126456495D01*
X157125122Y-126459837D01*
X156370780Y-127214179D01*
X156367419Y-127219999D01*
X156370780Y-127225819D01*
X157125123Y-127980162D01*
X157131321Y-127983504D01*
X157136847Y-127979135D01*
X157175303Y-127924215D01*
X157206410Y-127900881D01*
X157245294Y-127900457D01*
X157276903Y-127923107D01*
X157289000Y-127960064D01*
X157289000Y-130874000D01*
X157270694Y-130918194D01*
X157226500Y-130936500D01*
X155502227Y-130936500D01*
X155465270Y-130924403D01*
X155442620Y-130892794D01*
X155443044Y-130853910D01*
X155466378Y-130822803D01*
X155589135Y-130736847D01*
X155593504Y-130731321D01*
X155590162Y-130725123D01*
X154835819Y-129970780D01*
X154829999Y-129967419D01*
X154824179Y-129970780D01*
X154069836Y-130725123D01*
X154066494Y-130731321D01*
X154070864Y-130736848D01*
X154193622Y-130822803D01*
X154216957Y-130853910D01*
X154217381Y-130892794D01*
X154194731Y-130924403D01*
X154157774Y-130936500D01*
X152563950Y-130936500D01*
X152521844Y-130920188D01*
X152501717Y-130879767D01*
X152514074Y-130836335D01*
X152552464Y-130812564D01*
X152590313Y-130805489D01*
X152779145Y-130732335D01*
X152951320Y-130625729D01*
X153100974Y-130489301D01*
X153223012Y-130327697D01*
X153313277Y-130146420D01*
X153368696Y-129951643D01*
X153387129Y-129752720D01*
X153581687Y-129752720D01*
X153600179Y-129964091D01*
X153601123Y-129969445D01*
X153656039Y-130174393D01*
X153657898Y-130179502D01*
X153747569Y-130371802D01*
X153750289Y-130376513D01*
X153843151Y-130509135D01*
X153848677Y-130513504D01*
X153854876Y-130510161D01*
X154609218Y-129755819D01*
X154612579Y-129750000D01*
X154612578Y-129749999D01*
X155047419Y-129749999D01*
X155050780Y-129755819D01*
X155805123Y-130510162D01*
X155811321Y-130513504D01*
X155816847Y-130509135D01*
X155909713Y-130376508D01*
X155912429Y-130371804D01*
X156002101Y-130179502D01*
X156003960Y-130174393D01*
X156058876Y-129969445D01*
X156059820Y-129964091D01*
X156078313Y-129752720D01*
X156078313Y-129747280D01*
X156059820Y-129535908D01*
X156058876Y-129530554D01*
X156003960Y-129325606D01*
X156002101Y-129320497D01*
X155912429Y-129128196D01*
X155909713Y-129123492D01*
X155816846Y-128990864D01*
X155811320Y-128986495D01*
X155805122Y-128989837D01*
X155050780Y-129744179D01*
X155047419Y-129749999D01*
X154612578Y-129749999D01*
X154609218Y-129744179D01*
X153854876Y-128989837D01*
X153848678Y-128986495D01*
X153843151Y-128990865D01*
X153750289Y-129123487D01*
X153747569Y-129128198D01*
X153657898Y-129320497D01*
X153656039Y-129325606D01*
X153601123Y-129530554D01*
X153600179Y-129535908D01*
X153581687Y-129747280D01*
X153581687Y-129752720D01*
X153387129Y-129752720D01*
X153387381Y-129750000D01*
X153368696Y-129548357D01*
X153313277Y-129353580D01*
X153223012Y-129172303D01*
X153100974Y-129010699D01*
X152951320Y-128874271D01*
X152948870Y-128872754D01*
X152948866Y-128872751D01*
X152781595Y-128769182D01*
X152780781Y-128768678D01*
X154066495Y-128768678D01*
X154069837Y-128774876D01*
X154824179Y-129529218D01*
X154830000Y-129532579D01*
X154835819Y-129529218D01*
X155590161Y-128774876D01*
X155593504Y-128768677D01*
X155589135Y-128763151D01*
X155456513Y-128670289D01*
X155451802Y-128667569D01*
X155259502Y-128577898D01*
X155254393Y-128576039D01*
X155049445Y-128521123D01*
X155044091Y-128520179D01*
X154832720Y-128501687D01*
X154827280Y-128501687D01*
X154615908Y-128520179D01*
X154610554Y-128521123D01*
X154405606Y-128576039D01*
X154400497Y-128577898D01*
X154208198Y-128667569D01*
X154203487Y-128670289D01*
X154070865Y-128763151D01*
X154066495Y-128768678D01*
X152780781Y-128768678D01*
X152779145Y-128767665D01*
X152776458Y-128766624D01*
X152776454Y-128766622D01*
X152682822Y-128730349D01*
X152653838Y-128707391D01*
X152642900Y-128672070D01*
X152642900Y-128233082D01*
X152644230Y-128220256D01*
X152647474Y-128204785D01*
X152647042Y-128201321D01*
X155386494Y-128201321D01*
X155390864Y-128206848D01*
X155523486Y-128299710D01*
X155528197Y-128302430D01*
X155720497Y-128392101D01*
X155725606Y-128393960D01*
X155930554Y-128448876D01*
X155935908Y-128449820D01*
X156147280Y-128468313D01*
X156152720Y-128468313D01*
X156364091Y-128449820D01*
X156369445Y-128448876D01*
X156574393Y-128393960D01*
X156579502Y-128392101D01*
X156771804Y-128302429D01*
X156776508Y-128299713D01*
X156909135Y-128206847D01*
X156913504Y-128201321D01*
X156910162Y-128195123D01*
X156155819Y-127440780D01*
X156149999Y-127437419D01*
X156144179Y-127440780D01*
X155389836Y-128195123D01*
X155386494Y-128201321D01*
X152647042Y-128201321D01*
X152643379Y-128171942D01*
X152642900Y-128164212D01*
X152642900Y-128163340D01*
X152642900Y-128160757D01*
X152639490Y-128140326D01*
X152639129Y-128137852D01*
X152632905Y-128087912D01*
X152630628Y-128083255D01*
X152630230Y-128081917D01*
X152630107Y-128081387D01*
X152629907Y-128080762D01*
X152629704Y-128080271D01*
X152629246Y-128078938D01*
X152628394Y-128073829D01*
X152604425Y-128029540D01*
X152603261Y-128027277D01*
X152581178Y-127982103D01*
X152577511Y-127978436D01*
X152576703Y-127977304D01*
X152576407Y-127976830D01*
X152576023Y-127976316D01*
X152575675Y-127975921D01*
X152574803Y-127974801D01*
X152572339Y-127970247D01*
X152535307Y-127936157D01*
X152533443Y-127934368D01*
X151821796Y-127222720D01*
X154901687Y-127222720D01*
X154920179Y-127434091D01*
X154921123Y-127439445D01*
X154976039Y-127644393D01*
X154977898Y-127649502D01*
X155067569Y-127841802D01*
X155070289Y-127846513D01*
X155163151Y-127979135D01*
X155168677Y-127983504D01*
X155174875Y-127980162D01*
X155929218Y-127225819D01*
X155932579Y-127219998D01*
X155929218Y-127214179D01*
X155174876Y-126459837D01*
X155168678Y-126456495D01*
X155163151Y-126460865D01*
X155070289Y-126593487D01*
X155067569Y-126598198D01*
X154977898Y-126790497D01*
X154976039Y-126795606D01*
X154921123Y-127000554D01*
X154920179Y-127005908D01*
X154901687Y-127217280D01*
X154901687Y-127222720D01*
X151821796Y-127222720D01*
X151580002Y-126980926D01*
X151571873Y-126970916D01*
X151566060Y-126962018D01*
X151566059Y-126962017D01*
X151563227Y-126957682D01*
X151559139Y-126954500D01*
X151559138Y-126954499D01*
X151537107Y-126937352D01*
X151531301Y-126932225D01*
X151530691Y-126931615D01*
X151528860Y-126929784D01*
X151512059Y-126917788D01*
X151509989Y-126916245D01*
X151474370Y-126888522D01*
X151474369Y-126888521D01*
X151470284Y-126885342D01*
X151465386Y-126883660D01*
X151464142Y-126882987D01*
X151463688Y-126882703D01*
X151463112Y-126882407D01*
X151462616Y-126882202D01*
X151461348Y-126881582D01*
X151457135Y-126878574D01*
X151452173Y-126877096D01*
X151452172Y-126877096D01*
X151408928Y-126864221D01*
X151406470Y-126863434D01*
X151363783Y-126848780D01*
X151363782Y-126848779D01*
X151358889Y-126847100D01*
X151353717Y-126847100D01*
X151352321Y-126846867D01*
X151351800Y-126846747D01*
X151351155Y-126846653D01*
X151350620Y-126846620D01*
X151349220Y-126846445D01*
X151344255Y-126844967D01*
X151339080Y-126845181D01*
X151293974Y-126847047D01*
X151291391Y-126847100D01*
X148922064Y-126847100D01*
X148877870Y-126828794D01*
X148321206Y-126272130D01*
X148307350Y-126238678D01*
X155386495Y-126238678D01*
X155389837Y-126244876D01*
X156144179Y-126999218D01*
X156150000Y-127002579D01*
X156155819Y-126999218D01*
X156910161Y-126244876D01*
X156913504Y-126238677D01*
X156909135Y-126233151D01*
X156776513Y-126140289D01*
X156771802Y-126137569D01*
X156579502Y-126047898D01*
X156574393Y-126046039D01*
X156369445Y-125991123D01*
X156364091Y-125990179D01*
X156152720Y-125971687D01*
X156147280Y-125971687D01*
X155935908Y-125990179D01*
X155930554Y-125991123D01*
X155725606Y-126046039D01*
X155720497Y-126047898D01*
X155528198Y-126137569D01*
X155523487Y-126140289D01*
X155390865Y-126233151D01*
X155386495Y-126238678D01*
X148307350Y-126238678D01*
X148302900Y-126227936D01*
X148302900Y-126193499D01*
X148317088Y-126153848D01*
X148353206Y-126132200D01*
X148369158Y-126129028D01*
X148419734Y-126095234D01*
X148448034Y-126052880D01*
X148479910Y-126028421D01*
X148520090Y-126028421D01*
X148551965Y-126052880D01*
X148580266Y-126095234D01*
X148630842Y-126129028D01*
X148675443Y-126137900D01*
X149340556Y-126137899D01*
X149385158Y-126129028D01*
X149435734Y-126095234D01*
X149469528Y-126044658D01*
X149478400Y-126000057D01*
X149478399Y-124699944D01*
X149469528Y-124655342D01*
X149435734Y-124604766D01*
X149430616Y-124601346D01*
X149390274Y-124574390D01*
X149390272Y-124574389D01*
X149385158Y-124570972D01*
X149379125Y-124569772D01*
X149379123Y-124569771D01*
X149343567Y-124562698D01*
X149343559Y-124562697D01*
X149340557Y-124562100D01*
X149337487Y-124562100D01*
X149315400Y-124562100D01*
X149271206Y-124543794D01*
X149252900Y-124499600D01*
X149252900Y-124022064D01*
X149271206Y-123977870D01*
X149393050Y-123856026D01*
X149889136Y-123359938D01*
X149918118Y-123345174D01*
X149917769Y-123344099D01*
X149922449Y-123342578D01*
X149927306Y-123341809D01*
X150042151Y-123283292D01*
X150133292Y-123192151D01*
X150191809Y-123077306D01*
X150211972Y-122950000D01*
X150191809Y-122822694D01*
X150164549Y-122769194D01*
X150135523Y-122712227D01*
X150135522Y-122712225D01*
X150133292Y-122707849D01*
X150042151Y-122616708D01*
X150037775Y-122614478D01*
X150037772Y-122614476D01*
X149931687Y-122560423D01*
X149931685Y-122560422D01*
X149927306Y-122558191D01*
X149922453Y-122557422D01*
X149922449Y-122557421D01*
X149812955Y-122540079D01*
X149800000Y-122538028D01*
X149788393Y-122539866D01*
X149677550Y-122557421D01*
X149677544Y-122557422D01*
X149672694Y-122558191D01*
X149668316Y-122560421D01*
X149668312Y-122560423D01*
X149562227Y-122614476D01*
X149562221Y-122614480D01*
X149557849Y-122616708D01*
X149554375Y-122620181D01*
X149554372Y-122620184D01*
X149470184Y-122704372D01*
X149470181Y-122704375D01*
X149466708Y-122707849D01*
X149464480Y-122712221D01*
X149464476Y-122712227D01*
X149410422Y-122818313D01*
X149410419Y-122818319D01*
X149408191Y-122822694D01*
X149407421Y-122827549D01*
X149405902Y-122832228D01*
X149404830Y-122831879D01*
X149390060Y-122860862D01*
X148680926Y-123569996D01*
X148670920Y-123578122D01*
X148662019Y-123583937D01*
X148662010Y-123583944D01*
X148657682Y-123586773D01*
X148654505Y-123590853D01*
X148654500Y-123590859D01*
X148637346Y-123612899D01*
X148632229Y-123618694D01*
X148631613Y-123619309D01*
X148631603Y-123619319D01*
X148629784Y-123621140D01*
X148628285Y-123623238D01*
X148628286Y-123623238D01*
X148617782Y-123637949D01*
X148616240Y-123640016D01*
X148588522Y-123675629D01*
X148588519Y-123675632D01*
X148585342Y-123679716D01*
X148583661Y-123684610D01*
X148582984Y-123685862D01*
X148582700Y-123686316D01*
X148582408Y-123686883D01*
X148582206Y-123687373D01*
X148581579Y-123688655D01*
X148578574Y-123692865D01*
X148577098Y-123697821D01*
X148577097Y-123697824D01*
X148564221Y-123741071D01*
X148563434Y-123743527D01*
X148548780Y-123786213D01*
X148548778Y-123786220D01*
X148547100Y-123791111D01*
X148547100Y-123796282D01*
X148546867Y-123797679D01*
X148546747Y-123798196D01*
X148546653Y-123798845D01*
X148546620Y-123799380D01*
X148546445Y-123800779D01*
X148544967Y-123805745D01*
X148545181Y-123810918D01*
X148545181Y-123810919D01*
X148547047Y-123856026D01*
X148547100Y-123858609D01*
X148547100Y-124589348D01*
X148534800Y-124626579D01*
X148502743Y-124649157D01*
X148463544Y-124648194D01*
X148432633Y-124624071D01*
X148423153Y-124609883D01*
X148419734Y-124604766D01*
X148414616Y-124601346D01*
X148374274Y-124574390D01*
X148374272Y-124574389D01*
X148369158Y-124570972D01*
X148363125Y-124569772D01*
X148363123Y-124569771D01*
X148327567Y-124562698D01*
X148327559Y-124562697D01*
X148324557Y-124562100D01*
X148321487Y-124562100D01*
X147662515Y-124562100D01*
X147662504Y-124562100D01*
X147659444Y-124562101D01*
X147656434Y-124562699D01*
X147656430Y-124562700D01*
X147620879Y-124569771D01*
X147620877Y-124569771D01*
X147614842Y-124570972D01*
X147609726Y-124574389D01*
X147609724Y-124574391D01*
X147569383Y-124601346D01*
X147569380Y-124601348D01*
X147564266Y-124604766D01*
X147560848Y-124609880D01*
X147560846Y-124609883D01*
X147533890Y-124650225D01*
X147533888Y-124650229D01*
X147530472Y-124655342D01*
X147529272Y-124661372D01*
X147529271Y-124661376D01*
X147522198Y-124696932D01*
X147522197Y-124696941D01*
X147521600Y-124699943D01*
X147521600Y-124703011D01*
X147521600Y-124703012D01*
X147521600Y-125996984D01*
X147521600Y-125996994D01*
X147521601Y-126000056D01*
X147522199Y-126003066D01*
X147522200Y-126003069D01*
X147527515Y-126029790D01*
X147530472Y-126044658D01*
X147564266Y-126095234D01*
X147569383Y-126098653D01*
X147573737Y-126103007D01*
X147573510Y-126103233D01*
X147589720Y-126121118D01*
X147597100Y-126150580D01*
X147597100Y-126356917D01*
X147595770Y-126369742D01*
X147592526Y-126385215D01*
X147593166Y-126390351D01*
X147593166Y-126390356D01*
X147596620Y-126418059D01*
X147597100Y-126425790D01*
X147597100Y-126429243D01*
X147597523Y-126431782D01*
X147597525Y-126431797D01*
X147600500Y-126449625D01*
X147600872Y-126452178D01*
X147606453Y-126496948D01*
X147607094Y-126502088D01*
X147609368Y-126506741D01*
X147609772Y-126508096D01*
X147609893Y-126508618D01*
X147610089Y-126509231D01*
X147610293Y-126509724D01*
X147610754Y-126511067D01*
X147611606Y-126516171D01*
X147618795Y-126529456D01*
X147635544Y-126560405D01*
X147636725Y-126562700D01*
X147658821Y-126607897D01*
X147662484Y-126611560D01*
X147663298Y-126612700D01*
X147663589Y-126613166D01*
X147663971Y-126613678D01*
X147664322Y-126614076D01*
X147665196Y-126615199D01*
X147667661Y-126619753D01*
X147671470Y-126623259D01*
X147704679Y-126653830D01*
X147706543Y-126655619D01*
X148469995Y-127419071D01*
X148478124Y-127429080D01*
X148486773Y-127442318D01*
X148512902Y-127462655D01*
X148518697Y-127467773D01*
X148521140Y-127470216D01*
X148523247Y-127471720D01*
X148523249Y-127471722D01*
X148537958Y-127482224D01*
X148540016Y-127483758D01*
X148579716Y-127514658D01*
X148584616Y-127516339D01*
X148585847Y-127517006D01*
X148586304Y-127517291D01*
X148586890Y-127517593D01*
X148587385Y-127517798D01*
X148588650Y-127518416D01*
X148592865Y-127521426D01*
X148641084Y-127535782D01*
X148643536Y-127536568D01*
X148686208Y-127551217D01*
X148686209Y-127551217D01*
X148691111Y-127552900D01*
X148696291Y-127552900D01*
X148697675Y-127553131D01*
X148698209Y-127553254D01*
X148698839Y-127553346D01*
X148699380Y-127553380D01*
X148700778Y-127553554D01*
X148705745Y-127555033D01*
X148756025Y-127552953D01*
X148758609Y-127552900D01*
X151127936Y-127552900D01*
X151172130Y-127571206D01*
X151918794Y-128317870D01*
X151937100Y-128362064D01*
X151937100Y-128672070D01*
X151926162Y-128707391D01*
X151897178Y-128730349D01*
X151803545Y-128766622D01*
X151803537Y-128766625D01*
X151800855Y-128767665D01*
X151798408Y-128769179D01*
X151798404Y-128769182D01*
X151631133Y-128872751D01*
X151631124Y-128872757D01*
X151628680Y-128874271D01*
X151626553Y-128876209D01*
X151626545Y-128876216D01*
X151481160Y-129008753D01*
X151481156Y-129008756D01*
X151479026Y-129010699D01*
X151477286Y-129013002D01*
X151477286Y-129013003D01*
X151358731Y-129169993D01*
X151358724Y-129170003D01*
X151356988Y-129172303D01*
X151355700Y-129174888D01*
X151355699Y-129174891D01*
X151268007Y-129351000D01*
X151268004Y-129351006D01*
X151266723Y-129353580D01*
X151265936Y-129356343D01*
X151265933Y-129356353D01*
X151216369Y-129530554D01*
X151211304Y-129548357D01*
X151192619Y-129750000D01*
X151211304Y-129951643D01*
X151212095Y-129954423D01*
X151265933Y-130143646D01*
X151265935Y-130143653D01*
X151266723Y-130146420D01*
X151268006Y-130148997D01*
X151268007Y-130148999D01*
X151280652Y-130174393D01*
X151356988Y-130327697D01*
X151358727Y-130330001D01*
X151358731Y-130330006D01*
X151390296Y-130371804D01*
X151479026Y-130489301D01*
X151628680Y-130625729D01*
X151800855Y-130732335D01*
X151989687Y-130805489D01*
X152027535Y-130812564D01*
X152065926Y-130836335D01*
X152078283Y-130879767D01*
X152058156Y-130920188D01*
X152016050Y-130936500D01*
X150023950Y-130936500D01*
X149981844Y-130920188D01*
X149961717Y-130879767D01*
X149974074Y-130836335D01*
X150012464Y-130812564D01*
X150050313Y-130805489D01*
X150239145Y-130732335D01*
X150411320Y-130625729D01*
X150560974Y-130489301D01*
X150683012Y-130327697D01*
X150773277Y-130146420D01*
X150828696Y-129951643D01*
X150847381Y-129750000D01*
X150828696Y-129548357D01*
X150773277Y-129353580D01*
X150683012Y-129172303D01*
X150560974Y-129010699D01*
X150411320Y-128874271D01*
X150408870Y-128872754D01*
X150408866Y-128872751D01*
X150241597Y-128769183D01*
X150241595Y-128769182D01*
X150239145Y-128767665D01*
X150236458Y-128766624D01*
X150236456Y-128766623D01*
X150053003Y-128695553D01*
X150053001Y-128695552D01*
X150050313Y-128694511D01*
X150047477Y-128693980D01*
X150047474Y-128693980D01*
X149854088Y-128657829D01*
X149854079Y-128657828D01*
X149851254Y-128657300D01*
X149648746Y-128657300D01*
X149645921Y-128657828D01*
X149645911Y-128657829D01*
X149452525Y-128693980D01*
X149452520Y-128693981D01*
X149449687Y-128694511D01*
X149447000Y-128695551D01*
X149446996Y-128695553D01*
X149263543Y-128766623D01*
X149263537Y-128766625D01*
X149260855Y-128767665D01*
X149258408Y-128769179D01*
X149258402Y-128769183D01*
X149091133Y-128872751D01*
X149091124Y-128872757D01*
X149088680Y-128874271D01*
X149086553Y-128876209D01*
X149086545Y-128876216D01*
X148941160Y-129008753D01*
X148941156Y-129008756D01*
X148939026Y-129010699D01*
X148937286Y-129013002D01*
X148937286Y-129013003D01*
X148818731Y-129169993D01*
X148818724Y-129170003D01*
X148816988Y-129172303D01*
X148815700Y-129174888D01*
X148815699Y-129174891D01*
X148728007Y-129351000D01*
X148728004Y-129351006D01*
X148726723Y-129353580D01*
X148725936Y-129356343D01*
X148725933Y-129356353D01*
X148676369Y-129530554D01*
X148671304Y-129548357D01*
X148652619Y-129750000D01*
X148671304Y-129951643D01*
X148672095Y-129954423D01*
X148725933Y-130143646D01*
X148725935Y-130143653D01*
X148726723Y-130146420D01*
X148728006Y-130148997D01*
X148728007Y-130148999D01*
X148740652Y-130174393D01*
X148816988Y-130327697D01*
X148818727Y-130330001D01*
X148818731Y-130330006D01*
X148850296Y-130371804D01*
X148939026Y-130489301D01*
X149088680Y-130625729D01*
X149260855Y-130732335D01*
X149449687Y-130805489D01*
X149487535Y-130812564D01*
X149525926Y-130836335D01*
X149538283Y-130879767D01*
X149518156Y-130920188D01*
X149476050Y-130936500D01*
X147483950Y-130936500D01*
X147441844Y-130920188D01*
X147421717Y-130879767D01*
X147434074Y-130836335D01*
X147472464Y-130812564D01*
X147510313Y-130805489D01*
X147699145Y-130732335D01*
X147871320Y-130625729D01*
X148020974Y-130489301D01*
X148143012Y-130327697D01*
X148233277Y-130146420D01*
X148288696Y-129951643D01*
X148307381Y-129750000D01*
X148288696Y-129548357D01*
X148233277Y-129353580D01*
X148143012Y-129172303D01*
X148020974Y-129010699D01*
X147871320Y-128874271D01*
X147868870Y-128872754D01*
X147868866Y-128872751D01*
X147701597Y-128769183D01*
X147701595Y-128769182D01*
X147699145Y-128767665D01*
X147696458Y-128766624D01*
X147696456Y-128766623D01*
X147513003Y-128695553D01*
X147513001Y-128695552D01*
X147510313Y-128694511D01*
X147507481Y-128693981D01*
X147507472Y-128693979D01*
X147494168Y-128691493D01*
X147490116Y-128690735D01*
X147453517Y-128669228D01*
X147439100Y-128629300D01*
X147439100Y-127917627D01*
X147439186Y-127914357D01*
X147440990Y-127879923D01*
X147441334Y-127873361D01*
X147432107Y-127849324D01*
X147429324Y-127839931D01*
X147423969Y-127814735D01*
X147417908Y-127806392D01*
X147410124Y-127792055D01*
X147408785Y-127788566D01*
X147406432Y-127782436D01*
X147388225Y-127764229D01*
X147381855Y-127756771D01*
X147370582Y-127741255D01*
X147366722Y-127735942D01*
X147361034Y-127732658D01*
X147361032Y-127732656D01*
X147357793Y-127730786D01*
X147344851Y-127720855D01*
X142703306Y-123079309D01*
X142685000Y-123035115D01*
X142685000Y-122910600D01*
X143288528Y-122910600D01*
X143289297Y-122915455D01*
X143307921Y-123033049D01*
X143307922Y-123033053D01*
X143308691Y-123037906D01*
X143310922Y-123042285D01*
X143310923Y-123042287D01*
X143364976Y-123148372D01*
X143364978Y-123148375D01*
X143367208Y-123152751D01*
X143458349Y-123243892D01*
X143462725Y-123246122D01*
X143462727Y-123246123D01*
X143519694Y-123275149D01*
X143573194Y-123302409D01*
X143700500Y-123322572D01*
X143827806Y-123302409D01*
X143942651Y-123243892D01*
X144033792Y-123152751D01*
X144092309Y-123037906D01*
X144112472Y-122910600D01*
X144092309Y-122783294D01*
X144063412Y-122726581D01*
X144056600Y-122698206D01*
X144056600Y-116687600D01*
X145588128Y-116687600D01*
X145588897Y-116692455D01*
X145607521Y-116810049D01*
X145607522Y-116810053D01*
X145608291Y-116814906D01*
X145610522Y-116819285D01*
X145610523Y-116819287D01*
X145664576Y-116925372D01*
X145664578Y-116925375D01*
X145666808Y-116929751D01*
X145757949Y-117020892D01*
X145762325Y-117023122D01*
X145762327Y-117023123D01*
X145795450Y-117040000D01*
X145872794Y-117079409D01*
X146000100Y-117099572D01*
X146127406Y-117079409D01*
X146242251Y-117020892D01*
X146333392Y-116929751D01*
X146391909Y-116814906D01*
X146412072Y-116687600D01*
X146411303Y-116682745D01*
X146411303Y-116682740D01*
X146405025Y-116643105D01*
X146407314Y-116614014D01*
X146422559Y-116589135D01*
X146965690Y-116046006D01*
X147009885Y-116027700D01*
X147459101Y-116027700D01*
X147503295Y-116046006D01*
X147521601Y-116090200D01*
X147521601Y-116450056D01*
X147522199Y-116453066D01*
X147522200Y-116453069D01*
X147524554Y-116464905D01*
X147530472Y-116494658D01*
X147564266Y-116545234D01*
X147614842Y-116579028D01*
X147659443Y-116587900D01*
X148324556Y-116587899D01*
X148369158Y-116579028D01*
X148369717Y-116581842D01*
X148399434Y-116580241D01*
X148433274Y-116604854D01*
X148439452Y-116613873D01*
X148511626Y-116686047D01*
X148521021Y-116692483D01*
X148615391Y-116734151D01*
X148624363Y-116736592D01*
X148643323Y-116738792D01*
X148646914Y-116738999D01*
X149369082Y-116738999D01*
X149372679Y-116738791D01*
X149391639Y-116736592D01*
X149400604Y-116734153D01*
X149494978Y-116692483D01*
X149504373Y-116686047D01*
X149576547Y-116613873D01*
X149582983Y-116604478D01*
X149583616Y-116603044D01*
X149584557Y-116594932D01*
X149580750Y-116587710D01*
X149081447Y-116088407D01*
X149063291Y-116048541D01*
X149075765Y-116006548D01*
X149135896Y-115926923D01*
X149154189Y-115862627D01*
X149178982Y-115828169D01*
X149220070Y-115817498D01*
X149258497Y-115835537D01*
X149620708Y-116197748D01*
X149626924Y-116200323D01*
X149629499Y-116194108D01*
X149629499Y-115402732D01*
X149627875Y-115397379D01*
X149622943Y-115400015D01*
X149261402Y-115761557D01*
X149219118Y-115779834D01*
X149175796Y-115764174D01*
X149159799Y-115732612D01*
X149156996Y-115733410D01*
X149155412Y-115727844D01*
X149154878Y-115722075D01*
X149108234Y-115628401D01*
X149090430Y-115612170D01*
X149081488Y-115604018D01*
X149063751Y-115575858D01*
X149062983Y-115542586D01*
X149079401Y-115513637D01*
X149580747Y-115012291D01*
X149584556Y-115005065D01*
X149583615Y-114996953D01*
X149582982Y-114995520D01*
X149576548Y-114986127D01*
X149504373Y-114913952D01*
X149494978Y-114907516D01*
X149400608Y-114865848D01*
X149391636Y-114863407D01*
X149372676Y-114861207D01*
X149369085Y-114861000D01*
X148646917Y-114861000D01*
X148643320Y-114861208D01*
X148624360Y-114863407D01*
X148615395Y-114865846D01*
X148521021Y-114907516D01*
X148511626Y-114913952D01*
X148439451Y-114986127D01*
X148433272Y-114995147D01*
X148399515Y-115019733D01*
X148369711Y-115018187D01*
X148369158Y-115020972D01*
X148327567Y-115012698D01*
X148327559Y-115012697D01*
X148324557Y-115012100D01*
X148321487Y-115012100D01*
X147662515Y-115012100D01*
X147662504Y-115012100D01*
X147659444Y-115012101D01*
X147656434Y-115012699D01*
X147656430Y-115012700D01*
X147620879Y-115019771D01*
X147620877Y-115019771D01*
X147614842Y-115020972D01*
X147609726Y-115024389D01*
X147609724Y-115024391D01*
X147569383Y-115051346D01*
X147569380Y-115051348D01*
X147564266Y-115054766D01*
X147560848Y-115059880D01*
X147560846Y-115059883D01*
X147533890Y-115100225D01*
X147533888Y-115100229D01*
X147530472Y-115105342D01*
X147529272Y-115111372D01*
X147529271Y-115111376D01*
X147522198Y-115146932D01*
X147522197Y-115146941D01*
X147521600Y-115149943D01*
X147521600Y-115153013D01*
X147521600Y-115507000D01*
X147503294Y-115551194D01*
X147459100Y-115569500D01*
X146896727Y-115569500D01*
X146893457Y-115569414D01*
X146859024Y-115567609D01*
X146859019Y-115567609D01*
X146852461Y-115567266D01*
X146828419Y-115576493D01*
X146819026Y-115579276D01*
X146800259Y-115583265D01*
X146800257Y-115583265D01*
X146793835Y-115584631D01*
X146788525Y-115588488D01*
X146788517Y-115588492D01*
X146785488Y-115590693D01*
X146771162Y-115598472D01*
X146767668Y-115599813D01*
X146767665Y-115599814D01*
X146761536Y-115602168D01*
X146756892Y-115606811D01*
X146756890Y-115606813D01*
X146743330Y-115620373D01*
X146735875Y-115626740D01*
X146720357Y-115638015D01*
X146720353Y-115638018D01*
X146715042Y-115641878D01*
X146711758Y-115647564D01*
X146711758Y-115647565D01*
X146709887Y-115650806D01*
X146699957Y-115663745D01*
X146098564Y-116265137D01*
X146073684Y-116280384D01*
X146044594Y-116282674D01*
X146004957Y-116276397D01*
X146004956Y-116276397D01*
X146000100Y-116275628D01*
X145995245Y-116276397D01*
X145877650Y-116295021D01*
X145877644Y-116295022D01*
X145872794Y-116295791D01*
X145868416Y-116298021D01*
X145868412Y-116298023D01*
X145762327Y-116352076D01*
X145762321Y-116352080D01*
X145757949Y-116354308D01*
X145754475Y-116357781D01*
X145754472Y-116357784D01*
X145670284Y-116441972D01*
X145670281Y-116441975D01*
X145666808Y-116445449D01*
X145664580Y-116449821D01*
X145664576Y-116449827D01*
X145610523Y-116555912D01*
X145610521Y-116555916D01*
X145608291Y-116560294D01*
X145607522Y-116565144D01*
X145607521Y-116565150D01*
X145595175Y-116643105D01*
X145588128Y-116687600D01*
X144056600Y-116687600D01*
X144056600Y-114740994D01*
X144063412Y-114712619D01*
X144065736Y-114708057D01*
X144092309Y-114655906D01*
X144112472Y-114528600D01*
X144092309Y-114401294D01*
X144050050Y-114318357D01*
X144036023Y-114290827D01*
X144036022Y-114290825D01*
X144033792Y-114286449D01*
X143942651Y-114195308D01*
X143938275Y-114193078D01*
X143938272Y-114193076D01*
X143832187Y-114139023D01*
X143832185Y-114139022D01*
X143827806Y-114136791D01*
X143822953Y-114136022D01*
X143822949Y-114136021D01*
X143705355Y-114117397D01*
X143700500Y-114116628D01*
X143695645Y-114117397D01*
X143578050Y-114136021D01*
X143578044Y-114136022D01*
X143573194Y-114136791D01*
X143568816Y-114139021D01*
X143568812Y-114139023D01*
X143462727Y-114193076D01*
X143462721Y-114193080D01*
X143458349Y-114195308D01*
X143454875Y-114198781D01*
X143454872Y-114198784D01*
X143370684Y-114282972D01*
X143370681Y-114282975D01*
X143367208Y-114286449D01*
X143364980Y-114290821D01*
X143364976Y-114290827D01*
X143310923Y-114396912D01*
X143310921Y-114396916D01*
X143308691Y-114401294D01*
X143307922Y-114406144D01*
X143307921Y-114406150D01*
X143293058Y-114500000D01*
X143288528Y-114528600D01*
X143289297Y-114533455D01*
X143307921Y-114651049D01*
X143307922Y-114651053D01*
X143308691Y-114655906D01*
X143310922Y-114660285D01*
X143310923Y-114660287D01*
X143337588Y-114712619D01*
X143344400Y-114740994D01*
X143344400Y-122698206D01*
X143337588Y-122726581D01*
X143310923Y-122778912D01*
X143310921Y-122778916D01*
X143308691Y-122783294D01*
X143307922Y-122788144D01*
X143307921Y-122788150D01*
X143293850Y-122876996D01*
X143288528Y-122910600D01*
X142685000Y-122910600D01*
X142685000Y-111901994D01*
X145352100Y-111901994D01*
X145352101Y-111905056D01*
X145360972Y-111949658D01*
X145364390Y-111954774D01*
X145364391Y-111954775D01*
X145374291Y-111969592D01*
X145394766Y-112000234D01*
X145445342Y-112034028D01*
X145489943Y-112042900D01*
X147220056Y-112042899D01*
X147264658Y-112034028D01*
X147315234Y-112000234D01*
X147349028Y-111949658D01*
X147357900Y-111905057D01*
X147357899Y-111040000D01*
X147887247Y-111040000D01*
X147887548Y-111043056D01*
X147905044Y-111220699D01*
X147906611Y-111236603D01*
X147907498Y-111239529D01*
X147907500Y-111239536D01*
X147963065Y-111422709D01*
X147963068Y-111422716D01*
X147963958Y-111425650D01*
X147965404Y-111428357D01*
X147965407Y-111428362D01*
X148051299Y-111589055D01*
X148057084Y-111599878D01*
X148059032Y-111602252D01*
X148059033Y-111602253D01*
X148109946Y-111664291D01*
X148182411Y-111752589D01*
X148335122Y-111877916D01*
X148337833Y-111879365D01*
X148458046Y-111943620D01*
X148509350Y-111971042D01*
X148512288Y-111971933D01*
X148512290Y-111971934D01*
X148695463Y-112027499D01*
X148698397Y-112028389D01*
X148895000Y-112047753D01*
X149091603Y-112028389D01*
X149280650Y-111971042D01*
X149454878Y-111877916D01*
X149607589Y-111752589D01*
X149732916Y-111599878D01*
X149826042Y-111425650D01*
X149883389Y-111236603D01*
X149886927Y-111200681D01*
X150290945Y-111200681D01*
X150295522Y-111250076D01*
X150296579Y-111255733D01*
X150353527Y-111455885D01*
X150355601Y-111461238D01*
X150448356Y-111647516D01*
X150451389Y-111652414D01*
X150576790Y-111818472D01*
X150580664Y-111822721D01*
X150734445Y-111962911D01*
X150739034Y-111966376D01*
X150915961Y-112075925D01*
X150921102Y-112078485D01*
X151115149Y-112153659D01*
X151120678Y-112155232D01*
X151273949Y-112183884D01*
X151280963Y-112183125D01*
X151283000Y-112176365D01*
X151587000Y-112176365D01*
X151589036Y-112183125D01*
X151596050Y-112183884D01*
X151749321Y-112155232D01*
X151754850Y-112153659D01*
X151948897Y-112078485D01*
X151954038Y-112075925D01*
X152130965Y-111966376D01*
X152135554Y-111962911D01*
X152289335Y-111822721D01*
X152293209Y-111818472D01*
X152418610Y-111652414D01*
X152421643Y-111647516D01*
X152514398Y-111461238D01*
X152516472Y-111455885D01*
X152573420Y-111255733D01*
X152574477Y-111250076D01*
X152579054Y-111200681D01*
X152577785Y-111193889D01*
X152571142Y-111192000D01*
X151599431Y-111192000D01*
X151590641Y-111195641D01*
X151587000Y-111204431D01*
X151587000Y-112176365D01*
X151283000Y-112176365D01*
X151283000Y-111204431D01*
X151279358Y-111195641D01*
X151270569Y-111192000D01*
X150298858Y-111192000D01*
X150292214Y-111193889D01*
X150290945Y-111200681D01*
X149886927Y-111200681D01*
X149902753Y-111040000D01*
X149886927Y-110879318D01*
X150290945Y-110879318D01*
X150292214Y-110886110D01*
X150298858Y-110888000D01*
X151270569Y-110888000D01*
X151279358Y-110884358D01*
X151283000Y-110875569D01*
X151587000Y-110875569D01*
X151590641Y-110884358D01*
X151599431Y-110888000D01*
X152571142Y-110888000D01*
X152577785Y-110886110D01*
X152579054Y-110879318D01*
X152574477Y-110829923D01*
X152573420Y-110824266D01*
X152516472Y-110624114D01*
X152514398Y-110618761D01*
X152421643Y-110432483D01*
X152418610Y-110427585D01*
X152293209Y-110261527D01*
X152289335Y-110257278D01*
X152135554Y-110117088D01*
X152130965Y-110113623D01*
X151954038Y-110004074D01*
X151948897Y-110001514D01*
X151754850Y-109926340D01*
X151749321Y-109924767D01*
X151596050Y-109896115D01*
X151589036Y-109896874D01*
X151587000Y-109903635D01*
X151587000Y-110875569D01*
X151283000Y-110875569D01*
X151283000Y-109903635D01*
X151280963Y-109896874D01*
X151273949Y-109896115D01*
X151120678Y-109924767D01*
X151115149Y-109926340D01*
X150921102Y-110001514D01*
X150915961Y-110004074D01*
X150739034Y-110113623D01*
X150734445Y-110117088D01*
X150580664Y-110257278D01*
X150576790Y-110261527D01*
X150451389Y-110427585D01*
X150448356Y-110432483D01*
X150355601Y-110618761D01*
X150353527Y-110624114D01*
X150296579Y-110824266D01*
X150295522Y-110829923D01*
X150290945Y-110879318D01*
X149886927Y-110879318D01*
X149883389Y-110843397D01*
X149853119Y-110743609D01*
X149826934Y-110657290D01*
X149826933Y-110657288D01*
X149826042Y-110654350D01*
X149807019Y-110618761D01*
X149734365Y-110482833D01*
X149732916Y-110480122D01*
X149607589Y-110327411D01*
X149595205Y-110317248D01*
X149457253Y-110204033D01*
X149457252Y-110204032D01*
X149454878Y-110202084D01*
X149452169Y-110200636D01*
X149452166Y-110200634D01*
X149283362Y-110110407D01*
X149283357Y-110110404D01*
X149280650Y-110108958D01*
X149277716Y-110108068D01*
X149277709Y-110108065D01*
X149094536Y-110052500D01*
X149094529Y-110052498D01*
X149091603Y-110051611D01*
X149088553Y-110051310D01*
X149088550Y-110051310D01*
X148898056Y-110032548D01*
X148895000Y-110032247D01*
X148891944Y-110032548D01*
X148701449Y-110051310D01*
X148701445Y-110051310D01*
X148698397Y-110051611D01*
X148695472Y-110052498D01*
X148695463Y-110052500D01*
X148512290Y-110108065D01*
X148512279Y-110108069D01*
X148509350Y-110108958D01*
X148506646Y-110110403D01*
X148506637Y-110110407D01*
X148337833Y-110200634D01*
X148337825Y-110200638D01*
X148335122Y-110202084D01*
X148332752Y-110204028D01*
X148332746Y-110204033D01*
X148184781Y-110325465D01*
X148184775Y-110325470D01*
X148182411Y-110327411D01*
X148180470Y-110329775D01*
X148180465Y-110329781D01*
X148059033Y-110477746D01*
X148059028Y-110477752D01*
X148057084Y-110480122D01*
X148055638Y-110482825D01*
X148055634Y-110482833D01*
X147965407Y-110651637D01*
X147965403Y-110651646D01*
X147963958Y-110654350D01*
X147963069Y-110657279D01*
X147963065Y-110657290D01*
X147907500Y-110840463D01*
X147907498Y-110840472D01*
X147906611Y-110843397D01*
X147906310Y-110846445D01*
X147906310Y-110846449D01*
X147893237Y-110979183D01*
X147887247Y-111040000D01*
X147357899Y-111040000D01*
X147357899Y-110174944D01*
X147349028Y-110130342D01*
X147315234Y-110079766D01*
X147274428Y-110052500D01*
X147269774Y-110049390D01*
X147269772Y-110049389D01*
X147264658Y-110045972D01*
X147258625Y-110044772D01*
X147258623Y-110044771D01*
X147223067Y-110037698D01*
X147223059Y-110037697D01*
X147220057Y-110037100D01*
X147216987Y-110037100D01*
X145493015Y-110037100D01*
X145493004Y-110037100D01*
X145489944Y-110037101D01*
X145486934Y-110037699D01*
X145486930Y-110037700D01*
X145451379Y-110044771D01*
X145451377Y-110044771D01*
X145445342Y-110045972D01*
X145440226Y-110049389D01*
X145440224Y-110049391D01*
X145399883Y-110076346D01*
X145399880Y-110076348D01*
X145394766Y-110079766D01*
X145391348Y-110084880D01*
X145391346Y-110084883D01*
X145364390Y-110125225D01*
X145364388Y-110125229D01*
X145360972Y-110130342D01*
X145359772Y-110136372D01*
X145359771Y-110136376D01*
X145352698Y-110171932D01*
X145352697Y-110171941D01*
X145352100Y-110174943D01*
X145352100Y-110178011D01*
X145352100Y-110178012D01*
X145352100Y-111901984D01*
X145352100Y-111901994D01*
X142685000Y-111901994D01*
X142685000Y-108985184D01*
X142703304Y-108940991D01*
X142815733Y-108828561D01*
X142818048Y-108826365D01*
X142848586Y-108798870D01*
X142859059Y-108775346D01*
X142863733Y-108766736D01*
X142877761Y-108745137D01*
X142879373Y-108734955D01*
X142884007Y-108719312D01*
X142888200Y-108709897D01*
X142888200Y-108684151D01*
X142888969Y-108674374D01*
X142890233Y-108666392D01*
X142892997Y-108648942D01*
X142890328Y-108638982D01*
X142888200Y-108622812D01*
X142888200Y-107957619D01*
X142888286Y-107954348D01*
X142889135Y-107938151D01*
X142890434Y-107913360D01*
X142881202Y-107889311D01*
X142878424Y-107879931D01*
X142873069Y-107854735D01*
X142867008Y-107846392D01*
X142859224Y-107832055D01*
X142857885Y-107828566D01*
X142855532Y-107822436D01*
X142837325Y-107804229D01*
X142830955Y-107796771D01*
X142819682Y-107781255D01*
X142815822Y-107775942D01*
X142806892Y-107770785D01*
X142793954Y-107760857D01*
X142572489Y-107539392D01*
X142570237Y-107537019D01*
X142547166Y-107511396D01*
X142547165Y-107511395D01*
X142542770Y-107506514D01*
X142536769Y-107503842D01*
X142536768Y-107503841D01*
X142522187Y-107497349D01*
X142491922Y-107468627D01*
X142486624Y-107458229D01*
X142486623Y-107458228D01*
X142484392Y-107453849D01*
X142393251Y-107362708D01*
X142388875Y-107360478D01*
X142388872Y-107360476D01*
X142282787Y-107306423D01*
X142282785Y-107306422D01*
X142278406Y-107304191D01*
X142273553Y-107303422D01*
X142273549Y-107303421D01*
X142155955Y-107284797D01*
X142151100Y-107284028D01*
X142146245Y-107284797D01*
X142028650Y-107303421D01*
X142028644Y-107303422D01*
X142023794Y-107304191D01*
X142019415Y-107306421D01*
X142019409Y-107306424D01*
X141995468Y-107318623D01*
X141948514Y-107322609D01*
X141912122Y-107292673D01*
X141906980Y-107245831D01*
X141936317Y-107142725D01*
X141953696Y-107081643D01*
X141972381Y-106880000D01*
X141953696Y-106678357D01*
X141898277Y-106483580D01*
X141808012Y-106302303D01*
X141685974Y-106140699D01*
X141579512Y-106043646D01*
X141538454Y-106006216D01*
X141538451Y-106006214D01*
X141536320Y-106004271D01*
X141533870Y-106002754D01*
X141533866Y-106002751D01*
X141366597Y-105899183D01*
X141366595Y-105899182D01*
X141364145Y-105897665D01*
X141361458Y-105896624D01*
X141361456Y-105896623D01*
X141178003Y-105825553D01*
X141178001Y-105825552D01*
X141175313Y-105824511D01*
X141172477Y-105823980D01*
X141172474Y-105823980D01*
X140979088Y-105787829D01*
X140979079Y-105787828D01*
X140976254Y-105787300D01*
X140773746Y-105787300D01*
X140770921Y-105787828D01*
X140770911Y-105787829D01*
X140577525Y-105823980D01*
X140577520Y-105823981D01*
X140574687Y-105824511D01*
X140572000Y-105825551D01*
X140571996Y-105825553D01*
X140388543Y-105896623D01*
X140388537Y-105896625D01*
X140385855Y-105897665D01*
X140383408Y-105899179D01*
X140383402Y-105899183D01*
X140216133Y-106002751D01*
X140216124Y-106002757D01*
X140213680Y-106004271D01*
X140211553Y-106006209D01*
X140211545Y-106006216D01*
X140066160Y-106138753D01*
X140066156Y-106138756D01*
X140064026Y-106140699D01*
X140062286Y-106143002D01*
X140062286Y-106143003D01*
X139943731Y-106299993D01*
X139943724Y-106300003D01*
X139941988Y-106302303D01*
X139940700Y-106304888D01*
X139940699Y-106304891D01*
X139853007Y-106481000D01*
X139853004Y-106481006D01*
X139851723Y-106483580D01*
X139850936Y-106486343D01*
X139850933Y-106486353D01*
X139835814Y-106539494D01*
X139809821Y-106574754D01*
X139767065Y-106584291D01*
X139728552Y-106563418D01*
X139713200Y-106522390D01*
X139713200Y-105650000D01*
X146432619Y-105650000D01*
X146451304Y-105851643D01*
X146452095Y-105854423D01*
X146505933Y-106043646D01*
X146505935Y-106043653D01*
X146506723Y-106046420D01*
X146596988Y-106227697D01*
X146598727Y-106230001D01*
X146598731Y-106230006D01*
X146653328Y-106302303D01*
X146719026Y-106389301D01*
X146802802Y-106465673D01*
X146850389Y-106509055D01*
X146868680Y-106525729D01*
X147040855Y-106632335D01*
X147229687Y-106705489D01*
X147428746Y-106742700D01*
X147628370Y-106742700D01*
X147631254Y-106742700D01*
X147830313Y-106705489D01*
X148019145Y-106632335D01*
X148191320Y-106525729D01*
X148340974Y-106389301D01*
X148463012Y-106227697D01*
X148553277Y-106046420D01*
X148608696Y-105851643D01*
X148627381Y-105650000D01*
X148608696Y-105448357D01*
X148553277Y-105253580D01*
X148463012Y-105072303D01*
X148340974Y-104910699D01*
X148275096Y-104850643D01*
X148193454Y-104776216D01*
X148193451Y-104776214D01*
X148191320Y-104774271D01*
X148188870Y-104772754D01*
X148188866Y-104772751D01*
X148021597Y-104669183D01*
X148021595Y-104669182D01*
X148019145Y-104667665D01*
X148016458Y-104666624D01*
X148016456Y-104666623D01*
X147833003Y-104595553D01*
X147833001Y-104595552D01*
X147830313Y-104594511D01*
X147827477Y-104593980D01*
X147827474Y-104593980D01*
X147634088Y-104557829D01*
X147634079Y-104557828D01*
X147631254Y-104557300D01*
X147428746Y-104557300D01*
X147425921Y-104557828D01*
X147425911Y-104557829D01*
X147232525Y-104593980D01*
X147232520Y-104593981D01*
X147229687Y-104594511D01*
X147227000Y-104595551D01*
X147226996Y-104595553D01*
X147043543Y-104666623D01*
X147043537Y-104666625D01*
X147040855Y-104667665D01*
X147038408Y-104669179D01*
X147038402Y-104669183D01*
X146871133Y-104772751D01*
X146871124Y-104772757D01*
X146868680Y-104774271D01*
X146866553Y-104776209D01*
X146866545Y-104776216D01*
X146721160Y-104908753D01*
X146721156Y-104908756D01*
X146719026Y-104910699D01*
X146717286Y-104913002D01*
X146717286Y-104913003D01*
X146598731Y-105069993D01*
X146598724Y-105070003D01*
X146596988Y-105072303D01*
X146595700Y-105074888D01*
X146595699Y-105074891D01*
X146508007Y-105251000D01*
X146508004Y-105251006D01*
X146506723Y-105253580D01*
X146505936Y-105256343D01*
X146505933Y-105256353D01*
X146452095Y-105445576D01*
X146451304Y-105448357D01*
X146451037Y-105451233D01*
X146451037Y-105451236D01*
X146442478Y-105543606D01*
X146432619Y-105650000D01*
X139713200Y-105650000D01*
X139713200Y-104697610D01*
X139728552Y-104656582D01*
X139767065Y-104635709D01*
X139809821Y-104645246D01*
X139835814Y-104680506D01*
X139850933Y-104733646D01*
X139850935Y-104733653D01*
X139851723Y-104736420D01*
X139853006Y-104738997D01*
X139853007Y-104738999D01*
X139871539Y-104776216D01*
X139941988Y-104917697D01*
X139943727Y-104920001D01*
X139943731Y-104920006D01*
X139955136Y-104935108D01*
X140064026Y-105079301D01*
X140113481Y-105124385D01*
X140205380Y-105208163D01*
X140213680Y-105215729D01*
X140385855Y-105322335D01*
X140574687Y-105395489D01*
X140773746Y-105432700D01*
X140973370Y-105432700D01*
X140976254Y-105432700D01*
X141175313Y-105395489D01*
X141364145Y-105322335D01*
X141536320Y-105215729D01*
X141685974Y-105079301D01*
X141808012Y-104917697D01*
X141898277Y-104736420D01*
X141953696Y-104541643D01*
X141972381Y-104340000D01*
X141953696Y-104138357D01*
X141898277Y-103943580D01*
X141829178Y-103804813D01*
X141823442Y-103766893D01*
X141840931Y-103732763D01*
X142231514Y-103342180D01*
X142233848Y-103339965D01*
X142264386Y-103312470D01*
X142274859Y-103288946D01*
X142279533Y-103280336D01*
X142293561Y-103258737D01*
X142295173Y-103248555D01*
X142299807Y-103232912D01*
X142304000Y-103223497D01*
X142304000Y-103197751D01*
X142304769Y-103187974D01*
X142304906Y-103187108D01*
X142308797Y-103162542D01*
X142306128Y-103152582D01*
X142304000Y-103136412D01*
X142304000Y-101187384D01*
X142322306Y-101143190D01*
X142373996Y-101091500D01*
X142536314Y-100929180D01*
X142538648Y-100926965D01*
X142569186Y-100899470D01*
X142579659Y-100875946D01*
X142584333Y-100867336D01*
X142598361Y-100845737D01*
X142599973Y-100835555D01*
X142604607Y-100819912D01*
X142608800Y-100810497D01*
X142608800Y-100784751D01*
X142609569Y-100774974D01*
X142609950Y-100772569D01*
X142613597Y-100749542D01*
X142610928Y-100739582D01*
X142608800Y-100723412D01*
X142608800Y-98774384D01*
X142627106Y-98730190D01*
X142679214Y-98678082D01*
X142841114Y-98516180D01*
X142843448Y-98513965D01*
X142873986Y-98486470D01*
X142884459Y-98462946D01*
X142889133Y-98454336D01*
X142903161Y-98432737D01*
X142904773Y-98422555D01*
X142909407Y-98406912D01*
X142913600Y-98397497D01*
X142913600Y-98371751D01*
X142914369Y-98361974D01*
X142915373Y-98355634D01*
X142918397Y-98336542D01*
X142915728Y-98326582D01*
X142913600Y-98310412D01*
X142913600Y-96462984D01*
X142931906Y-96418790D01*
X142983872Y-96366824D01*
X143145914Y-96204780D01*
X143148248Y-96202565D01*
X143178786Y-96175070D01*
X143189259Y-96151546D01*
X143193933Y-96142936D01*
X143207961Y-96121337D01*
X143209573Y-96111155D01*
X143214207Y-96095512D01*
X143218400Y-96086097D01*
X143218400Y-96060351D01*
X143219169Y-96050574D01*
X143219306Y-96049708D01*
X143223197Y-96025142D01*
X143220528Y-96015182D01*
X143218400Y-95999012D01*
X143218400Y-93237184D01*
X143236706Y-93192990D01*
X143285716Y-93143980D01*
X143450714Y-92978980D01*
X143453048Y-92976765D01*
X143483586Y-92949270D01*
X143494059Y-92925746D01*
X143498733Y-92917136D01*
X143512761Y-92895537D01*
X143514373Y-92885355D01*
X143519007Y-92869712D01*
X143523200Y-92860297D01*
X143523200Y-92834551D01*
X143523969Y-92824774D01*
X143524106Y-92823908D01*
X143527997Y-92799342D01*
X143525328Y-92789382D01*
X143523200Y-92773212D01*
X143523200Y-91662384D01*
X143541506Y-91618190D01*
X144005690Y-91154006D01*
X144049884Y-91135700D01*
X149040716Y-91135700D01*
X149084910Y-91154006D01*
X149437537Y-91506633D01*
X149452784Y-91531512D01*
X149455074Y-91560602D01*
X149452061Y-91579633D01*
X149448028Y-91605100D01*
X149448797Y-91609955D01*
X149467421Y-91727549D01*
X149467422Y-91727553D01*
X149468191Y-91732406D01*
X149470422Y-91736785D01*
X149470423Y-91736787D01*
X149524476Y-91842872D01*
X149524478Y-91842875D01*
X149526708Y-91847251D01*
X149617849Y-91938392D01*
X149622225Y-91940622D01*
X149622227Y-91940623D01*
X149679194Y-91969649D01*
X149732694Y-91996909D01*
X149860000Y-92017072D01*
X149987306Y-91996909D01*
X150102151Y-91938392D01*
X150193292Y-91847251D01*
X150222521Y-91789884D01*
X150244167Y-91765842D01*
X150274937Y-91755845D01*
X150306582Y-91762570D01*
X150367694Y-91793709D01*
X150495000Y-91813872D01*
X150622306Y-91793709D01*
X150737151Y-91735192D01*
X150828292Y-91644051D01*
X150886809Y-91529206D01*
X150906972Y-91401900D01*
X150906203Y-91397045D01*
X150906203Y-91397039D01*
X150890411Y-91297334D01*
X150893792Y-91265158D01*
X150912810Y-91238985D01*
X150942364Y-91225826D01*
X150965206Y-91222209D01*
X151080051Y-91163692D01*
X151171192Y-91072551D01*
X151229709Y-90957706D01*
X151249872Y-90830400D01*
X151229709Y-90703094D01*
X151179478Y-90604511D01*
X151173423Y-90592627D01*
X151173422Y-90592625D01*
X151171192Y-90588249D01*
X151080051Y-90497108D01*
X151075675Y-90494878D01*
X151075672Y-90494876D01*
X150969587Y-90440823D01*
X150969585Y-90440822D01*
X150965206Y-90438591D01*
X150960353Y-90437822D01*
X150960349Y-90437821D01*
X150842755Y-90419197D01*
X150837900Y-90418428D01*
X150833044Y-90419197D01*
X150833042Y-90419197D01*
X150793403Y-90425474D01*
X150764314Y-90423184D01*
X150739434Y-90407937D01*
X150659491Y-90327994D01*
X150641185Y-90283800D01*
X150659491Y-90239606D01*
X150703685Y-90221300D01*
X152850716Y-90221300D01*
X152894910Y-90239606D01*
G37*
G04 #@! TD.AperFunction*
G04 #@! TA.AperFunction,Conductor*
G36*
X139809821Y-122425246D02*
G01*
X139835814Y-122460506D01*
X139850933Y-122513646D01*
X139850935Y-122513653D01*
X139851723Y-122516420D01*
X139853006Y-122518997D01*
X139853007Y-122518999D01*
X139861682Y-122536420D01*
X139941988Y-122697697D01*
X139943727Y-122700001D01*
X139943731Y-122700006D01*
X140003319Y-122778912D01*
X140064026Y-122859301D01*
X140213680Y-122995729D01*
X140385855Y-123102335D01*
X140574687Y-123175489D01*
X140773746Y-123212700D01*
X140973370Y-123212700D01*
X140976254Y-123212700D01*
X141175313Y-123175489D01*
X141364145Y-123102335D01*
X141536320Y-122995729D01*
X141685974Y-122859301D01*
X141808012Y-122697697D01*
X141808508Y-122698072D01*
X141836926Y-122674478D01*
X141876606Y-122672646D01*
X141909377Y-122695095D01*
X141922000Y-122732759D01*
X141922000Y-123392381D01*
X141921914Y-123395652D01*
X141920109Y-123430076D01*
X141920109Y-123430080D01*
X141919766Y-123436639D01*
X141922120Y-123442773D01*
X141922121Y-123442775D01*
X141928991Y-123460674D01*
X141931776Y-123470074D01*
X141937131Y-123495265D01*
X141943190Y-123503605D01*
X141950971Y-123517934D01*
X141954668Y-123527564D01*
X141959312Y-123532208D01*
X141972874Y-123545770D01*
X141979243Y-123553227D01*
X141994378Y-123574058D01*
X142000063Y-123577340D01*
X142000064Y-123577341D01*
X142003302Y-123579210D01*
X142016248Y-123589144D01*
X144422594Y-125995490D01*
X144440900Y-126039684D01*
X144440900Y-128629300D01*
X144426483Y-128669228D01*
X144389883Y-128690735D01*
X144386374Y-128691391D01*
X144372527Y-128693979D01*
X144372515Y-128693982D01*
X144369687Y-128694511D01*
X144367000Y-128695551D01*
X144366996Y-128695553D01*
X144183543Y-128766623D01*
X144183537Y-128766625D01*
X144180855Y-128767665D01*
X144178408Y-128769179D01*
X144178402Y-128769183D01*
X144011133Y-128872751D01*
X144011124Y-128872757D01*
X144008680Y-128874271D01*
X144006553Y-128876209D01*
X144006545Y-128876216D01*
X143861160Y-129008753D01*
X143861156Y-129008756D01*
X143859026Y-129010699D01*
X143857286Y-129013002D01*
X143857286Y-129013003D01*
X143738731Y-129169993D01*
X143738724Y-129170003D01*
X143736988Y-129172303D01*
X143735700Y-129174888D01*
X143735699Y-129174891D01*
X143648007Y-129351000D01*
X143648004Y-129351006D01*
X143646723Y-129353580D01*
X143645936Y-129356343D01*
X143645933Y-129356353D01*
X143596369Y-129530554D01*
X143591304Y-129548357D01*
X143572619Y-129750000D01*
X143591304Y-129951643D01*
X143592095Y-129954423D01*
X143645933Y-130143646D01*
X143645935Y-130143653D01*
X143646723Y-130146420D01*
X143648006Y-130148997D01*
X143648007Y-130148999D01*
X143660652Y-130174393D01*
X143736988Y-130327697D01*
X143738727Y-130330001D01*
X143738731Y-130330006D01*
X143770296Y-130371804D01*
X143859026Y-130489301D01*
X144008680Y-130625729D01*
X144180855Y-130732335D01*
X144369687Y-130805489D01*
X144407535Y-130812564D01*
X144445926Y-130836335D01*
X144458283Y-130879767D01*
X144438156Y-130920188D01*
X144396050Y-130936500D01*
X142403950Y-130936500D01*
X142361844Y-130920188D01*
X142341717Y-130879767D01*
X142354074Y-130836335D01*
X142392464Y-130812564D01*
X142430313Y-130805489D01*
X142619145Y-130732335D01*
X142791320Y-130625729D01*
X142940974Y-130489301D01*
X143063012Y-130327697D01*
X143153277Y-130146420D01*
X143208696Y-129951643D01*
X143227381Y-129750000D01*
X143208696Y-129548357D01*
X143153277Y-129353580D01*
X143063012Y-129172303D01*
X142940974Y-129010699D01*
X142791320Y-128874271D01*
X142788870Y-128872754D01*
X142788866Y-128872751D01*
X142621597Y-128769183D01*
X142621595Y-128769182D01*
X142619145Y-128767665D01*
X142616458Y-128766624D01*
X142616456Y-128766623D01*
X142433003Y-128695553D01*
X142433001Y-128695552D01*
X142430313Y-128694511D01*
X142427477Y-128693980D01*
X142427474Y-128693980D01*
X142234088Y-128657829D01*
X142234079Y-128657828D01*
X142231254Y-128657300D01*
X142028746Y-128657300D01*
X142025921Y-128657828D01*
X142025911Y-128657829D01*
X141832525Y-128693980D01*
X141832520Y-128693981D01*
X141829687Y-128694511D01*
X141827000Y-128695551D01*
X141826996Y-128695553D01*
X141643543Y-128766623D01*
X141643537Y-128766625D01*
X141640855Y-128767665D01*
X141638408Y-128769179D01*
X141638402Y-128769183D01*
X141471133Y-128872751D01*
X141471124Y-128872757D01*
X141468680Y-128874271D01*
X141466553Y-128876209D01*
X141466545Y-128876216D01*
X141321160Y-129008753D01*
X141321156Y-129008756D01*
X141319026Y-129010699D01*
X141317286Y-129013002D01*
X141317286Y-129013003D01*
X141198731Y-129169993D01*
X141198724Y-129170003D01*
X141196988Y-129172303D01*
X141195700Y-129174888D01*
X141195699Y-129174891D01*
X141127048Y-129312762D01*
X141097659Y-129341479D01*
X141056791Y-129345743D01*
X141022107Y-129323710D01*
X141008600Y-129284903D01*
X141008600Y-128494133D01*
X141025020Y-128451908D01*
X141065654Y-128431871D01*
X141089090Y-128429820D01*
X141094445Y-128428876D01*
X141299393Y-128373960D01*
X141304502Y-128372101D01*
X141496804Y-128282429D01*
X141501508Y-128279713D01*
X141634135Y-128186847D01*
X141638504Y-128181321D01*
X141635162Y-128175123D01*
X140880819Y-127420780D01*
X140875000Y-127417419D01*
X140869179Y-127420780D01*
X140122162Y-128167798D01*
X140077968Y-128186104D01*
X139775700Y-128186104D01*
X139731506Y-128167798D01*
X139713200Y-128123604D01*
X139713200Y-127907502D01*
X139725297Y-127870545D01*
X139756906Y-127847895D01*
X139795790Y-127848319D01*
X139826897Y-127871654D01*
X139888151Y-127959134D01*
X139893677Y-127963504D01*
X139899876Y-127960161D01*
X140654218Y-127205819D01*
X140657579Y-127199999D01*
X141092419Y-127199999D01*
X141095780Y-127205819D01*
X141850123Y-127960162D01*
X141856321Y-127963504D01*
X141861847Y-127959135D01*
X141954713Y-127826508D01*
X141957429Y-127821804D01*
X142047101Y-127629502D01*
X142048960Y-127624393D01*
X142103876Y-127419445D01*
X142104820Y-127414091D01*
X142123313Y-127202720D01*
X142123313Y-127197280D01*
X142104820Y-126985908D01*
X142103876Y-126980554D01*
X142048960Y-126775606D01*
X142047101Y-126770497D01*
X141957429Y-126578196D01*
X141954713Y-126573492D01*
X141861846Y-126440864D01*
X141856320Y-126436495D01*
X141850122Y-126439837D01*
X141095780Y-127194179D01*
X141092419Y-127199999D01*
X140657579Y-127199999D01*
X140654218Y-127194179D01*
X139899876Y-126439837D01*
X139893678Y-126436495D01*
X139888151Y-126440865D01*
X139826897Y-126528347D01*
X139795790Y-126551682D01*
X139756906Y-126552106D01*
X139725297Y-126529456D01*
X139713200Y-126492499D01*
X139713200Y-126218678D01*
X140111495Y-126218678D01*
X140114837Y-126224876D01*
X140869179Y-126979218D01*
X140875000Y-126982579D01*
X140880819Y-126979218D01*
X141635161Y-126224876D01*
X141638504Y-126218677D01*
X141634135Y-126213151D01*
X141501513Y-126120289D01*
X141496802Y-126117569D01*
X141304502Y-126027898D01*
X141299393Y-126026039D01*
X141094445Y-125971123D01*
X141089091Y-125970179D01*
X140877720Y-125951687D01*
X140872280Y-125951687D01*
X140660908Y-125970179D01*
X140655554Y-125971123D01*
X140450606Y-126026039D01*
X140445497Y-126027898D01*
X140253198Y-126117569D01*
X140248487Y-126120289D01*
X140115865Y-126213151D01*
X140111495Y-126218678D01*
X139713200Y-126218678D01*
X139713200Y-125017610D01*
X139728552Y-124976582D01*
X139767065Y-124955709D01*
X139809821Y-124965246D01*
X139835814Y-125000506D01*
X139850933Y-125053646D01*
X139850935Y-125053653D01*
X139851723Y-125056420D01*
X139853006Y-125058997D01*
X139853007Y-125058999D01*
X139861682Y-125076420D01*
X139941988Y-125237697D01*
X139943727Y-125240001D01*
X139943731Y-125240006D01*
X139955136Y-125255108D01*
X140064026Y-125399301D01*
X140213680Y-125535729D01*
X140385855Y-125642335D01*
X140574687Y-125715489D01*
X140773746Y-125752700D01*
X140973370Y-125752700D01*
X140976254Y-125752700D01*
X141175313Y-125715489D01*
X141364145Y-125642335D01*
X141536320Y-125535729D01*
X141685974Y-125399301D01*
X141808012Y-125237697D01*
X141898277Y-125056420D01*
X141953696Y-124861643D01*
X141972381Y-124660000D01*
X141953696Y-124458357D01*
X141898277Y-124263580D01*
X141808012Y-124082303D01*
X141685974Y-123920699D01*
X141615031Y-123856026D01*
X141538454Y-123786216D01*
X141538450Y-123786213D01*
X141536320Y-123784271D01*
X141533870Y-123782754D01*
X141533866Y-123782751D01*
X141366597Y-123679183D01*
X141366595Y-123679182D01*
X141364145Y-123677665D01*
X141361458Y-123676624D01*
X141361456Y-123676623D01*
X141178003Y-123605553D01*
X141178001Y-123605552D01*
X141175313Y-123604511D01*
X141172477Y-123603980D01*
X141172474Y-123603980D01*
X140979088Y-123567829D01*
X140979079Y-123567828D01*
X140976254Y-123567300D01*
X140773746Y-123567300D01*
X140770921Y-123567828D01*
X140770911Y-123567829D01*
X140577525Y-123603980D01*
X140577520Y-123603981D01*
X140574687Y-123604511D01*
X140572000Y-123605551D01*
X140571996Y-123605553D01*
X140388543Y-123676623D01*
X140388537Y-123676625D01*
X140385855Y-123677665D01*
X140383408Y-123679179D01*
X140383402Y-123679183D01*
X140216133Y-123782751D01*
X140216124Y-123782757D01*
X140213680Y-123784271D01*
X140211553Y-123786209D01*
X140211545Y-123786216D01*
X140066160Y-123918753D01*
X140066156Y-123918756D01*
X140064026Y-123920699D01*
X140062286Y-123923002D01*
X140062286Y-123923003D01*
X139943731Y-124079993D01*
X139943724Y-124080003D01*
X139941988Y-124082303D01*
X139940700Y-124084888D01*
X139940699Y-124084891D01*
X139853007Y-124261000D01*
X139853004Y-124261006D01*
X139851723Y-124263580D01*
X139850936Y-124266343D01*
X139850933Y-124266353D01*
X139835814Y-124319494D01*
X139809821Y-124354754D01*
X139767065Y-124364291D01*
X139728552Y-124343418D01*
X139713200Y-124302390D01*
X139713200Y-122477610D01*
X139728552Y-122436582D01*
X139767065Y-122415709D01*
X139809821Y-122425246D01*
G37*
G04 #@! TD.AperFunction*
G04 #@! TA.AperFunction,Conductor*
G36*
X157270694Y-84066906D02*
G01*
X157289000Y-84111100D01*
X157289000Y-86150248D01*
X157275493Y-86189055D01*
X157240809Y-86211088D01*
X157199941Y-86206824D01*
X157170552Y-86178107D01*
X157148920Y-86134664D01*
X157083012Y-86002303D01*
X156960974Y-85840699D01*
X156811320Y-85704271D01*
X156808870Y-85702754D01*
X156808866Y-85702751D01*
X156641597Y-85599183D01*
X156641595Y-85599182D01*
X156639145Y-85597665D01*
X156636458Y-85596624D01*
X156636456Y-85596623D01*
X156453003Y-85525553D01*
X156453001Y-85525552D01*
X156450313Y-85524511D01*
X156447477Y-85523980D01*
X156447474Y-85523980D01*
X156254088Y-85487829D01*
X156254079Y-85487828D01*
X156251254Y-85487300D01*
X156048746Y-85487300D01*
X156045921Y-85487828D01*
X156045911Y-85487829D01*
X155852525Y-85523980D01*
X155852520Y-85523981D01*
X155849687Y-85524511D01*
X155847000Y-85525551D01*
X155846996Y-85525553D01*
X155663543Y-85596623D01*
X155663537Y-85596625D01*
X155660855Y-85597665D01*
X155658408Y-85599179D01*
X155658402Y-85599183D01*
X155491133Y-85702751D01*
X155491124Y-85702757D01*
X155488680Y-85704271D01*
X155486553Y-85706209D01*
X155486545Y-85706216D01*
X155341160Y-85838753D01*
X155341156Y-85838756D01*
X155339026Y-85840699D01*
X155337286Y-85843002D01*
X155337286Y-85843003D01*
X155218731Y-85999993D01*
X155218724Y-86000003D01*
X155216988Y-86002303D01*
X155215700Y-86004888D01*
X155215699Y-86004891D01*
X155128007Y-86181000D01*
X155128004Y-86181006D01*
X155126723Y-86183580D01*
X155125936Y-86186343D01*
X155125933Y-86186353D01*
X155076175Y-86361236D01*
X155071304Y-86378357D01*
X155052619Y-86580000D01*
X155071304Y-86781643D01*
X155072095Y-86784423D01*
X155125933Y-86973646D01*
X155125935Y-86973653D01*
X155126723Y-86976420D01*
X155216988Y-87157697D01*
X155218727Y-87160001D01*
X155218731Y-87160006D01*
X155253029Y-87205423D01*
X155339026Y-87319301D01*
X155488680Y-87455729D01*
X155660855Y-87562335D01*
X155849687Y-87635489D01*
X156048746Y-87672700D01*
X156248370Y-87672700D01*
X156251254Y-87672700D01*
X156450313Y-87635489D01*
X156639145Y-87562335D01*
X156811320Y-87455729D01*
X156960974Y-87319301D01*
X157083012Y-87157697D01*
X157170551Y-86981893D01*
X157199941Y-86953176D01*
X157240809Y-86948912D01*
X157275493Y-86970945D01*
X157289000Y-87009752D01*
X157289000Y-88690248D01*
X157275493Y-88729055D01*
X157240809Y-88751088D01*
X157199941Y-88746824D01*
X157170552Y-88718107D01*
X157118722Y-88614019D01*
X157083012Y-88542303D01*
X157080595Y-88539103D01*
X157042732Y-88488964D01*
X156960974Y-88380699D01*
X156811320Y-88244271D01*
X156808870Y-88242754D01*
X156808866Y-88242751D01*
X156641597Y-88139183D01*
X156641595Y-88139182D01*
X156639145Y-88137665D01*
X156636458Y-88136624D01*
X156636456Y-88136623D01*
X156453003Y-88065553D01*
X156453001Y-88065552D01*
X156450313Y-88064511D01*
X156447477Y-88063980D01*
X156447474Y-88063980D01*
X156254088Y-88027829D01*
X156254079Y-88027828D01*
X156251254Y-88027300D01*
X156048746Y-88027300D01*
X156045921Y-88027828D01*
X156045911Y-88027829D01*
X155852525Y-88063980D01*
X155852520Y-88063981D01*
X155849687Y-88064511D01*
X155847000Y-88065551D01*
X155846996Y-88065553D01*
X155663543Y-88136623D01*
X155663537Y-88136625D01*
X155660855Y-88137665D01*
X155658408Y-88139179D01*
X155658402Y-88139183D01*
X155491133Y-88242751D01*
X155491124Y-88242757D01*
X155488680Y-88244271D01*
X155486553Y-88246209D01*
X155486545Y-88246216D01*
X155341160Y-88378753D01*
X155341156Y-88378756D01*
X155339026Y-88380699D01*
X155337286Y-88383002D01*
X155337286Y-88383003D01*
X155218731Y-88539993D01*
X155218724Y-88540003D01*
X155216988Y-88542303D01*
X155215700Y-88544888D01*
X155215699Y-88544891D01*
X155128007Y-88721000D01*
X155128004Y-88721006D01*
X155126723Y-88723580D01*
X155125936Y-88726343D01*
X155125933Y-88726353D01*
X155072095Y-88915576D01*
X155071304Y-88918357D01*
X155052619Y-89120000D01*
X155071304Y-89321643D01*
X155072095Y-89324423D01*
X155089421Y-89385319D01*
X155087322Y-89425672D01*
X155060973Y-89456307D01*
X155021388Y-89464419D01*
X154985113Y-89446617D01*
X154154889Y-88616392D01*
X154152637Y-88614019D01*
X154129566Y-88588396D01*
X154129565Y-88588395D01*
X154125170Y-88583514D01*
X154119171Y-88580843D01*
X154119166Y-88580839D01*
X154101643Y-88573037D01*
X154093030Y-88568361D01*
X154076944Y-88557916D01*
X154076945Y-88557916D01*
X154071436Y-88554339D01*
X154061255Y-88552726D01*
X154045615Y-88548093D01*
X154036197Y-88543900D01*
X154029630Y-88543900D01*
X154010444Y-88543900D01*
X154000667Y-88543130D01*
X153981730Y-88540130D01*
X153981726Y-88540130D01*
X153975242Y-88539103D01*
X153965282Y-88541771D01*
X153949112Y-88543900D01*
X143186284Y-88543900D01*
X143162366Y-88539142D01*
X143142090Y-88525594D01*
X141821920Y-87205423D01*
X141804429Y-87171291D01*
X141810165Y-87133371D01*
X141898277Y-86956420D01*
X141953696Y-86761643D01*
X141972381Y-86560000D01*
X141953696Y-86358357D01*
X141898277Y-86163580D01*
X141808012Y-85982303D01*
X141685974Y-85820699D01*
X141620096Y-85760643D01*
X141538454Y-85686216D01*
X141538451Y-85686214D01*
X141536320Y-85684271D01*
X141533870Y-85682754D01*
X141533866Y-85682751D01*
X141366597Y-85579183D01*
X141366595Y-85579182D01*
X141364145Y-85577665D01*
X141361458Y-85576624D01*
X141361456Y-85576623D01*
X141178003Y-85505553D01*
X141178001Y-85505552D01*
X141175313Y-85504511D01*
X141172477Y-85503980D01*
X141172474Y-85503980D01*
X140979088Y-85467829D01*
X140979079Y-85467828D01*
X140976254Y-85467300D01*
X140773746Y-85467300D01*
X140770921Y-85467828D01*
X140770911Y-85467829D01*
X140577525Y-85503980D01*
X140577520Y-85503981D01*
X140574687Y-85504511D01*
X140572000Y-85505551D01*
X140571996Y-85505553D01*
X140388543Y-85576623D01*
X140388537Y-85576625D01*
X140385855Y-85577665D01*
X140383408Y-85579179D01*
X140383402Y-85579183D01*
X140216133Y-85682751D01*
X140216124Y-85682757D01*
X140213680Y-85684271D01*
X140211553Y-85686209D01*
X140211545Y-85686216D01*
X140066160Y-85818753D01*
X140066156Y-85818756D01*
X140064026Y-85820699D01*
X140062286Y-85823002D01*
X140062286Y-85823003D01*
X139943731Y-85979993D01*
X139943724Y-85980003D01*
X139941988Y-85982303D01*
X139940700Y-85984888D01*
X139940699Y-85984891D01*
X139853007Y-86161000D01*
X139853004Y-86161006D01*
X139851723Y-86163580D01*
X139850936Y-86166343D01*
X139850933Y-86166353D01*
X139835814Y-86219494D01*
X139809821Y-86254754D01*
X139767065Y-86264291D01*
X139728552Y-86243418D01*
X139713200Y-86202390D01*
X139713200Y-84111100D01*
X139731506Y-84066906D01*
X139775700Y-84048600D01*
X157226500Y-84048600D01*
X157270694Y-84066906D01*
G37*
G04 #@! TD.AperFunction*
G04 #@! TD*
M02*
